<svg xmlns="http://www.w3.org/2000/svg" width="1085.67" height="854.95"><defs><clipPath id="a"><path class="a" d="M234.91 424.46v51.25l217.32 117.78v-52.06L234.91 424.46z"/></clipPath><clipPath id="b"><path class="a" d="M784.04 348.2v87.56l-331.32 176.6v-88.95L784.04 348.2z"/></clipPath><clipPath id="c"><path class="a" d="M773.79 369.14v51.25L453.24 593.42v-52.06l320.55-172.22z"/></clipPath><clipPath id="d"><path class="a" d="M549.63 220.05L218.16 396.71l234.6 128.16 331.47-176.66-234.6-128.16z"/></clipPath><clipPath id="e"><path class="a" d="M284.94 320.91v43.7l185.31 100.43v-44.39l-185.31-99.74z"/></clipPath><clipPath id="f"><path class="a" d="M753.19 255.88v74.66L470.67 481.13v-75.84l282.52-149.41z"/></clipPath><clipPath id="g"><path class="a" d="M744.45 273.74v43.7L471.12 464.99v-44.4l273.33-146.85z"/></clipPath><clipPath id="h"><path class="a" d="M553.3 146.61L270.66 297.25 470.7 406.53l282.65-150.64L553.3 146.61z"/></clipPath><clipPath id="i"><path class="b" d="M735.21 161.14v-18.79h-36.68L490.59 31.41 282.65 142.35h-36.68v19.57l244.62 130.51 244.62-130.51v-.78z"/></clipPath><clipPath id="j"><path class="a" d="M374.12 388.33A11.62 11.62 0 01362.5 400a11.62 11.62 0 01-11.62-11.62v-39.4a11.62 11.62 0 0111.62-11.62 11.62 11.62 0 0111.62 11.62z"/></clipPath><clipPath id="k"><path class="a" d="M425.26 788.49c14.64 27.65 41.6 42.06 60.23 32.2s21.86-40.27 7.23-67.92-41.6-42.06-60.23-32.19-21.86 40.26-7.23 67.91z"/></clipPath><clipPath id="l"><path class="a" d="M981.12 494.17c-14.63-27.64-41.6-42.06-60.23-32.2-.62.33-1.18.74-1.76 1.11L431.44 721.31l52.86 99.84 487.19-258a26.39 26.39 0 002.41-1.11c18.63-9.82 21.86-40.22 7.22-67.87z"/></clipPath><clipPath id="m"><path class="a" d="M101.91 570.1l28.71 44.79 21.53-42.78-50.24-2.01z"/></clipPath><clipPath id="n"><path class="a" d="M129.66 587.13c6.24-11.78 17.72-17.92 25.66-13.72.26.14.5.31.75.47l207.77 110-22.52 42.54-207.56-109.88a10.53 10.53 0 01-1-.47c-7.96-4.21-9.34-17.16-3.1-28.94z"/></clipPath><style>.a,.bf,.k,.u,.y{fill:none}.b{fill:#324446}.u,.y{mix-blend-mode:multiply}.bf,.k{stroke-linecap:round;stroke-linejoin:round}.bf{stroke-width:7px}.f,.y{opacity:.2}.f{fill:#202c2c}.g{fill:#fff}.h{fill:#e2e2e2}.az,.i{fill:#bfc0c2}.j{fill:#fffdfe}.k{stroke:#e2e2e2;stroke-width:3px}.az{opacity:.4}.u,.y{stroke:#a8a8a8}.n{fill:#61251d}.p{fill:#01516b}.q{fill:#053844}.r{fill:#a8a8a8}.t{opacity:.3}.u,.y{stroke-miterlimit:10}.w{fill:#ebebeb}.ac{fill:#93261c}.ao{fill:#ffcb58}.ar{fill:#eaaf39}.at{fill:#ff481e}.bb{fill:#ab0e09}.bf{stroke:#a7734e}.bj{fill:#008d95}</style></defs><g style="isolation:isolate"><path d="M1073.51 528.23c0 180.51-240.32 326.77-536.77 326.77S0 708.74 0 528.23s240.25-326.76 536.74-326.76 536.77 146.24 536.77 326.76z" style="mix-blend-mode:multiply" fill="#ddf1fb"/><path d="M535.1 383.7l234.6 128.16M611.66 345.42l234.6 128.16" opacity=".2" stroke-width="7" stroke-linecap="round" stroke-linejoin="round" stroke="#202c2c" fill="none"/><path class="f" d="M795.9 269.05l-108.07 57.46 210.66 114.02 108.33-56.65L795.9 269.05z"/><path class="g" d="M1005.87 363.51v19.9l-58-4.89 58-15.01z"/><path class="g" d="M803.89 273.07L717.9 318.4l201.98 110.33 85.99-45.32-201.98-110.34z"/><path class="h" d="M919.88 428.73v-53.27L717.9 298.49v19.91l201.98 110.33z"/><path class="i" d="M803.89 253.17l-85.99 45.32 201.98 110.34 85.99-45.32-201.98-110.34z"/><path class="g" d="M1005.87 363.51v19.9l-58-4.89 58-15.01z"/><path class="g" d="M803.89 273.07L717.9 318.4l201.98 110.33 85.99-45.32-201.98-110.34z"/><path class="h" d="M919.88 428.73v-53.27L717.9 298.49v19.91l201.98 110.33z"/><path class="i" d="M803.89 253.17l-85.99 45.32 201.98 110.34 85.99-45.32-201.98-110.34z"/><path class="j" d="M776.13 112.46c-14.07 0-25.48 6.41-25.48 14.32v161.1c0 7.91 11.41 14.32 25.48 14.32s25.48-6.41 25.48-14.32v-161.1c0-7.91-11.41-14.32-25.48-14.32z"/><path class="k" d="M759.54 128.18v158.47m13.01-150.05v158.47m16.08-164.59v158.47"/><path class="j" d="M942.26 195.91c-14.08 0-25.49 6.41-25.49 14.32v161.1c0 7.91 11.41 14.32 25.48 14.32s25.49-6.41 25.49-14.32v-161.1c0-7.91-11.41-14.32-25.48-14.32z"/><path class="k" d="M925.67 211.63V370.1m13.01-150.05v158.47m16.08-164.6v158.47"/><path class="j" d="M856.51 156.1c-14.07 0-25.48 6.41-25.48 14.32v161.1c0 7.91 11.41 14.32 25.48 14.32S882 339.43 882 331.52v-161.1c0-7.91-11.41-14.32-25.49-14.32z"/><path class="k" d="M839.92 171.82v158.47m13.01-150.05v158.47m16.08-164.6v158.47"/><path class="g" d="M1005.87 175.94v19.91l-58-4.89 58-15.02z"/><path class="g" d="M803.89 85.5l-85.99 45.33 201.98 110.34 85.99-45.32L803.89 85.5z"/><path class="h" d="M919.88 241.17V187.9L717.9 110.93v19.9l201.98 110.34z"/><path class="i" d="M803.89 65.6l-85.99 45.33 201.98 110.34 85.99-45.33L803.89 65.6z"/><path class="i" d="M897.38 38.42l-86.74 32.15-73.26 37.32 131.63 30.24 28.37-99.71z"/><path class="h" d="M897.38 38.42L835.9 69.23l84.16 136.43 67.71-35.76-90.39-131.48z"/><path class="g" d="M920.3 205.5L836.86 68.47l-99.48 39.42L920.3 205.5z"/><path opacity=".4" fill="#e2e2e2" d="M899.64 187.59l-67.23-110.4-79.38 31.47 146.61 78.93z"/><path class="f" d="M256.76 320.85L15.17 446.49 363.44 637.2l241.59-125.64-348.27-190.71z"/><path class="i" d="M273.54 304.35L32.48 432.83l.01-.01-13.95 1.23v6.21l344.6 191.9 255.01-135.92-344.61-191.89z"/><path class="g" d="M273.54 298.13l-255 135.92 344.6 191.89 255.01-135.91-344.61-191.9z"/><path d="M293.23 330.25L77.59 444.41m244.82-97.75L106.77 460.81m244.82-97.75L135.96 477.22m244.82-97.75L165.14 493.62m244.82-97.75L194.32 510.02m244.82-97.74L223.5 526.43m244.82-97.75L252.69 542.83m244.82-97.75L281.87 559.24m244.82-97.75L311.05 575.64m244.82-97.75L340.24 592.05" style="mix-blend-mode:multiply" stroke-width="4" stroke="#a8a8a8" opacity=".2" stroke-linecap="round" stroke-linejoin="round" fill="none"/><path class="f" d="M529.41 304.41l-350.3 186.7 247.93 135.44 350.3-186.7-247.93-135.44z"/><path class="n" d="M549.63 307.6L218.16 484.27l234.6 128.16 331.47-176.66-234.6-128.17z"/><path fill="#009ee5" d="M549.63 220.05L218.16 396.71l234.6 128.16 331.47-176.66-234.6-128.16z"/><path class="p" d="M218.16 396.71v87.56l234.6 128.16v-88.95l-234.6-126.77z"/><path class="q" d="M229.35 421.06v60.01l227.31 123.55v-60.9L229.35 421.06z"/><path class="r" d="M234.91 424.46v51.25l217.32 117.78v-52.06L234.91 424.46z"/><g class="t" clip-path="url(#a)"><path class="u" d="M207.28 414.21L466.3 555.97M207.28 420.81L466.3 562.57M207.28 427.41L466.3 569.17M207.28 434.02L466.3 575.77M207.28 440.62L466.3 582.38M207.28 447.22L466.3 588.98M207.28 453.82L466.3 595.58"/></g><path class="p" d="M773.79 420.39v-51.25l10.17-5.48.08.12V348.2L452.72 523.41v88.95l331.32-176.6v-13.52l-10.25-1.85z"/><g clip-path="url(#b)"><path class="q" d="M773.79 368.62v60.01L452.98 602.46v-60.89l320.81-172.95z"/><path class="w" d="M773.79 369.14v51.25L453.24 593.42v-52.06l320.55-172.22z"/><g clip-path="url(#c)"><path class="y" d="M801.41 358.89L439.17 555.9m362.24-190.41L439.17 562.5m362.24-190.41L439.17 569.1m362.24-190.4l-362.24 197m362.24-190.4L439.17 582.31M801.41 391.9L439.17 588.91M801.41 398.5L439.17 595.51"/></g></g><g clip-path="url(#d)"><path fill="#01516b" opacity=".4" d="M342.3 106.13L10.83 282.79l234.6 128.17 331.48-176.67L342.3 106.13z"/></g><g><path class="n" d="M553.3 221.27L270.66 371.91 470.7 481.19l282.65-150.64L553.3 221.27z"/><path fill="#df361f" d="M553.3 146.61L270.66 297.25 470.7 406.53l282.65-150.64L553.3 146.61z"/><path class="ac" d="M270.66 297.25v74.66L470.7 481.19v-75.85L270.66 297.25z"/><path class="n" d="M280.2 318.01v51.17l193.83 105.35v-51.92L280.2 318.01z"/><path class="r" d="M284.94 320.91v43.7l185.31 100.43v-44.39l-185.31-99.74z"/><g class="t" clip-path="url(#e)"><path class="u" d="M261.39 312.17l220.86 120.88M261.39 317.8l220.86 120.88M261.39 323.43l220.86 120.88M261.39 329.06l220.86 120.88M261.39 334.69l220.86 120.87M261.39 340.32l220.86 120.87M261.39 345.95l220.86 120.87"/></g><path class="ac" d="M744.45 317.44v-43.7l8.66-4.67.08.1v-13.29L470.67 405.29v75.84l282.52-150.59v-11.53l-8.74-1.57z"/><g clip-path="url(#f)"><path class="n" d="M744.45 273.3v51.17L470.89 472.69v-51.92L744.45 273.3z"/><path class="w" d="M744.45 273.74v43.7L471.12 464.99v-44.4l273.33-146.85z"/><g clip-path="url(#g)"><path class="y" d="M768 265L459.12 432.99M768 270.63L459.12 438.62M768 276.26L459.12 444.25M768 281.89L459.12 449.87M768 287.52L459.12 455.5M768 293.15L459.12 461.13M768 298.78L459.12 466.76"/></g></g><g clip-path="url(#h)"><path fill="#93261c" opacity=".3" d="M388.62 55.93L105.97 206.57l200.04 109.28 282.65-150.64L388.62 55.93z"/></g></g><g><ellipse class="f" cx="494.72" cy="264.7" rx="157.72" ry="90.39"/><path d="M341.11 102.54v155.19c0 47.84 69 86.63 154.17 86.63s154.18-38.78 154.18-86.63V102.54z" fill="#202c2c"/><path fill="#171443" d="M735.21 161.14v-18.79h-36.68L490.59 31.41 282.65 142.35h-36.68v19.57l244.62 130.51 244.62-130.51v-.78z"/><path class="b" d="M735.21 161.14v-18.79h-36.68L490.59 31.41 282.65 142.35h-36.68v19.57l244.62 130.51 244.62-130.51v-.78z"/><g clip-path="url(#i)"><path style="mix-blend-mode:multiply" opacity=".6" fill="#202c2c" d="M490.59 0h306.47v397.05H490.59z"/></g><path fill="#4d6565" d="M490.59 11.83L245.97 142.35l244.62 130.51 244.62-130.51L490.59 11.83z"/><path stroke="#ffcb58" stroke-width="6" stroke-miterlimit="10" fill="none" d="M494.44 131.97l-132.47 71.55v122.3"/><path class="ao" d="M374.12 388.33A11.62 11.62 0 01362.5 400a11.62 11.62 0 01-11.62-11.62v-39.4a11.62 11.62 0 0111.62-11.62 11.62 11.62 0 0111.62 11.62z"/><g clip-path="url(#j)"><path class="ar" d="M328.42 334.65c21.45 13.64 50.71 13.7 70.63-2.81 2.61-2.16-1.13-5.86-3.71-3.71-18.11 15-45 14.27-64.26 2-2.86-1.82-5.5 2.72-2.65 4.54z"/></g><circle class="ao" cx="362.5" cy="326.97" r="15.02"/><ellipse class="ar" cx="486.17" cy="135.75" rx="23.76" ry="14.46"/><ellipse class="ao" cx="486.17" cy="131.89" rx="18.86" ry="11.48"/></g><path fill="#b25900" d="M396.33 513.04l-1.04 40.65 14.46-5.86 18.63 25.54v-42.74l-32.05-17.59z"/><g><path class="f" d="M915.71 522.83L424.86 785.85l85.43 46.55 490.85-263.02-85.43-46.55z"/><path class="at" d="M737.36 581.33a28.63 28.63 0 00-4.9 3.3l10.39-5.5a28.76 28.76 0 00-5.49 2.2z"/><path class="g" d="M431.433 721.297l489.305-259.074 52.862 99.839-489.305 259.074z"/><path class="i" d="M425.26 788.49c14.64 27.65 41.6 42.06 60.23 32.2s21.86-40.27 7.23-67.92-41.6-42.06-60.23-32.19-21.86 40.26-7.23 67.91z"/><ellipse cx="458.99" cy="770.63" rx="38.03" ry="56.44" transform="rotate(-27.9 459.013 770.635)" stroke="#fff" stroke-miterlimit="10" fill="none"/><g clip-path="url(#k)"><path d="M442.64 812.81c14.64 27.65 41.61 42.06 60.23 32.2s21.86-40.27 7.23-67.92-41.61-42.09-60.24-32.19-21.86 40.26-7.22 67.91z" style="mix-blend-mode:screen" opacity=".4" fill="#bfc0c2"/><path class="g" d="M446.72 761.61l.31-.14z"/><path d="M451.16 760.31c10.62-1.63 23.62 6.76 31.18 21 8.51 16.08 7 33.66-3.25 40.21l1.38 2.56 508.42-221.7z" fill="#e5e5e5"/></g><ellipse class="g" cx="947.4" cy="512.03" rx="38.16" ry="56.64" transform="rotate(-27.9 947.493 512.067)"/><g clip-path="url(#l)"><path class="az" d="M465.52 785.676l601.367-318.408 18.783 35.474L484.303 821.15z"/></g><path d="M792.22 594.59C777.58 567 750.61 552.54 732 562.4a26 26 0 00-3.74 2.42L620.5 621.88c18.3-5.92 42.46 8.33 56 34 14.64 27.65 11.4 58.05-7.23 67.92-.34.18-.7.34-1 .51l.07.13 119.86-63.52-.16-.3c15.89-11.45 17.96-39.96 4.18-66.03z" fill="#e13f2a"/><path class="bb" d="M814.03 644.88l.71-20.47 35.45-7.93-82.39-30.94-36.82 28.16 83.05 31.18z"/><path class="bb" d="M850.19 611.29v5.19l-16.64-4.42 16.64-.77z"/><path class="at" d="M814.03 639.7l.71-20.47 35.45-7.94-82.39-30.93-36.82 28.16 83.05 31.18z"/><path class="bb" d="M693.54 623.14l-28.49 56.13 38.6-9.02 29.3 20.56 18.03-67.04-57.44-.63z"/><path class="bb" d="M665.13 673.15l-.08 6.12 18.59-6.48 2.97-12.4-21.48 12.76z"/><path class="at" d="M693.54 617.09l-28.49 56.11 38.6-9.01 29.3 20.56 18.03-67.04-57.44-.62z"/><g><path class="bb" d="M783.42 587.88c0 23.76-31.62 43-70.64 43s-70.63-19.24-70.63-43 31.61-43 70.63-43 70.64 19.25 70.64 43z"/><path class="at" d="M783.42 582.4c0 23.76-31.62 43-70.64 43s-70.63-19.25-70.63-43 31.61-43 70.63-43 70.64 19.24 70.64 43z"/><ellipse cx="712.78" cy="578.74" rx="45.11" ry="27.46" fill="#ffbe00"/><ellipse cx="712.78" cy="580.57" rx="59.28" ry="36.09" stroke="#fff" stroke-miterlimit="10" opacity=".4" fill="none"/></g><ellipse cx="712.78" cy="578.74" rx="36.07" ry="21.96" style="mix-blend-mode:multiply" fill="#ffb001"/></g><g><path class="bf" d="M766.34 210.09l82.55 264.4"/><path d="M700.28 287.31a6.14 6.14 0 01-5.64-3.4 6.55 6.55 0 012.79-8.66l73.12-39a6.27 6.27 0 018.59 2.63 6.57 6.57 0 01-2.82 8.72l-73.21 39a6.32 6.32 0 01-2.83.71zm12.53 41.28a6.19 6.19 0 01-5.66-3.43 6.54 6.54 0 012.8-8.66l73.33-38.83a6.3 6.3 0 018.62 2.68 6.57 6.57 0 01-2.83 8.73l-73.41 38.78a6.26 6.26 0 01-2.85.73zm13.06 42.1a6.23 6.23 0 01-5.73-3.36 6.53 6.53 0 012.64-8.72l72.79-40a6.34 6.34 0 018.69 2.55 6.56 6.56 0 01-2.67 8.79l-72.88 40a6.27 6.27 0 01-2.84.74zm12.59 41.52a6.28 6.28 0 01-5.75-3.39 6.52 6.52 0 012.66-8.73l73-39.74a6.38 6.38 0 018.72 2.6 6.55 6.55 0 01-2.69 8.8l-73.13 39.7a6.27 6.27 0 01-2.81.76zm12.19 41.05a6.34 6.34 0 01-5.71-3.52 6.52 6.52 0 012.82-8.69l73.94-38.24a6.41 6.41 0 018.69 2.79 6.54 6.54 0 01-2.85 8.75l-74 38.19a6.32 6.32 0 01-2.89.72zm12.7 41.85a6.38 6.38 0 01-5.72-3.55 6.52 6.52 0 012.82-8.7l74.15-38a6.45 6.45 0 018.72 2.83 6.54 6.54 0 01-2.86 8.76l-74.24 38a6.32 6.32 0 01-2.87.66z" fill="#805434"/><path class="bf" d="M687.43 243.85l83.02 268.69"/></g><g><path class="f" d="M366.06 704.84c-.28-.15-.57-.25-.85-.37l-15.54-8.15c-.24-.15-.46-.32-.71-.45a11.25 11.25 0 00-2.42-.91l.08-.16-207.78-110c-.25-.16-.48-.33-.74-.47a11.26 11.26 0 00-3.26-1.12l.09-.19-50.24-2 25.14 39.22a13.45 13.45 0 003.11 4.86l.46.71.11-.22a11 11 0 002 1.4c.25.13.51.22.77.34l207.81 110 .16-.31a11.16 11.16 0 002.11 1.49 11 11 0 001.06.49l15.4 8.07c.22.13.42.28.64.4 7.94 4.2 19.42-1.94 25.66-13.71s4.88-24.76-3.06-28.92z"/><g clip-path="url(#m)"><path fill="#f4d6a9" d="M101.91 570.1l28.71 44.79 21.53-42.78-50.24-2.01z"/><ellipse class="q" cx="97.18" cy="564.07" rx="18.52" ry="20.96"/></g><path class="at" d="M233.51 624.26a12.07 12.07 0 012.09 1.41l-4.43-2.35a12.29 12.29 0 012.34.94z"/><ellipse class="bj" cx="144.03" cy="594.74" rx="24.13" ry="16.26" transform="rotate(-62.1 144.055 594.77)"/><path class="bj" d="M132.86 616.058l22.522-42.536 208.463 110.375-22.522 42.536z"/><ellipse class="i" cx="352.11" cy="704.91" rx="24.13" ry="16.26" transform="rotate(-62.1 352.13 704.925)"/><g clip-path="url(#n)"><path class="az" d="M85.117 590.784l8.001-15.112 256.204 135.652-8.002 15.113z"/></g><path class="bb" d="M383.74 694.24l-16.84-8.83c-.24-.15-.46-.32-.72-.45-7.94-4.2-19.42 1.94-25.66 13.72s-4.86 24.74 3.08 28.94a11.47 11.47 0 001.06.49l16.56 8.67z"/><path class="at" d="M386.37 722.86c-6.24 11.78-17.73 17.92-25.66 13.71s-9.32-17.15-3.08-28.93 17.72-17.92 25.66-13.71 9.32 17.15 3.08 28.93z"/></g><path class="g" d="M174.19 169.01l8.77 16.03 16.03 8.77-16.03 8.77-8.77 16.04-8.77-16.04-16.04-8.77 16.04-8.77 8.77-16.03zm679.63 535.54l7.11 13 13 7.11-13 7.11-7.11 13-7.11-13-13-7.11 13-7.11 7.11-13zM974.29 53.67l4.9 8.96 8.96 4.9-8.96 4.89-4.9 8.96-4.89-8.96-8.96-4.89 8.96-4.9 4.89-8.96zM101.21 244.35l4.9 8.96 8.96 4.9-8.96 4.9-4.9 8.95-4.9-8.95-8.95-4.9 8.95-4.9 4.9-8.96zM678.35 92.36c3.77 0 3.77-5.85 0-5.85s-3.77 5.85 0 5.85zM485.9 640.7h-.77c-.27 0-.39-.16.42.06a2.65 2.65 0 011.45 3.4c.1-.2.38-.36-.16.2a4.68 4.68 0 00.55-.69 3.1 3.1 0 00.31-2.26 2.13 2.13 0 00-1.48-1.48 3.42 3.42 0 00-4 3.17 2.74 2.74 0 002 2.6 8 8 0 001.68.19 2.61 2.61 0 000-5.22zM231.36 764.27a13 13 0 00-1.59 1.85 3.58 3.58 0 00-.51 1.14 4.09 4.09 0 00-.07 1.51 4.15 4.15 0 001 2.14l.75.58a2.74 2.74 0 001.37.44 3.72 3.72 0 002.35-.44l-2.76.36a3.64 3.64 0 001.34.15 3.83 3.83 0 003.2-1.86 3.23 3.23 0 000-3.33 3.88 3.88 0 00-1.8-1.57c-.26-.11-.5-.17-.75-.27l.85.36h-.08l.73 5.63a8.5 8.5 0 00.59-.78 4.8 4.8 0 00.51-1.9l-.13 1-.37.88a1.13 1.13 0 01.13-.21l-.58.75a13.54 13.54 0 011-1.06 3.73 3.73 0 00-5.28-5.28zm764.03-303.16a5.49 5.49 0 00-.72-1.93 2.15 2.15 0 00-3.66 0 5.49 5.49 0 00-.72 1.93 2.65 2.65 0 105.1 0zM816 759.92c3.09 0 3.09-4.8 0-4.8s-3.09 4.8 0 4.8z"/></g></svg>