<svg xmlns="http://www.w3.org/2000/svg" width="572.74" height="459.06"><defs><style>.b{fill:#ce6849}.c{fill:#efba50}.d{fill:#75cfd3}.e{fill:#afaf3e}.g{fill:#e5c3a3}.j{fill:#fff2d9}.l{fill:#ffb24d}.m{fill:#fc933d}.p{fill:#ffce61}.t{fill:#f4c7a2}.u{fill:#7d65b7}.x{fill:#7f4b44}.aa{fill:#e54242}.ac{fill:#ffc885}.ad{fill:#eac1ea}.af{fill:#a33f2b}.ag{fill:#8c2f1f}.ah{fill:#ffcd9c}.ai{fill:#5298cc}.aj{fill:#3a88af}.ak{fill:#543a4b}.al{fill:#664d5c}.br{mix-blend-mode:overlay}.an{fill:#b9e1f9}.ao{fill:#fff0dc}.aq{fill:#ef8f6f}.ax{fill:#fff9e9}.ay{fill:#5795aa}.az{fill:#78c7dd}.ba{fill:#544345}.bb{fill:#473437}.bc{fill:#f4e9dc}.be{fill:#edd9c3}.bf{fill:#e5c9ae}.bh{fill:#c6a98d}.bj{fill:#594547}.br,.bs{fill:#b8faff}.bu{fill:#9e4736}</style></defs><g style="isolation:isolate"><path class="b" d="M471.25 436.4l-30.73-2.65-3.61 22.5 30.72 2.64 3.62-22.49z"/><path class="c" d="M365.35 436.22h31.21v22.84h-31.21z"/><path class="d" d="M379.9 413.19h31.21v22.85H379.9z"/><path class="c" d="M372.05 390.33h32.82v22.85h-32.82z"/><path class="d" d="M405.96 436.22h31.21v22.84h-31.21z"/><path class="e" d="M376.98 367.6h31.21v22.84h-31.21z"/><path class="b" d="M348.57 413.2h31.21v22.85h-31.21z"/><path class="e" d="M328.69 436.22h35.49v22.84h-35.49z"/><path class="b" d="M295.17 436.22h31.22v22.84h-31.22z"/><path class="c" d="M363.24 344.81h31.21v22.85h-31.21z"/><path class="d" d="M355.96 321.94h31.21v22.85h-31.21zm-15.34 45.66h31.21v22.85h-31.21z"/><path class="b" d="M335.98 390.33h31.21v22.85h-31.21z"/><path class="c" d="M311.17 413.2h31.21v22.84h-31.21z"/><path d="M369.36 338.95v-11.38l2.6-.75h2.58v12.13zm15.69 11.15v1.51l-.81 1.54h-5.61v1.37h4.45c1.21 0 2.06.62 2.06 1.51v4.69c0 .88-.85 1.51-2.06 1.51h-9.63v-3H380v-1.68h-6.53v-7.45zm-5.78 58.17v-11.38l2.6-.75h2.58v12.13zm9.13 0c-1.21 0-2.06-.62-2.06-1.51v-9.11c0-.89.86-1.51 2.06-1.51h7.6c1.21 0 2.08.62 2.08 1.51v9.11c0 .88-.85 1.51-2.08 1.51zm3.1-9.08v6.06h1.35v-6.05zm-40.2 50.18v4.69c0 .89-.86 1.51-2.09 1.51h-7.55c-1.21 0-2.06-.62-2.06-1.51V445c0-.88.85-1.51 2.06-1.51h9.42V445l-.8 1.55h-5.51v1.37h4.44c1.23-.06 2.09.57 2.09 1.45zm-5.18 1.51h-1.35v1.68h1.35zm17.01-65.63c0 .88-.85 1.5-2.06 1.5h-9.63v-3H358v-1.68h-3.74v-1.89l2.74-1.85v-.64h-4.71l-.83-1.54v-1.51H363v2.89l-2 2c1.3.07 2.11.59 2.11 1.58zm56.21 60h-4.88v-3.05h10.18v3.12l-4 9h-4.8v-1l3.51-7.69zm-29.81-61.51v-3.07c0-.88 1-1.45 2.13-1.45v-.35c-1.13 0-2.13-.57-2.13-1.46v-2.79c0-.88.87-1.51 2.08-1.51h7.55c1.21 0 2.06.62 2.06 1.51v2.79c0 .88-1 1.46-2.11 1.46v.35c1.14 0 2.11.57 2.11 1.45v3.07c0 .89-.85 1.51-2.06 1.51h-7.55c-1.23 0-2.08-.62-2.08-1.51zm5.18-6.2h1.35v-1.37h-1.35zm0 4.69h1.35v-1.68h-1.35zm-65.1 45.9v.66h6.51v3h-11.69v-4a1.91 1.91 0 011.4-2.06l5.13-2.36v-.64h-5.71l-.83-1.54v-1.51h9.63c1.21 0 2.06.63 2.06 1.51V424a1.87 1.87 0 01-1.4 2.06zm36.17-9.21v1.51l-2.22 4.66v.64h2v-2.2h5.19V431h-5.19v-2.28h-7.31v-3.71l2.91-6.14zm90.47 21.51l-.35 1.49-3.26 4.31-.14.64 2 .25.5-2.12 5.11.64-1.73 7.36-5.11-.64.52-2.25-7.2-.9.85-3.66 4.29-5.68zm-82.35 7.24V443c0-.89.85-1.51 2.06-1.51h7.55c1.23 0 2.08.62 2.08 1.51v9.11c0 .88-.85 1.51-2.08 1.51h-9v-3h5.92v-1.37H376c-1.25-.06-2.1-.68-2.1-1.58zm5.16-1.51h1.35v-1.66h-1.35zm11.84-15.61v-11.38l2.6-.75h2.58v12.13zM356.08 400h-4.87v-3.1h10.17v3.1l-4 9h-4.8v-1l3.5-7.69zm-37.02 41.7v1.5l-.81 1.54h-5.6v1.37h4.45c1.21 0 2.06.62 2.06 1.51v4.69c0 .89-.85 1.51-2.06 1.51h-9.63v-3H314v-1.68h-6.53v-7.44z" fill="#fff3dc"/><path class="g" d="M131.44 342.88l-56.17 6.3 16.94 26.25 47.13.88c-6.7-12.03-8.64-20.31-7.9-33.43z"/><path d="M46.34 381.05s-15.91-12.74-3.79-29.56l46.06-10.16 50.54.4.28 3.14s-48 1.69-48.89 4.07.83 19.6 5.48 20.94 46.2 4.12 46.2 4.12l.11 4.59z" fill="#e54141"/><path d="M87.49 341.58l-44.94 9.92c-12.13 16.81 3.79 29.56 3.79 29.56l48.38-1.26c-3.72-1.58-12.43-24.24-7.23-38.22z" fill="#f55"/><path class="j" d="M51.59 381.47l23.08-2.78 1.03 18.84-22 1.28-2.11-17.34z"/><path fill="#ddb08c" d="M75.12 386.91l-.45-8.22-23.08 2.78.67 5.6 22.86-.16z"/><path class="l" d="M133 398.23c2.3-5.73 3.35-15-1.87-20.67L70.6 375.1l-22.7 5.41.67 2.94 21-2.87s3.93 13.07 1.21 15-19.13 2.3-19.13 2.3l1.27 4.39z"/><path class="m" d="M131.08 377.55l-60.53-2.46c3.45.14 7.1 16.61 6 26l56.4-2.82c2.3-5.77 3.35-15.01-1.87-20.72z"/><path class="g" d="M145.92 400.45l-35-1.7-.54 18.05 33.39 3.45c-2.85-7.73-1.68-11.98 2.15-19.8z"/><path d="M149.47 402.33l1.36-2.6-35.76-4.86-68.13 7.48s-10.47 12.65 3.84 21.8l47.13 6.24 49.41-8 .6-2.59-28-2.53s-6.74-10.11-3.78-17.43z" fill="#927ace"/><path d="M147.92 419.78l-28-2.53s-6.74-10.11-3.78-17.43l33.32 2.51 1.36-2.6-35.76-4.86-4.17.46a33.06 33.06 0 00-.75 6.95c0 10.43 4.77 19.51 11.8 24.22l25.38-4.12z" fill="#7f67ba"/><path class="j" d="M6.63 424.52h54.81v28.56l-56.47 2.99 1.66-31.55z"/><path class="g" d="M6.44 424.3l50.57-.69 5.75 10.26-56.66.6.34-10.17z"/><path class="p" d="M32.8 452.31c3.41-.29 6.45-3 8-7 3.59-9.73 4.64-19.43.91-19.43L.9 427.17V422l51-2 89.28 3c7.27 0 12.54 36.15-5.33 36.15H0v-4z"/><path class="l" d="M141.15 422.92l-89.28-3h-.41a63.73 63.73 0 01.41 6.89 58.39 58.39 0 01-9.23 32.2h93.19c17.86.05 12.59-36.09 5.32-36.09z"/><path class="m" d="M74.19 426.17h-9.48c.79 10.65-1.38 18.42-7.16 27.26h9.93c5.82-9.91 6.93-16.34 6.71-27.26zm8.94 13.04a37.93 37.93 0 01-2.13 6.52h52.55a38.4 38.4 0 002-6.52z"/><path d="M87.29 382.94a51.68 51.68 0 011.15 6.56h35.3a54 54 0 00-1.26-6.56z" fill="#ffc166"/><path d="M96.31 403L51 407.21c-.66 2.49-1.05 4.11 0 7.17l45.28-1.2c-1.28-3.67-1.56-6.12.03-10.18z" fill="#c4b8e8"/><path d="M52.07 354.67l-7.84 2.24c-1.62 6.7-1.07 10.47 2.12 17l7.94-1a30.26 30.26 0 01-2.22-18.24z" fill="#ffa9a9"/><path class="t" d="M206.84 351.53l-27.14-1.8-.41 19.2 25.87 3.67c-2.66-8.65-2.16-13.36 1.68-21.07z"/><path class="u" d="M209.6 353.53l1.05-2.76-27.72-5.17-52.8 8s-8.11 13.45 3 23.19l36.53 6.64 38.29-8.54.47-2.76-21.72-2.73s-5.23-10.76-2.93-18.54z"/><path d="M183.32 373.18s-6.78-10.54-2.15-27.32l-51 7.69s-8.11 13.45 3 23.19l36.53 6.64 36.89-8.23z" fill="#9d85cc"/><path class="u" d="M133.1 376.74l-2.18-2.25 53.49-1.68 23.51 2.04-11.07 3.13-52.94.39-10.81-1.63z"/><path class="t" d="M220.51 380.31L196 377.47l-1.26 18 23.41 1.39c-2.06-6.5-1.69-10.62 2.36-16.55z"/><path d="M133.74 395.64c-2.39-5.49-3.43-14.3 2.17-19.71l64.47-1.87 24.06 5.34-.74 2.8-22.28-2.9s-4.3 12.43-1.42 14.26 20.35 2.34 20.35 2.34l-1.35 4.19z" fill="#915e54"/><path class="x" d="M133.99 396.15l-.89-2.37 62.81 2.37 1.49 4.15-63.41-4.15z"/><path class="x" d="M223.7 382.21l.74-2.8-24.06-5.34c-8.59 2.89-6.24 20-5.8 24.56l24.42 1.46 1.39-4.18s-17.48-.51-20.35-2.34 1.42-14.26 1.42-14.26z"/><path class="j" d="M131.35 395.82l35.16 5.44-9.56 26.16-29.26 1.53 3.66-33.13z"/><path class="t" d="M131.35 395.82l-.96 8.7 31.9 4.4-8.13 18.65 2.79-.15 9.56-26.16-35.16-5.44z"/><path class="p" d="M221.24 433.65s13.43-16.77 1.24-33.36l-94.6-5.43-.27 3.1s27.46 1.67 28.39 4-.29 22.66-5 24-26.25.7-26.25.7l-.12 4.53z"/><path d="M222.47 400.28l-62-3.56a80.47 80.47 0 01-2.82 35.28l63.59 1.63s13.43-16.76 1.23-33.35z" fill="#ffb243"/><path class="t" d="M248.82 434.58H194.9v20.25l55.55 2.12-1.63-22.37z"/><path d="M221.37 454.46c-13.74-.83-11.93-18.94-7-18.94l40.1.94v-3.67L118.19 428c-7.15 0-12.38 31.08 8.56 31.08h128.59v-2.82z" fill="#f95858"/><path class="aa" d="M255.34 456.24l-34-1.78c-13.74-.83-11.93-18.94-7-18.94l40.1.94v-3.67l-45.33-1.6c-7.65 0-3.8 27.87 4.32 27.87h41.91z"/><path class="aa" d="M207.94 433.73l-90.48-5.65 102.72 3.58-12.24 2.07z"/><path d="M134.65 432.79h-9.29c-2.62 8-2.35 13.76.79 23h9.28c-1.83-9-2.55-15.13-.78-23z" fill="#ffc3b0"/><path class="ac" d="M165.56 426.38h9.28c3.43-8.54 3.76-14.75 1.57-24.63h-9.28c.87 9.62 1.01 16.19-1.57 24.63z"/><ellipse class="ac" cx="186.35" cy="413.62" rx="4.15" ry="3.95"/><ellipse class="ad" cx="169.35" cy="359.61" rx="3.11" ry="3.95"/><path fill="#bf8b84" d="M180.95 380.3l-42.66 1.33-.6 4.15 42.08 2.37 1.18-7.85z"/><path class="ad" d="M160.11 357.24l-26.86 3.35v3.76l26.86-1.78v-5.33z"/><path class="af" d="M179 198.24c-30 36.66-97.54-2.94-100.13-82.3 0 0-12.52-22.91 10-64 6.48-11.84 22.74-17.48 22.74-17.48s5.68-13.53 15.3-17.55 20.19-3 20.19-3S158.62-3.73 181.93.72c22.55 4.28 46.49 24.46 46.49 24.46S258 24.55 279 89.86c17.27 53.83-100 108.38-100 108.38z"/><path class="ag" d="M140.16 98.9c-13.39-29.46-13.48-60.8-2.68-84.65a41 41 0 00-10.62 2.69c-9.62 4-15.3 17.55-15.3 17.55S95.31 40.13 88.83 52c-22.47 41.07-10 64-10 64C81.46 195.3 149 234.9 179 198.24c0 0 38.5-17.92 68.12-43.35-37.98 15.84-85.52-8.82-106.96-55.99z"/><path class="ah" d="M142.47 219.36l8.33-12.29 9.15 4.5-5.19 13.66-12.29-5.87z"/><path class="ai" d="M153.42 229.38c4.53 0 7.7 5.55 8 10.44 2.39 39.08 43.32 41.88 60.06 41.54l2.34 5.6s-30.38 4.32-51.6-7.4c-24.68-13.63-26.62-48.18-26.62-48.18z"/><path class="aj" d="M175.36 277c-20.76-11.37-25.56-37.3-26.58-45.58l-3.38.85s2 34.56 26.84 48.19c21.41 11.72 52 7.4 52 7.4l-1.27-3c-9.19.69-31.13 1.14-47.61-7.86z"/><path class="ak" d="M218.8 344.76l-6.45 89.55h-3.54L203.47 341a8.33 8.33 0 014.79-7.6c3-1.43 6.18-.79 7.71 1.56a15.72 15.72 0 012.83 9.8z"/><path class="al" d="M165.6 318l-45 16.37L130 352l82.81.32s7.58-13.27 2.47-18.2C211.19 330.19 165.6 318 165.6 318z"/><path class="ak" d="M156.63 341.68s0-15.13 16.86-21.49l-4.29-1.45-27.86 8.74 15.3 14.76z"/><path class="ak" d="M186.73 336.21c-18.73-2.69-36.61-4.81-38.73-11.77l-27.4 10L130 352l84 1.49s3-8.46 3.07-14.24c-7.26 3.05-22.93 7.75-30.34-3.04z"/><path class="ai" d="M161.55 244.56c1.63-13.68-16-35.3-31.51-15.84-14.24 17.87-26.69 81.44-9.79 111.35 22.47 2.65 29-19.5 53.23-19.88-12.08-11.96-16.3-38.75-11.93-75.63z"/><path class="aj" d="M139.28 297.45c-10.67-32.5-4.18-75.08-9.24-68.72-14.24 17.87-26.69 81.44-9.79 111.35 14.56 1.72 22.43-7 32.76-13.42a127.91 127.91 0 01-13.73-29.21z"/><path class="an" d="M161.47 292.41a132.81 132.81 0 01-1.59-21.47c-8.12-4.42-26.59-11.73-45-.25a173.2 173.2 0 00-2.76 28.41c13.69-4.1 33.99-8.18 49.35-6.69z" opacity=".3"/><path class="ai" d="M137.82 227.56a8.78 8.78 0 017.09 9.92c-4.87 38.25 34.81 48.74 51.72 51l1.31 5.79s-31.38-.51-50.56-15.16c-15.09-11.52-17.92-30.73-18.17-41.94a9.42 9.42 0 018.6-9.6z"/><path class="aj" d="M152.41 277.56c-15.21-11.53-18.07-30.73-18.32-41.94-.07-2.79 1.58-7.61 3.5-9.39-4.79.62-9.66 6.83-9.55 11.66.25 11.21 3.93 30.59 19.14 42.12 19.34 14.65 51 15.16 51 15.16l-.65-2.82c-10.09-.91-30.92-4.03-45.12-14.79z"/><path class="ao" d="M207.86 434.55h16.69s-9.57-6.47-12.11-6.28-4.58 6.28-4.58 6.28z"/><path class="an" d="M224.92 287.87l-2.37-7.37-7.65-.82 2.55 9.75 7.47-1.56z"/><circle class="aj" cx="219.81" cy="285.14" r="1.32"/><path class="al" d="M199.3 346.11l2.66 88.2h-3.56l-14.85-91.87a7.28 7.28 0 014-7.49 6.27 6.27 0 017.88 1.54 16.74 16.74 0 013.87 9.62z"/><path class="ak" d="M198.53 367.27c-4.13.7-9.07-8.13-11-19.73a52 52 0 01-.7-12.11c-2.33 1.56-6.18 4.86-5.76 7.54l17.33 91.33h3.6l-2-67.7a3.16 3.16 0 01-1.47.67z"/><path class="an" d="M149.57 233.7l4.37-9.42-10.65-7.93-4.78 3.69 11.06 13.66z"/><path class="an" d="M155.85 231.51l-3.27-6.69 2.73-1.64 1.2 4.47-.66 3.86z"/><path d="M163.06 249.71a46.27 46.27 0 01-1.42-7.5 19.19 19.19 0 00-.21-2.21v-.18a14.29 14.29 0 00-2-6.45 26.69 26.69 0 00-3-5l.13-.76-1.11-4.11 4.55-12-9.15-4.51-6.7 9.89-.81-.6-4.83 3.72 1.2 1.48c-3.19.94-6.47 3.19-9.66 7.2-.12.15-.24.33-.36.49 20.56-11.5 5.45 24.01 33.37 20.54z" style="mix-blend-mode:multiply" fill="#bc5642" opacity=".5"/><path class="ah" d="M174.84 226.32c38.79 12.47 64.31 4.49 88.68-61.46 24.77-67-8.93-92.87-49-102s-80.81 2.81-96.33 66.67 31.94 88.85 56.65 96.79z"/><path class="ag" d="M146.48 200.87c20.57-35.54 16.14-51.17 16.24-61.61.56-57.18 72.12-84.76 43.26-93.74-74.12-23.05-153.59 118.71-83.71 149.7a68 68 0 0024.21 5.65z"/><path class="ah" d="M155.83 190.52c-13.4-11.12-32.14-16.21-29.93-1.4s20.35 28.17 26.94 21.92 12.87-12.32 2.99-20.52z"/><path class="aq" d="M151.91 193.64c-8.52-7.07-20.43-10.31-19-.9s12.93 17.91 17.12 13.94 8.16-7.83 1.88-13.04z"/><path class="ah" d="M154.48 200.18c-5-4.11-11.9-6-11.09-.5s7.54 10.43 10 8.12 4.75-4.58 1.09-7.62z"/><path class="af" d="M213.31 36.79c-6.41-14.56-30.24-15.58-53.22-2.28s-36.41 35.88-30 50.43 30.24 15.58 53.22 2.29 36.41-35.88 30-50.44z"/><path fill="#745e84" d="M245.49 253.7l10.2 19.13-19.54 18.36-15.31-11.04 24.65-26.45z"/><path fill="#d1bfa3" d="M245.31 257.37l6.92 14.73-19.54 18.36-15.31-11.03 22.83-25.52 5.1 3.46z"/><path fill="#d8d5ca" d="M248.23 270.59l-11.48-17.04-14.93 21.3 26.41-4.26z"/><path fill="#987da8" d="M220.04 263.32l35.22 9.56-50.22 22.24-1.07-1.51 16.07-30.29z"/><path fill="#826993" d="M221.54 264.91l33.72 7.97-24.85 25.02-25.88-2.84 17.01-30.15z"/><path fill="#654d77" d="M218.54 276.45l3.42-6.83 27.45 6.42-8.6 5.73-22.27-5.32z"/><path class="ao" d="M196.94 434.55h14.5s-8.31-6.47-10.52-6.28-3.98 6.28-3.98 6.28z"/><path class="aq" d="M233 165.37c7-14 13.09-14.71 18.91-11.17s9.17 10 2 24.11-13.58 13.38-19.33 9.79-8.58-8.75-1.58-22.73z"/><path class="ax" d="M232.54 167.13c6.4-12.83 12.38-13.11 18.19-9.55s9.25 9.62 2.76 22.49-12.14 12.13-19 10.5-8.32-10.66-1.95-23.44z"/><path class="aq" d="M210.06 196.54a5.45 5.45 0 007.3-2.71 6.65 6.65 0 01-.11 2.34 5.51 5.51 0 01-7.78 3.66 7.81 7.81 0 01-4.6-8.78 5.05 5.05 0 01.47-.94 7.92 7.92 0 004.72 6.43z"/><path class="ay" d="M237.75 177.33c2.72-3 6.69-3.51 8.88-1.2s1.71 6.61-1 9.59-6.7 3.49-8.86 1.18-1.77-6.61.98-9.57z"/><path class="az" d="M240.22 180c1-1.1 2.48-1.29 3.29-.44a2.7 2.7 0 01-.38 3.55c-1 1.1-2.48 1.3-3.28.44a2.7 2.7 0 01.37-3.55z"/><path class="aq" d="M186.33 146.45c6.57-15.37 13.12-15.82 19.44-11.61 6.13 4.12 9.66 11.07 2.95 25.42-6.45 13.78-12.93 13.27-19 9.82-6.23-3.55-9.72-8.86-3.39-23.63z"/><path class="ax" d="M186 148.35c6-13.95 12.41-14 18.7-9.84 6.12 4 9.73 10.49 3.64 23.51-5.88 12.57-11.54 12-18.58 10.49s-9.54-10.7-3.76-24.16z"/><path class="ay" d="M192.55 160c2.06-3.4 6-4.54 8.77-2.55s3.22 6.23 1.18 9.52-5.86 4.4-8.58 2.55-3.41-6.11-1.37-9.52z"/><path class="az" d="M195.74 162.28a2.29 2.29 0 013.23-.94 2.65 2.65 0 01.45 3.53 2.28 2.28 0 01-3.2.94 2.63 2.63 0 01-.48-3.53z"/><path class="af" d="M249 139.59c11.21-.48 19.62 11.71 20.68 16l5.69-4c-2.17-7.22-12.63-19-24.63-18.3zm-54.48-21.72c12.37-3 23.42 8 25 11.8l4.8-4.92c-3-6.86-16.31-18.26-30.08-14.86z"/><path class="aq" d="M183.55 196.74c7.16 19.39 21.75 18.84 29.11 16.5l1 .56c-5.35 3-25.93 8.23-33.63-19.06z"/><path class="ah" d="M206.16 296.12c1.94.29 4.17.06 4.42-.69s-1.44-.46-2.74-.85-1.56-.43-1.43-.72 1.68 0 3.45.11c2.23.16 3.73-.06 4-.81s-1.31-.5-3.26-.84c-1.7-.3-2.5-.34-2.29-1.07.08-.35 1.26-.27 3.14-.47 2.15-.23 3.5-.83 3.49-1.43 0-.83-1-.12-3.46-.17-3.24 0-4.11.39-5.51-.77s4.83-2.33 3.88-3.47c-1.26-1.5-11.74 3.55-12.26 5.78-.8 3.28 2.41 4.46 8.57 5.4z"/><path class="an" d="M198.91 295.56l-.97-7.68-7.38-2.2.72 10.04 7.63-.16z"/><circle class="aj" cx="193.96" cy="291.97" r="1.32"/><path class="ba" d="M308.63 338.07c37.72 0 48-63.33 60.45-83l-6.71-3.21c-11.6 18.24-30 75.07-53.12 73.85-23.32-1.25-21-37.56 3.61-51.63l-9.41-16.47c-42.54 24.39-38.91 80.46 5.18 80.46z"/><path class="bb" d="M293.37 311.17c-6.24-11.61-.42-32.31 16.31-42.6l3.17 5.55c-14.85 8.46-21.54 24.97-19.48 37.05z"/><path class="bb" d="M306.56 331.85c35.38 0 46.58-55.73 58.14-78.83l4.37 2.09c-12.49 19.63-22.72 83-60.45 83-19.37 0-30.92-10.82-34.19-25 4.92 10.96 15.71 18.74 32.13 18.74z"/><path class="bc" d="M435.37 433.8s55.51-22.67 70.52-38.08c15-30.22 49-200.89 43.46-271.21 0 0-33.67-30.1-108.25-35.56-64.79-4.74-93.24 23.7-93.24 23.7s-12.64 198.52 17.39 283.06c30.02 22.73 70.12 38.09 70.12 38.09z"/><path d="M347.86 112.66s6.59-6.57 20.61-12.86c-26 48.65 3.3 213.94 30.34 295.17 18.16 14.61 25.35 29.9 40.21 37.31-2.31 1-3.65 1.53-3.65 1.53s-40.1-15.36-70.12-38.08c-30.03-84.55-17.39-283.07-17.39-283.07z" fill="#f9f1e8"/><path class="be" d="M461.82 383.7c14.67-11.55 59.45-263.7 46.06-281.18 28.23 10.17 41.46 22 41.46 22 5.53 70.32-28.44 241-43.46 271.21-15 15.41-70.52 38.08-70.52 38.08s-51.46-18.22-70.12-38.08c-1.78-2.37-2.44-7-3.35-10.49 7.49 4.76 90.65 5.76 99.93-1.54z"/><path class="bf" d="M511.34 103.82c11.72 22.11-30 274.17-43.94 285.16-8.54 6.72-86.86 3-104.84-1-.18-.73-.39-1.69-.66-2.76 7.48 4.8 90.64 5.79 99.93-1.53 14.67-11.55 59.45-263.7 46.06-281.18 1.03.39 2.86 1.07 3.45 1.31z"/><path d="M471.9 405.24c36.34-32.4 79.42-207.25 73.89-277.57 0 0-6-8.26-18.29-16.8 14.76 7.35 21.84 13.64 21.84 13.64 5.53 70.32-28.44 241-43.46 271.21a41.33 41.33 0 01-3.76 3.35c.07-.07-19.56 8.54-30.22 6.17z" fill="#f4e3d3"/><path class="bh" d="M423.25 433.19c3.88-.95 17.05-18.9 17.05-18.9l-8.39-11.16c-7.41-11-19.87-8.12-23.8 1.48-2.56 6.26 8.6 30.17 15.14 28.58z"/><path d="M408.26 404.29c4.08-9.33 16.33-12 23.65-1.16l8.39 11.16s-1.59 2.16-3.8 5a71.06 71.06 0 00-28.24-15z" fill="#af8461"/><path class="be" d="M418 432.33c-4.14-5.8-9.47-29.2-9.47-29.2l-43.26-7.41S410 433.59 418 432.33z"/><path class="bj" d="M414.09 432.76c0-15.44 8.64-25.08 19.3-25.08s19.29 9.65 19.29 25.08-8.64 25.09-19.29 25.09-19.3-9.66-19.3-25.09z"/><path d="M425.13 409.85a16.76 16.76 0 018.27-2.17c10.66 0 19.29 9.65 19.29 25.08s-8.64 25.09-19.29 25.09a17.13 17.13 0 01-12.75-5.75c11.35-.84 16.68-34.91 4.48-42.25z" fill="#443235"/><path d="M433.17 431.47c0-9.52 3.67-15.47 8.2-15.47s8.2 5.95 8.2 15.47-3.67 15.47-8.2 15.47-8.2-5.94-8.2-15.47z" fill="#d6c2b4"/><ellipse class="bj" cx="441.68" cy="431.41" rx="2.96" ry="4.64"/><path d="M473.14 244c-8.87 8.78-99.23 8.89-110.88-1.6-6.76-6.09-12.75-106-3.13-125.69 5.07-10.34 115.69-15.47 131.32 2 8.17 9.13-4.64 112.72-17.31 125.29z" fill="#7a646f"/><path d="M470.27 240.87c-8.52 8.42-95.21 8.54-106.39-1.52-6.5-5.84-12.31-101.79-3.06-120.7 4.86-9.94 111.19-14.85 126.19 2 7.84 8.75-4.57 108.2-16.74 120.22z" fill="#42323a"/><path d="M507.81 275.92c2.51-17.38 9.39-28.34 15.37-27.48s8.8 13.19 6.28 30.57-9.4 30.77-15.38 29.92-8.78-15.63-6.27-33.01z" fill="#d3bca9"/><path class="bh" d="M528.15 286.08c-3.11-6.12-7.87-10-13.2-10a12.08 12.08 0 00-7.52 2.82c.11-1 .23-2 .37-3 2.51-17.38 9.39-28.34 15.37-27.48s8.8 13.19 6.28 30.57c-.33 2.47-.78 4.83-1.3 7.09z"/><path d="M509.25 276c2-13.47 6.19-22.13 9.57-21.65s4.61 9.91 2.66 23.38-6.27 24-9.64 23.53-4.54-11.8-2.59-25.26z" fill="#3f3137"/><path class="be" d="M442.87 433.35c-4.39.72-11-30.22-11-30.22s51-.76 73.57-7c-8.34 9.96-45.53 34.41-62.57 37.22z"/><path d="M393.28 110.93c34-3 83.81-1.42 93.73 9.69 7.48 8.38-3.48 99.31-15.07 118-31.58-47.42-54.65-82.25-78.66-127.69zm42.34 135.82c-28.43 1.19-64.76-1.12-71.74-7.4-6-5.4-11.42-87.9-4.88-115.19 23.87 46.19 44.93 81.84 76.62 122.59z" fill="#3a2c32"/><path class="br" d="M435.05 194.67h16.3v28.44h-16.3z"/><path class="bs" d="M438.37 197.87h9.68v22.04h-9.68z"/><path class="br" d="M380.04 194.67h16.3v28.44h-16.3z"/><path class="bs" d="M383.36 197.87h9.68v22.04h-9.68z"/><path d="M360.82 118.66c4.86-9.94 111.19-14.85 126.19 2 .06.07.1.18.16.25-19-15.33-120.12-10.42-124.86-.73-8.94 18.29-3.8 108.64 2.42 119.83a7.37 7.37 0 01-.84-.61c-6.51-5.88-12.32-101.83-3.07-120.74z" fill="#2b1f25"/><path class="br" d="M436.59 196.54h13.24v24.7h-13.24zm-54.84 0h13.23v24.7h-13.23z"/><path class="bf" d="M364.83 349.93l27.26 7.51L452.93 389s9.88 4.35 17-17.38 14.22-58.47 14.22-58.47l-31.21-8.69-99.95 13z"/><path class="bc" d="M339.85 242.74c-1.58-5-9.36-1.36-16.11 2.75-6.43 3.9-13.93 10.51-13.42 18.52l3.12-.83c.22-3.55 11.87-8.25 15.33-9.62 5.39-2.16 12.66-5.83 11.08-10.82z"/><path class="bc" d="M298.39 260.83l8.38-11.43c8.79 4.95 12.69 10.95 15 21.51L311 275.1c-7.17-3.04-10.94-4.55-12.61-14.27z"/><path class="bc" d="M348.31 262.5c3.18 4.38-4.2 9.36-11.39 13.13-6.85 3.58-16.3-1-22.55-6.14l2.45-2.36c3 1.89 13.29 1.52 16.38-.83 4.8-3.69 11.93-8.18 15.11-3.8zm-22.06-31.73c-1.82-4.9-9.4-.89-16 3.54-6.23 4.22-7.41 14.68-6.51 22.65l3.08-1c0-3.55 5.47-12.32 8.85-13.86 5.33-2.41 12.41-6.42 10.58-11.33z"/><path class="bf" d="M434.17 237.53l4.35 22.91-56.7 2.17c20.94-23.1 52.35-25.08 52.35-25.08z"/><path class="j" d="M320 251.36s12.63-5.36 15-5.36 30.42 2.37 47.41 15.6c0 0 34.07-10.27 64-6.72 5.3.63 11.85 7.51 11.85 7.51l-72.49 34.77z"/><ellipse class="bu" cx="381.92" cy="266.89" rx="4.84" ry="3.09"/><path fill="#c46c51" d="M463.21 257.29l-.9-1.78-80.88 11.56-68.76-18.83-1.96 1.54 86.52 88.4 65.98-80.89z"/><path fill="#af5641" d="M471.5 326.43l-8.29-69.14-81.78 11.85-70.72-19.36 33.98 67.95 52.54 22.52 74.27-13.82z"/><path class="bu" d="M471.5 326.43l-8.29-69.14-81.78 11.85 15.8 71.11 74.27-13.82z"/><path d="M346.65 315.55l-33-63L382.53 273l75-9.78 7.94 59.52-69.77 11.68zm108.85-49.64l-72.92 9.51h-.25l-63.94-19 29.95 57.2L396 332l66.88-11.2z" fill="#fff4e3" opacity=".4"/><path class="ba" d="M571.85 308.05c-5.34-25.84-33.77-48.32-53.05-53.86-3.6 2.41-4.7 4.31-2.52 8.85 13.94 4 41.27 26.66 44.9 44.21 6.44 31.18-73.83 46.77-143.83 17.28l-6 14.48c85 35.83 171.12 20.46 160.5-30.96z"/><path class="bb" d="M517.86 255.54c13.94 4 41.28 26.66 44.9 44.21a16.15 16.15 0 01-1.23 10.35 17.42 17.42 0 00-.35-2.85c-3.63-17.55-31-40.21-44.9-44.21-1.93-4-1.29-6 1.37-8 .07.16.12.32.21.5zm-103.65 76.52c73 30.29 146.36 22.94 158.38-12.47-3.76 42-83 52.42-161.28 19.44z"/><path class="bs" d="M431.79 132.64h5.53v4.35h-5.53zm-11.06 0h5.53v4.35h-5.53zm-11.06 0h5.53v4.35h-5.53zm-11.06 0h5.53v4.35h-5.53z"/><path class="be" d="M381 314.15c-3.46 3.72 3.34 8.58 10.06 12.33 6.4 3.57 15.6 6.74 22.13 2.46L411 326.7c-3.11 1.52-12.69-6.09-15.52-8.36-4.43-3.54-11.03-7.93-14.48-4.19z"/><path class="be" d="M414.65 341l-12.13-2 11-23 8.7 7c.92 7.57-.13 11.9-7.57 18z"/><path class="be" d="M393.65 297.48c2.18-4.8 10-.94 16.6 3.34 6.32 4.08 7 14.28 5.64 22.06l-3.19-.94c.14-3.46-5.1-12-8.57-13.47-5.43-2.31-12.66-6.19-10.48-10.99zm-16.28 33.94c-3.27 3.89 3.77 8.4 10.67 11.82 6.57 3.24 16-.78 22.32-5.38l-2.31-2.13c-3 1.68-13.06 1.29-16-.84-4.59-3.32-11.39-7.38-14.68-3.47z"/></g></svg>