<svg xmlns="http://www.w3.org/2000/svg" width="827.74" height="820.41"><defs><linearGradient id="a" x1="569.06" y1="506.27" x2="613.26" y2="506.27" gradientTransform="rotate(1.69 589.64 504.667)" gradientUnits="userSpaceOnUse"><stop offset="0" stop-color="#b3bae0" stop-opacity=".1"/><stop offset=".63" stop-color="#b3bae0" stop-opacity=".24"/><stop offset="1" stop-color="#b3bae0" stop-opacity=".3"/></linearGradient><clipPath id="b"><path d="M512.76 464.89c-13.56 0-23-6.1-23-11.58s-6.13-85.54 34.87-82.78c13.53.91 11.16 77.3 11.16 82.78s-9.46 11.58-23.03 11.58z" fill="none"/></clipPath><style>.i{fill:none}.c{fill:#191d23;opacity:.21}.e{fill:#027396}.bn,.h,.p{fill:#fff}.i{stroke:#c4c4c4;stroke-width:.78px;stroke-miterlimit:10}.l{fill:#ffdc79}.n{fill:#fe5c99}.o{fill:#c9d4fe;opacity:.16}.p{opacity:.1}.r{fill:#779a0a}.s{fill:#c3d600}.w{fill:#ffe6a6}.z{fill:#ffa15a}.aa{fill:#e0f9fe}.ab{fill:#ff9136}.af{fill:#f2b1a0}.ag{fill:#a37676}.ah{fill:#f2f2f2}.ai{fill:#ffc5b3}.aj{fill:#353535}.ak{fill:#95b709}.as{fill:#004559}.at{fill:#46bce0}.au{fill:#007394}.av{fill:#bfcade}.ay{fill:#d8e2ed}.ba{fill:#1796ce;opacity:.3;mix-blend-mode:multiply}.bb{fill:#b3e8f4}.bc{fill:#77bdc9}.bd{fill:#ededed}.be{fill:#30c6c6}.bf{fill:#4de4e8}.bh{fill:#ed8406}.bi{fill:#fbc006}.bn{mix-blend-mode:screen;opacity:.5}.bq{fill:#d5ebff}</style></defs><g style="isolation:isolate"><path class="c" d="M827.74 587.29L448.23 447.62 36.21 592C8.36 605 10 645.11 38.85 655.77l373.81 151.94z"/><path fill="#f45a16" d="M21.76 548.77l386.71 136.56 371.24-187.16L461.4 375.35 21.76 548.77z"/><path class="e" d="M409.23 780.16L23.51 632.69c-19.35-7.4-25-30.42-23.2-49 .92-9.51 3-18.91 8.63-26.83 5.16-7.29 12.63-13.06 21.36-15.31a32.94 32.94 0 0121.55 1.91L393 694.9z"/><path class="e" d="M21.76 629.7l386.71 152.72 371.24-194.15v-22.12L460.17 429.72 21.76 629.7z"/><path fill="#e3e3e3" d="M407.03 771.06l372.68-193.54v-83.27L407.03 681.47v89.59z"/><path class="e" d="M21.76 544.9L407 681.56l372.71-187.25.13-9.63L461.4 371.49 21.76 544.9z"/><path d="M3 568.65s2-6 11.89-15.67c19.66-19.31 44.42-11.59 44.42-11.59l347.73 130L779.7 484.58 460 361.39 37.21 526.83s-13.73 8.27-21.77 18.07C4.2 558.6 3 568.65 3 568.65z" fill="#0081b4"/><path class="h" d="M407 771.06L38.3 624.29a38.22 38.22 0 01-24.09-35.51A38.22 38.22 0 0165.91 553L407 681.47z"/><path class="i" d="M55.99 559.65l337 131.04M37.38 568.43l355.61 137.71M30.36 581.07l362.63 140.52M27.55 594.06l365.44 142.98M32.47 611.97l360.52 140.52"/><path d="M175.51 408.81v.61-.61zm-.05 1.19v-.61.61z" opacity=".55" fill="#191d23"/><path class="i" d="M414.85 690.97L764.96 519.8M415.91 704.32l350.1-171.18M416.96 717.66l350.1-171.18M418.01 731l350.11-171.17M419.07 744.35l350.1-171.18"/><path d="M337.22 150.58v76.93a4.94 4.94 0 002.72 4.63c.08 0 .15.08.23.1l25.15 10.19 51.94 21a2.59 2.59 0 002.72-.61l10.18-8.43a3.79 3.79 0 001.45-2.87v-74.34a6.45 6.45 0 00-4-6.28l-76.32-31a3.29 3.29 0 00-3.22.64l-9.68 7.94a2.07 2.07 0 00-.34.26 2.45 2.45 0 00-.83 1.84z" fill="#ffd05a"/><path class="l" d="M337.22 150.58v76.93a4.94 4.94 0 002.72 4.63c.08 0 .15.08.23.1l25.15 10.19 51.94 21a2.59 2.59 0 002.72-.61 3.21 3.21 0 001.15-2.35v-75a6.19 6.19 0 00-3.71-5.91l-77.27-31.29a1.88 1.88 0 00-1.72.21 2.07 2.07 0 00-.34.26 2.45 2.45 0 00-.87 1.84z"/><path class="h" d="M375.36 184.83l-5.15 8.78a1.42 1.42 0 01-1.4.74l-11.16-2c-1.07-.19-2 1.22-1.4 2l8.89 11.52a1 1 0 01.18.83L363 219.41a.94.94 0 001.14 1.15l11.93-2.45a1 1 0 01.84.19l10.9 9.22c.79.67 2.19-.31 2-1.41l-1.92-11.78a1.47 1.47 0 01.68-1.4l8.44-5.52c.84-.55.94-1.72.18-2.08l-13.41-6.25a.86.86 0 01-.43-.45l-6-14c-.27-.82-1.46-.69-1.99.2z"/><path d="M617.26 235.53v78a5 5 0 002.76 4.7c.08 0 .16.08.23.11l25.51 10.34L698.44 350a2.62 2.62 0 002.76-.62l10.33-8.55A3.84 3.84 0 00713 338v-75.48a6.54 6.54 0 00-4-6.37l-77.41-31.4a3.34 3.34 0 00-3.26.65l-9.82 8.05a2.11 2.11 0 00-.35.27 2.49 2.49 0 00-.9 1.81z" fill="#e83d83"/><path class="n" d="M617.26 235.53v78a5 5 0 002.76 4.7c.08 0 .16.08.23.11l25.51 10.34L698.44 350a2.62 2.62 0 002.76-.62 3.25 3.25 0 001.16-2.38v-76a6.28 6.28 0 00-3.77-6l-78.38-31.74a1.9 1.9 0 00-1.75.21 2.11 2.11 0 00-.35.27 2.49 2.49 0 00-.85 1.79z"/><path class="h" d="M647.84 273.31c0 6.17 5 13.13 11.18 15.53s11.18-.65 11.18-6.82-5-13.13-11.18-15.53-11.18.65-11.18 6.82zM633.71 307l50.59 19.71c-.06-13.94-11.32-29.59-25.29-35-7-2.71-13.3-2.35-17.88.45s-7.42 7.84-7.42 14.84z"/><path class="o" d="M406.36 1.12v36.27a2.33 2.33 0 001.28 2.18h.11l11.86 4.8 24.49 9.91a1.22 1.22 0 001.28-.29 1.51 1.51 0 00.54-1.11V17.6a2.92 2.92 0 00-1.75-2.79L407.73.06a.89.89 0 00-.81.1 1 1 0 00-.16.12 1.16 1.16 0 00-.4.84z"/><path class="o" d="M436.33 36.37v36.27a2.33 2.33 0 001.28 2.18h.11l11.86 4.8 24.49 9.91a1.22 1.22 0 001.28-.29 1.51 1.51 0 00.54-1.11V52.84a2.92 2.92 0 00-1.75-2.79L437.7 35.3a.89.89 0 00-.81.1 1 1 0 00-.16.12 1.16 1.16 0 00-.4.85z"/><path class="p" d="M301 54.44v54.26a3.48 3.48 0 001.92 3.27l.16.07 17.74 7.19 36.63 14.83a1.82 1.82 0 001.92-.43 2.26 2.26 0 00.81-1.66V79.08a4.37 4.37 0 00-2.62-4.17l-54.5-22.07a1.32 1.32 0 00-1.21.15 1.46 1.46 0 00-.24.19 1.73 1.73 0 00-.61 1.26zm-110.12 65.1v61.83a4 4 0 002.18 3.72c.06 0 .12.07.18.08l20.21 8.19 41.74 16.9a2.08 2.08 0 002.18-.49 2.58 2.58 0 00.92-1.89v-60.26a5 5 0 00-3-4.75l-62.11-25.15a1.51 1.51 0 00-1.38.17 1.68 1.68 0 00-.28.21 2 2 0 00-.64 1.44z"/><path d="M629 409.53v48.08a3.09 3.09 0 001.7 2.89l.14.07 15.72 6.37L679 480.08a1.62 1.62 0 001.7-.38 2 2 0 00.72-1.47v-46.86a3.87 3.87 0 00-2.32-3.7l-48.3-19.56a1.17 1.17 0 00-1.08.13 1.3 1.3 0 00-.22.17 1.54 1.54 0 00-.5 1.12zM149 134.64v61.83a4 4 0 002.18 3.72c.06 0 .12.07.18.08l20.21 8.19 41.74 16.9a2.08 2.08 0 002.18-.49 2.58 2.58 0 00.92-1.89v-60.26a5 5 0 00-3-4.75l-62.11-25.15a1.51 1.51 0 00-1.3.18 1.65 1.65 0 00-.28.21 2 2 0 00-.72 1.43z" opacity=".2" fill="#fff"/><path class="p" d="M709.26 363.54v60.2a3.86 3.86 0 002.13 3.62l.18.08 19.68 8 40.64 16.45a2 2 0 002.13-.48 2.51 2.51 0 00.9-1.84v-58.69a4.84 4.84 0 00-2.91-4.63l-60.47-24.49a1.47 1.47 0 00-1.35.17 1.63 1.63 0 00-.27.21 1.92 1.92 0 00-.66 1.4zM47.79 384.29v51.85a3.33 3.33 0 001.83 3.12l.15.07 16.95 6.87 35 14.17a1.74 1.74 0 001.83-.41 2.16 2.16 0 00.77-1.58v-50.54a4.17 4.17 0 00-2.5-4l-52.07-21.07a1.27 1.27 0 00-1.16.14 1.37 1.37 0 00-.23.18 1.65 1.65 0 00-.57 1.2z"/><path class="r" d="M483.12 244.32v51.85a3.33 3.33 0 001.83 3.12l.15.07 16.95 6.87 35 14.17a1.74 1.74 0 001.83-.41l6.86-5.68a2.55 2.55 0 001-1.94v-50.12a4.35 4.35 0 00-2.68-4.23l-51.44-20.87a2.22 2.22 0 00-2.17.43l-6.53 5.35a1.4 1.4 0 00-.23.18 1.65 1.65 0 00-.57 1.21z"/><path class="s" d="M483.12 244.32v51.85a3.33 3.33 0 001.83 3.12l.15.07 16.95 6.87 35 14.17a1.74 1.74 0 001.83-.41 2.16 2.16 0 00.77-1.58v-50.54a4.17 4.17 0 00-2.5-4l-52.09-21.09a1.26 1.26 0 00-1.16.14 1.4 1.4 0 00-.23.18 1.65 1.65 0 00-.55 1.22z"/><path stroke-linecap="round" stroke="#fff" stroke-width="2.56" stroke-miterlimit="10" fill="none" d="M493.83 277.25l8.01 14.02 26.92-16.92"/><path d="M92.44 264v51.85a3.33 3.33 0 001.83 3.12l.16.07 16.95 6.87 35 14.17a1.74 1.74 0 001.83-.41l6.86-5.68a2.55 2.55 0 001-1.94V281.9a4.35 4.35 0 00-2.68-4.23l-51.46-20.87a2.22 2.22 0 00-2.17.43l-6.53 5.35a1.39 1.39 0 00-.23.18 1.65 1.65 0 00-.56 1.24z" fill="#00e0c1"/><path d="M92.44 264v51.85a3.33 3.33 0 001.83 3.12l.16.07 16.95 6.87 35 14.17a1.74 1.74 0 001.83-.41 2.16 2.16 0 00.77-1.58v-50.57a4.17 4.17 0 00-2.5-4L94.4 262.45a1.27 1.27 0 00-1.16.14 1.39 1.39 0 00-.23.18 1.65 1.65 0 00-.57 1.23z" fill="#02f5d0"/><path class="h" d="M129.65 311.82c1.4 2.34 4 2.89 5.74 1.25s2.06-4.87.66-7.21-4-2.89-5.74-1.25-2.07 4.87-.66 7.21zM116 306.17c1.39 2.34 4 2.91 5.74 1.28s2.09-4.86.7-7.2-4-2.91-5.74-1.28-2.13 4.86-.7 7.2zm-13.72-5.64c1.38 2.35 3.95 2.93 5.73 1.3s2.11-4.85.72-7.2-3.95-2.93-5.73-1.3-2.11 4.86-.72 7.2z"/><path class="c" d="M672 671.12l22.33-6.44a3.74 3.74 0 014.17 5.64l-7.2 11.06a16.11 16.11 0 01-5.85 5.39l-168.24 90.78a20.91 20.91 0 01-22-1.32 6.17 6.17 0 01.63-10.48l173-93.33a16.15 16.15 0 013.16-1.3z"/><path class="l" d="M675.56 655.6l1.78 3.85 6.76 14.63 20.26-20.93a.68.68 0 00-.14-1.08.54.54 0 00-.52-.2z"/><path class="w" d="M675.56 655.6l1.78 3.85h6.2l20.67-7.42a.54.54 0 00-.52-.2z"/><path d="M498.38 750.53l2.63 5.36 6.75 13.77 173.74-93.73a6.33 6.33 0 001.32-.72 7.61 7.61 0 002.68-3.21 11.81 11.81 0 00-.06-9.2 13.1 13.1 0 00-1.89-3.25 9.62 9.62 0 00-7.74-3.93 6.63 6.63 0 00-2.32.5 2.25 2.25 0 00-.39.17l-.49.27a.92.92 0 00-.18.1l-.13.09z" fill="#011a5f"/><path d="M498.38 750.53l2.63 5.36 7.54-1.78 175-94.56a9.62 9.62 0 00-7.74-3.93 6.63 6.63 0 00-2.32.5 2.25 2.25 0 00-.39.17l-.49.27a.92.92 0 00-.18.1l-.13.09z" fill="#0c3184"/><path class="z" d="M494.46 763.68c2.23 5.48 7.58 8.48 12 6.7a6.4 6.4 0 001.33-.72 7.68 7.68 0 002.65-3.23 11.79 11.79 0 00-.06-9.2c-1.85-4.54-5.84-7.39-9.65-7.2a6.73 6.73 0 00-2.32.5 3.44 3.44 0 00-.39.17l-.5.27a.77.77 0 00-.18.1c-3.61 2.24-4.91 7.6-2.88 12.61z"/><path class="aa" d="M527.93 734.6l-14.75 8a.31.31 0 01.17-.07 6.6 6.6 0 012.16-.44 9.72 9.72 0 017.81 4 11.29 11.29 0 011.86 3.16 11.89 11.89 0 010 9.21 7.68 7.68 0 01-1.8 2.56 3.09 3.09 0 01-.69.57l14.1-7.53s.6-.33.89-.52a7.73 7.73 0 002.62-3.21 11.73 11.73 0 00-.06-9.21 11.52 11.52 0 00-1.86-3.2 9.65 9.65 0 00-7.77-4 6.66 6.66 0 00-2.33.52c-.1.06-.23.13-.35.16z"/><path class="h" d="M512.8 742.77a1.45 1.45 0 01.34-.19c-.08 0-.13.07-.17.07z"/><path class="ab" d="M498.22 750.65a5.64 5.64 0 012.33-.48 9.43 9.43 0 017.74 4 13 13 0 011.9 3.24 11.62 11.62 0 01.06 9.17 8 8 0 01-2.66 3.25l14.23-7.65a4.93 4.93 0 00.89-.52 3.09 3.09 0 00.69-.57 7.15 7.15 0 002-2.64 11.91 11.91 0 00-.06-9.21 13.74 13.74 0 00-1.84-3.24 9.78 9.78 0 00-7.81-4 6.2 6.2 0 00-2.33.52.31.31 0 00-.17.07c-.08 0-.13.07-.17.07l-.17.11z"/><path class="c" d="M779.19 679.36l22.93-3.74a3.74 3.74 0 013.47 6.09l-8.46 10.13a16.11 16.11 0 01-6.45 4.66l-177.86 70.16a20.91 20.91 0 01-21.68-3.92 6.17 6.17 0 011.86-10.33l182.86-72.13a16.12 16.12 0 013.33-.92z"/><path class="l" d="M784.2 669.93l1.34 4 5.07 15.3 22.49-18.52a.68.68 0 000-1.09.54.54 0 00-.5-.25z"/><path class="w" d="M784.2 669.93l1.34 4 6.16.75 21.38-5a.54.54 0 00-.5-.25z"/><path class="r" d="M597.44 744.27l2 5.62 5.16 14.44 183.2-73.54a6.36 6.36 0 001.4-.57 7.62 7.62 0 003-2.91 11.81 11.81 0 001-9.15 13.09 13.09 0 00-1.51-3.44 9.62 9.62 0 00-7.25-4.78 6.64 6.64 0 00-2.37.23 2.22 2.22 0 00-.41.12l-.52.21a1 1 0 00-.19.08l-.14.08z"/><path d="M597.44 744.27l2 5.62 7.7-.92 184.55-74.22a9.62 9.62 0 00-7.25-4.78 6.64 6.64 0 00-2.37.23 2.22 2.22 0 00-.41.12l-.52.21a1 1 0 00-.19.08l-.14.08z" opacity=".44" fill="#c3d600"/><path class="z" d="M592.07 756.89c1.6 5.7 6.57 9.28 11.13 8a6.38 6.38 0 001.4-.57 7.68 7.68 0 003-2.91 11.8 11.8 0 001-9.15c-1.33-4.72-5-8-8.77-8.24a6.75 6.75 0 00-2.37.23 3.5 3.5 0 00-.4.13l-.52.22a.81.81 0 00-.19.08c-3.84 1.83-5.74 7.01-4.28 12.21z"/><path class="aa" d="M628.6 731.77L613 738a.31.31 0 01.18-.05 6.62 6.62 0 012.2-.2 9.72 9.72 0 017.31 4.9 11.3 11.3 0 011.5 3.35 11.89 11.89 0 01-1 9.15 7.68 7.68 0 01-2.08 2.34 3.08 3.08 0 01-.75.49l14.86-5.89s.63-.26.95-.42a7.74 7.74 0 003-2.9 11.73 11.73 0 001-9.16 11.52 11.52 0 00-1.49-3.39 9.65 9.65 0 00-7.27-4.86 6.67 6.67 0 00-2.38.25c-.17.09-.31.15-.43.16z"/><path class="h" d="M612.64 738.19a1.45 1.45 0 01.36-.19c-.09 0-.14.06-.18.05z"/><path class="ab" d="M597.27 744.37a5.64 5.64 0 012.37-.21 9.42 9.42 0 017.24 4.81 13 13 0 011.52 3.43 11.62 11.62 0 01-1 9.12 8 8 0 01-3 2.93l15-6a5 5 0 00.95-.42 3.08 3.08 0 00.75-.49 7.15 7.15 0 002.25-2.4 11.91 11.91 0 001-9.16 13.77 13.77 0 00-1.45-3.38 9.78 9.78 0 00-7.31-4.86 6.19 6.19 0 00-2.38.25.31.31 0 00-.18.05c-.09 0-.14.06-.18.05l-.18.09z"/><g stroke="#dae3f2" fill="none"><path d="M398.62 316.07c1.5 3.37 0 6.1-3.38 6.1s-7.31-2.73-8.81-6.1 0-6.1 3.38-6.1 7.31 2.73 8.81 6.1zm272.61 80.42c1.5 3.37 0 6.1-3.38 6.1s-7.31-2.73-8.81-6.1 0-6.1 3.38-6.1 7.31 2.73 8.81 6.1zM568.84 230.93c1.5 3.37 0 6.1-3.38 6.1s-7.31-2.73-8.81-6.1 0-6.1 3.38-6.1 7.31 2.73 8.81 6.1zm-523.06 8.33c1.5 3.37 0 6.1-3.38 6.1s-7.31-2.73-8.81-6.1 0-6.1 3.38-6.1 7.31 2.73 8.81 6.1z" stroke-miterlimit="10"/><path d="M332 298.83v11.14m5.22-2.9l-10.45-6.01M456.1 165.99v11.14m5.23-2.91l-10.45-6.01m-337.93-11.77v11.14m5.23-2.91l-10.45-6.01m659.33 183.29v11.14m5.23-2.91l-10.45-6.01" stroke-linejoin="round" stroke-linecap="round"/></g><path class="af" d="M193 377.93s-2 44.71-5.27 55.56 2.1 28-40 55.64l13.81 17.22s50.26-22.42 59.39-63.14c4.23-18.86 13.07-66.09 13.07-66.09"/><path class="c" d="M199.59 782.86c-3.4 5.12-10.35 10.63-22.69 15.89s-21.47 17-30.83 20.36c-10.63 3.77-28.61-.72-40.65-13.13-4.35-4.49.54-6.55.45-10.76a18.87 18.87 0 012.3-9.2c2.82-5.17 11.07-8.13 21-11.34s14-6.09 21-11.77 9.4-13 11.85-16.3c1.26-1.66 11.11 2.29 14.22 8.44 1.53 3.11 1 4.19.37 5.16a3 3 0 00.08 3.29 3.49 3.49 0 002.21 1.61c13 2.64 11.21-8.14 11.21-8.14 9.25 5.82 16.27 15.67 9.48 25.89zm-34.29-54.75c-3.4 5.12-10.35 10.63-22.69 15.89s-21.47 17-30.83 20.36c-10.63 3.77-28.61-.72-40.65-13.13-4.35-4.49.54-6.55.45-10.76a18.87 18.87 0 012.3-9.2c2.82-5.17 11.07-8.13 21-11.34s14-6.09 21-11.77 9.4-13 11.85-16.3c1.26-1.66 11.11 2.29 14.22 8.44 1.53 3.11 1 4.19.37 5.16a3 3 0 00.08 3.29 3.49 3.49 0 002.21 1.61c13 2.64 11.21-8.14 11.21-8.14 9.24 5.78 16.27 15.67 9.48 25.89z"/><path class="af" d="M214.57 510.8c-4.13.74-71.58 29-81.41 48.22-3.75 7.32-4.33 39.63-7.42 64.45-2 15.78-1.75 50.18-8.89 65.15a38.17 38.17 0 01-3.94 6.31c8 14.08 27.68 11.39 41.19 2.66 1.55-4.91-.55-10.42-.21-14.72.94-2.2 27-65.38 20.91-89.61 11.24-.93 65.26-22.93 69.28-26S230.21 508 214.57 510.8z"/><path class="ag" d="M158.15 719.29a5.35 5.35 0 011.2 3.66c-.25 1.95-2.66 5-7.82 7.5s-9.12 3.42-14.44 7.75-15.28 13.69-21 18.29S102.42 763 98 763.23s-11.39-.56-20.51-4.76a21.44 21.44 0 01-11.63-13.81c-.91-3.63-.63-9.53-.63-9.53"/><path class="h" d="M157.47 722.78C153 726.89 150 727.3 138 733.57s-23.82 22.88-33.62 25.15S81.83 755 72.28 749a15.09 15.09 0 01-7.47-12.14 20.38 20.38 0 011.82-9.67c2.55-5.54 10.61-9.14 20.37-13.12s13.22-7.95 19.92-14.3 8.7-14.08 11-17.65c1.17-1.8 11.18 1.63 14.58 7.8 1.68 3.12 1.24 4.27.63 5.32a3.26 3.26 0 00.25 3.4 3.42 3.42 0 002.28 1.52c13.09 1.88 18.48-12.75 18.48-12.75 9.4 5.44 7.81 31.27 3.33 35.37z"/><path class="ah" d="M157.47 722.78C153 726.89 150 727.3 138 733.57s-23.82 22.88-33.62 25.15-20.62 0-31.41-7c-5.13-3.31-7.84-10.5-8.15-14.85 4.41 5.75 9 13.68 23.06 14.13 11.32.36 20.75 1.26 29.23-9.68s14-16.22 23.38-19.34 13.62-7.85 12.26-12.77-4.84-8.36-11.62-7.32-7.75-3.24-7.75-3.24a3.42 3.42 0 002.28 1.52c13.09 1.88 18.48-12.75 18.48-12.75 7.42 5.17 7.81 31.26 3.33 35.36z"/><path class="ai" d="M248.91 567.47c-4.13.74-71.58 29-81.41 48.22-3.75 7.32-4.33 39.63-7.42 64.45-2 15.78-1.75 50.18-8.89 65.15a38.17 38.17 0 01-3.94 6.31c8 14.08 27.68 11.39 41.19 2.66 1.55-4.91-.55-10.42-.21-14.72.94-2.2 27-65.38 20.91-89.61 11.24-.93 65.26-22.93 69.28-26s-13.88-59.26-29.51-56.46z"/><path class="aj" d="M260.71 457.6L182 512.94s28.75 10.21 36.72 28.14a96.62 96.62 0 018.28 38.41l76.43-23.65s3.15-83.24-42.72-98.24z"/><path class="aj" d="M363.28 473.18s23.46 63.56-17.39 110c-24.35 27.65-77.2 60.89-77.2 60.89s-16.15-11.79-32.44-36.54c-8.66-13.16-18-27.3-18-27.3l73.92-76.85z"/><path class="ak" d="M184.68 395.37a75.76 75.76 0 0026.54 11.17 147.77 147.77 0 0027.58 3.06s22.43-70.28 8.2-81.6-30.66-11.93-42.39 5.47c-11.51 17.09-19.93 61.9-19.93 61.9z"/><path class="s" d="M226.93 483.37c21.8 17.39 54.06 39.83 79.06 33.36 23-6 44.42-25.44 57.28-43.54-7.54-32.1-19.35-111.32-43.38-141.65C295 300.06 275 296.6 275 296.6s-19-19.17-50.87 21.64-16.81 81.55-5.74 113c13.18 37.56 4.1 31.68 8.54 52.13z"/><path d="M218.21 580.19c7.58-7.48 15.47-14.61 23.43-21.65s16.07-13.92 24.46-20.48c-7.57 7.48-15.46 14.61-23.43 21.65s-16.08 13.92-24.46 20.48z" fill="#4f4f4f"/><path class="ag" d="M192.44 774a5.35 5.35 0 011.2 3.66c-.25 1.95-2.66 5-7.82 7.5s-9.12 3.42-14.44 7.75-15.28 13.69-21 18.29-13.7 6.47-18.14 6.74-11.39-.56-20.51-4.76a21.44 21.44 0 01-11.63-13.81c-.91-3.63-.63-9.53-.63-9.53"/><path class="h" d="M191.77 777.54c-4.48 4.1-7.46 4.52-19.48 10.78s-23.82 22.88-33.62 25.15-22.55-3.74-32.09-9.69a15.09 15.09 0 01-7.47-12.14 20.38 20.38 0 011.82-9.67c2.55-5.54 10.61-9.14 20.37-13.12s13.22-7.95 19.92-14.3 8.7-14.08 11-17.65c1.17-1.8 11.18 1.63 14.58 7.8 1.68 3.12 1.24 4.27.63 5.32a3.26 3.26 0 00.25 3.4 3.42 3.42 0 002.28 1.52c13.09 1.88 18.48-12.75 18.48-12.75 9.4 5.41 7.8 31.24 3.33 35.35z"/><path class="ah" d="M191.77 777.54c-4.48 4.1-7.46 4.52-19.48 10.78s-23.82 22.88-33.62 25.15-20.62 0-31.41-7c-5.13-3.31-7.84-10.5-8.15-14.85 4.41 5.75 9 13.68 23.06 14.13 11.32.36 20.75 1.26 29.23-9.68s14-16.22 23.38-19.34S188.4 768.9 187 764s-4.84-8.36-11.62-7.32-7.75-3.24-7.75-3.24a3.42 3.42 0 002.28 1.52c13.09 1.88 18.48-12.75 18.48-12.75 7.46 5.14 7.85 31.22 3.38 35.33z"/><path d="M291.22 277.41l-1 29.14s-30.55 20.5-46.28 16.84c-6.77-1.57-10-10.41-8.2-22.67l14.51-2.42z" fill="#f2ba88"/><path d="M206.82 231.5s-8.92 16.73-3.22 48.9c3.17 17.89 13.27 29.8 22.13 34.06s16.94 5 32.38-4.22 24.26-24.75 24.26-24.75 2.11 1.49 7.72-4.42c8.78-9.25 10.56-14 11-26.91s-2.24-29.34-11.73-46.6-40.62-12.92-54.9-6.2-24.46 15.77-27.64 30.14z" fill="#ffd1a4"/><path d="M203.55 237.3c14.51 27.84 48 10.38 48 10.38 2.44 12 10.7 13.34 14.62 15.65s3.86 10 3.86 10l3.63.12a82.21 82.21 0 013.06-13.4c2-5.69 12.94-9.78 18-1.15 4.61 7.73-1.27 16-4.7 22.15-1.38 9.92.5 14.13.5 14.13s6.06-5.6 10.4-17.34 7.1-29.15 1.17-56a28.84 28.84 0 00-2.9-7.78c-11.13-20.36-44.69-25.4-58.06-21.34-11.53 3.5-33.64 8.87-39.55 26.94-1.65 5.34-1.34 11.25 1.97 17.64z" fill="#713e23"/><path d="M203.55 237.3c14.51 27.84 48 10.38 48 10.38 2.44 12 10.7 13.34 14.62 15.65s3.86 10 3.86 10l3.63.12a82.21 82.21 0 013.06-13.4c2-5.69 12.94-9.78 18-1.15 4.61 7.73-1.27 16-4.7 22.15-1.38 9.92.5 14.13.5 14.13s6.06-5.6 10.4-17.34 7.1-29.15 1.17-56a28.84 28.84 0 00-2.9-7.78c-6.67 5.32-24.79 12.46-44.56 20-24.55 9.33-37.65 7.31-43.54 1.92s-8.9-9.7-9.46-16.25l-.05-.05c-1.65 5.32-1.34 11.23 1.97 17.62z" fill="#442312" opacity=".34"/><path d="M147.74 544.68s1.63 4.84 9.36 5.83l50.25 30.56 101.33-39.38z" fill="#444" opacity=".15"/><path fill="#1b91a8" d="M153.96 535.92l-7.85 4.3 4.12 3.49 9.01 3.14 8.33-4.95-13.61-5.98z"/><path class="as" d="M251.11 502l-155.63 9.69 52.4 30.59 103.23-37.27V502z"/><path class="at" d="M197.25 471.21L94.06 508.18l52.45 30.32 103.18-36.99-52.44-30.3z"/><path class="au" d="M94.06 508.18v3l50 28.87 6 3.44-3.92-2.26c-1.19-1.33-.91-2.47-1.88-4.06z"/><path class="as" d="M312.9 537.45l-153.66 10.48 50.48 29.52 103.18-36.99v-3.01z"/><path class="at" d="M263.45 508.94l-103.58 36.73 49.85 28.77 103.18-36.99-49.45-28.51z"/><path class="au" d="M209.72 577.45v-3.01l-49.85-28.77-1.85 1.9 51.7 29.88z"/><path class="av" d="M158.43 538.37l96.93-33.83-1.57-5.42-53.95-34.82-96.68 36.08 55.27 37.99z"/><path fill="#74869b" d="M306.95 525.26l-147.99 16.16 51.3 29.68 96.69-33.24v-12.6z"/><path class="av" d="M160.61 534.73l92.7-30.73c1-.58 2-1.28 2.93-1.93 1.18-.79 5.12-1.3 9.58-.94 18.71 1.51 41.13 24.17 41.13 24.17l-96.68 33.24z"/><path d="M160.61 533.15l92.7-30.76c1-.58 2-1.28 2.93-1.93 1.18-.79 5.12-1.3 9.58-.94 18.71 1.51 41.13 24.17 41.13 24.17l-96.69 33.24z" fill="#f5faff"/><path class="ay" d="M157.1 540.29v-2.12a17.16 17.16 0 00-4.75-11.79c-16.62-17.55-49.2-26-49.2-26v8.75z"/><path d="M199.84 464.3l-96.68 36.08s48.58 4.59 53.95 32l96.69-33.23c-5.38-27.41-53.96-34.85-53.96-34.85z" fill="#ebf6fa"/><path class="av" d="M157.1 540.29l1.87 1.08v.05l.32.13 51 29.55v-14.17s-20.61-20.82-38.8-23.88c-.78-.13-1.56-.23-2.33-.29a32.66 32.66 0 00-5.94 0 4 4 0 00-.78 0 5.51 5.51 0 00-3.85 1.76 5.39 5.39 0 00-1.44 3.15 2.88 2.88 0 000 .47z"/><path class="ay" d="M157.1 540.29l1.87 1.08v.05l.32.13 51 29.55v-12.6s-23.93-21.2-38.8-24.64c-.8-.19-10.86-2.28-12.9.13a7 7 0 00-1.44 3.69 2.88 2.88 0 000 .47z"/><path class="au" d="M144.23 537.18a29.21 29.21 0 001.14 3.75c3.35 6.57 13.44 7 13.44 7l1.59 1 .26-1-.79-2.2s-6.83-.27-11.27-4.19c-1.07-1-1.13-1.4-2.1-3z"/><path class="ai" d="M253.62 508.17c6.55-2.42 19.11 9.76 5.63 23.88-3.14 3.29-4.62 6.15-9 7.91-2.15.87-5.23 2.71-8.05 3.35-5.92 3.51-10.11 4.62-13.67 6.26-4.69 2.15-3.07 3.45-13.52-1.52s-4.5-8.11-4.5-8.11l-2.27-2.65c-2.27-2.65.58-4.12.58-4.12l17.56-12a12.74 12.74 0 011.36-2.72c-4.75-.28-14.84-1.23-15.49-4.37-.85-4.1 12.44-1.56 17.9-2.54 1.94-.35 5-.74 8.08-1.1A13 13 0 01240 510c4.68-.8 9-.17 13.62-1.83z"/><path class="ai" d="M295.87 399.27s8.63 36.85 5.27 47.67-9.45 35.84-51.86 63l13.6 17.39s61.74-29.64 71.36-70.24c4.46-18.81 2.66-58.1 2.66-58.1"/><path class="ak" d="M287 402.93s12 4.52 24 4.69 34-9.17 34-9.17 2.42-37.66-10.65-60.11-29.8-24.5-43.5-8.16-3.85 72.75-3.85 72.75z"/><path class="ba" d="M531.86 581.49a3.79 3.79 0 01-1.28 3.53l-102.5 56.36a3.7 3.7 0 01-3.94.67l-17.38-6.93-5.19-2.12-52.66-21-2.55-1-3.23-1.28a3.64 3.64 0 01-2.29-2.72 3.75 3.75 0 011.2-3.71l102.25-56.12a3.91 3.91 0 013.94-.67l6.89 2.73 2.54 1 52.84 20.87 5.08 2 13.92 5.49a3.79 3.79 0 012.36 2.9z"/><path class="bb" d="M346.33 592.39L443.11 541a3.58 3.58 0 013.67-.63l76 30a3.58 3.58 0 011 6l-97 51.6a3.58 3.58 0 01-3.68.62l-75.71-30.23a3.58 3.58 0 01-1.06-5.97z"/><path class="bc" d="M519 573.44a1.71 1.71 0 00-.49 1.38l-70.61-27.88a3.58 3.58 0 00-3.67.63l-93.77 48.75c-2.28-.23-5.27-.46-5.27-.46l1.14 6.73h.1a3.47 3.47 0 002 2.36l75.71 30.23a3.58 3.58 0 003.68-.62l97-51.6a3.42 3.42 0 001.12-2.55h.18L525 573.1s-5.15-.29-6 .34z"/><path class="bd" d="M525 573.12l1.23 7.27h-.18a3.36 3.36 0 01-1.15 2.61l-97 51.6a3.66 3.66 0 01-3.68.62L408 628.71l-5-2L348.44 605a3.39 3.39 0 01-2-2.38h-.09l-1.14-6.73s3 .23 5.25.45l93.79-48.74a3.66 3.66 0 013.68-.62l52.26 20.64 4.75 1.87 13.56 5.36a1.78 1.78 0 01.5-1.38c.84-.68 6-.35 6-.35z"/><path class="be" d="M525 573.12a3.54 3.54 0 01-1.2 3.3l-97 51.6a3.46 3.46 0 01-3.68.62l-16.24-6.48-4.88-1.94-49.23-19.63-2.38-1-3-1.2a3.4 3.4 0 01-2.14-2.55 3.5 3.5 0 011.12-3.47L443.11 541a3.66 3.66 0 013.68-.62l6.44 2.56 2.38.94L505 563.39l4.75 1.87 13 5.13a3.54 3.54 0 012.25 2.73z"/><path class="aa" d="M450.07 555.74l-12.62 10.98 31.31 12.46 12.66-11.02-31.35-12.42z"/><path class="bb" d="M342.49 572l96.78-51.36a3.58 3.58 0 013.67-.63l76 30a3.58 3.58 0 011 6l-97 51.6a3.58 3.58 0 01-3.68.62L343.55 578a3.58 3.58 0 01-1.06-6z"/><path class="bc" d="M515.14 553.1a1.71 1.71 0 00-.49 1.38L444 526.6a3.58 3.58 0 00-3.67.63L346.61 576c-2.28-.23-5.27-.46-5.27-.46l1.14 6.73h.1a3.47 3.47 0 002 2.36l75.71 30.23a3.58 3.58 0 003.68-.62l97-51.6a3.42 3.42 0 001.12-2.55h.18l-1.24-7.29s-5.03-.33-5.89.3z"/><path class="bd" d="M521.14 552.78l1.23 7.27h-.18a3.36 3.36 0 01-1.14 2.55l-97 51.6a3.66 3.66 0 01-3.68.62l-16.2-6.49-5-2-54.57-21.71a3.39 3.39 0 01-2-2.38h-.09l-1.14-6.73s3 .23 5.25.45l93.79-48.74a3.66 3.66 0 013.68-.62l52.26 20.64 4.75 1.87 13.56 5.36a1.78 1.78 0 01.5-1.38c.84-.64 5.98-.31 5.98-.31z"/><path class="bf" d="M521.14 552.78a3.54 3.54 0 01-1.2 3.3l-97 51.6a3.46 3.46 0 01-3.68.62L403 601.82l-4.86-1.95-49.23-19.63-2.38-1-3-1.2a3.41 3.41 0 01-2.14-2.55 3.5 3.5 0 011.12-3.47l96.8-51.38a3.66 3.66 0 013.68-.62l6.44 2.56 2.38.94 49.39 19.51 4.75 1.87 13 5.13a3.54 3.54 0 012.19 2.75z"/><path fill="#4d8e93" d="M402.95 601.69l.03.13 1.15 6.55-4.95-1.98-1.14-6.45.08-.06 98.21-52.64 6.52-3.65 4.75 1.87-6.52 3.66-98.13 52.57z"/><path class="aa" d="M453.99 533.64l-16.5 9 31.31 12.46 16.54-9.04-31.35-12.42z"/><path class="bh" d="M590.78 176.37h-19.12s-8.93-6.57 0-7.46l9-.9zM573.49 18.18h-19.86v2.56l10.92 2.56 10.07-.85-1.13-4.27z"/><path class="bh" d="M635.94 88.07c8.33 43.39-9.52 82.68-39.89 87.77s-61.74-26-70.07-69.35 9.52-82.68 39.89-87.77 61.73 25.97 70.07 69.35z"/><path class="bi" d="M619.44 88.07c8.33 43.39-9.52 82.68-39.89 87.77s-61.74-26-70.07-69.35 9.52-82.68 39.89-87.77 61.74 25.97 70.07 69.35z"/><path class="h" d="M606.79 90.19c6.42 33.41-7.33 63.66-30.71 67.58s-47.53-20-53.95-53.39 7.33-63.66 30.71-67.58 47.53 19.99 53.95 53.39z"/><path class="bh" d="M566.49 100.57c.6 3.15-.69 6-2.89 6.37s-4.48-1.88-5.08-5 .69-6 2.89-6.37 4.48 1.86 5.08 5z"/><path class="bh" d="M562.5 103.29a2 2 0 01-2-2V65.87a2 2 0 114.1 0v35.37a2 2 0 01-2.1 2.05z"/><path class="bh" d="M562.5 103.29a2 2 0 01-.34-4.07l24.23-4.06a2 2 0 012.36 1.68 2.05 2.05 0 01-1.68 2.36l-24.23 4.06a2 2 0 01-.34.03z"/><path class="ba" d="M465.36 380.16a2.15 2.15 0 00-3.24-1.84l-50.72 23.24a2.38 2.38 0 00-1.13 2.45l10.38 60.15a2.38 2.38 0 01-1.06 2.41l-31.5 20.18a2.38 2.38 0 00.12 4.09l26 14.55a6 6 0 006-.06L482 469.08a2.37 2.37 0 00-.22-4.2l-5.49-2.54a2.38 2.38 0 01-1.38-2.28z"/><path class="be" d="M452.72 350.85l-57 33.39 19.5 11 40.78-33.7-.06-8.85a2.15 2.15 0 00-3.22-1.84z"/><path class="aa" d="M395.7 387.31l56.71-33.2 20.58 11.68-56.69 33.19-20.6-11.67z"/><path d="M474.53 362.23A2.34 2.34 0 00472 362l-56.8 33.28-19.5-11 57-33.39a2.1 2.1 0 011.86-.13s-2-1-2.79-1.42a2.32 2.32 0 00-2.4-.16l-60 35.13.71 101.22 22.48-13.16.18 26 61.35-35.92a3.72 3.72 0 001.91-3.25l1.25-95.49s-1.85-.94-2.72-1.48z" fill="#8eefef"/><path class="bf" d="M415.22 398.92l-25.84-14.64.72 101.22 25.84 14.64-.72-101.22z"/><path class="be" d="M475.22 363.79l-60 35.13.71 101.22 61.35-35.92a3.72 3.72 0 001.84-3.24l-.67-95.35a2.15 2.15 0 00-3.23-1.84z"/><path opacity=".42" fill="#e0f9fe" d="M469.7 380.16l-28.57 16.73.32 17.96 28.57-16.73-.32-17.96z"/><path class="ba" d="M594 494.2c-13.93.41-25 7.36-24.78 15.53v4.52a9 9 0 00.34 2.2 12.23 12.23 0 004.28 6l-5.18 3.23a3.89 3.89 0 00-2.11-.41 3.12 3.12 0 00-1.07.3l-.18.09-.22.14-.08.05h-.06l-28.91 17.87-.18.09-.22.14-.08.05c-1.61 1.15-2.07 3.68-1 6 1.2 2.49 3.77 3.74 5.77 2.79a3 3 0 00.6-.38l28.84-17.82a3 3 0 00.6-.38 3.56 3.56 0 001.15-1.58 5 5 0 00.27-2.2l7.06-4.4a1.71 1.71 0 00.34-.22c.06 0 .08-.13.13-.19a37.71 37.71 0 0015.52 2.65c12.65-.37 23-6.14 24.57-13.31.16-.73.21-6.73.21-6.73-.15-8.15-11.61-14.44-25.61-14.03z"/><path d="M566 511.43a8.93 8.93 0 00.34 2.2c2 7.07 12.66 12.22 25.31 11.84s23-6.14 24.57-13.31c.16-.73.21-6.73.21-6.73s-6.62-13.18-25.65-12.92c-11.51.16-24.78 14.4-24.78 14.4v4.52zm4-.12a8.31 8.31 0 011.66-5.08c3.16-4.46 10.53-7.73 19.19-8s16.21 2.57 19.63 6.84a8.3 8.3 0 012 5c.2 6.87-9.13 9.54-20.85 9.88s-21.39-1.77-21.63-8.63z" fill="#4a86ce"/><ellipse cx="591.16" cy="506.27" rx="22.1" ry="12.7" transform="translate(-14.63 17.6)" style="mix-blend-mode:screen" fill="url(#a)" opacity=".2"/><path class="bn" d="M578.45 496c22 .48 28.63 11.31 30.47 17.44 2.81-2.22 4.42-4.95 4.34-7.86-.21-7-10.21-12.15-22.41-11.8a36.81 36.81 0 00-12.4 2.22z"/><path class="bn" d="M571.25 507.19c.18 6.2 9.09 11 19.89 10.66s19.41-5.6 19.22-11.82v-.54c-.6 5.82-8.89 10.63-19.18 10.94-10.48.32-19.17-4.17-19.85-10.1a5.11 5.11 0 00-.08.86z"/><path d="M568.26 502.55l5.74-5.95 16.51-4.08 16.72 3.11 6.06 5.6 1.58 3.49-2.39.84s-2.82-11.36-21.9-10.8-21.23 12.07-21.23 12.07l-2.44-.7z" fill="#0a2982"/><path d="M566 506.92a8.93 8.93 0 00.34 2.2c2 7.07 12.66 12.22 25.31 11.84s23-6.14 24.57-13.31a8.93 8.93 0 00.21-2.22c-.24-8.17-11.72-14.46-25.65-14s-24.99 7.32-24.78 15.49zm4-.12a8.3 8.3 0 011.66-5.08c3.16-4.46 10.53-7.73 19.19-8s16.21 2.57 19.63 6.84a8.31 8.31 0 012 5c.2 6.87-9.13 12.72-20.85 13.06s-21.39-4.95-21.63-11.82z" fill="#80c4e7"/><path class="bq" d="M566 506.92a8.93 8.93 0 00.34 2.2c2 7.07 12.66 12.22 25.31 11.84s23-6.14 24.57-13.31a8.93 8.93 0 00.21-2.22c-.24-8.17-11.72-14.46-25.65-14s-24.99 7.32-24.78 15.49zm4-.12a8.3 8.3 0 011.66-5.08c3.16-4.46 10.53-7.73 19.19-8s16.21 2.57 19.63 6.84a8.31 8.31 0 012 5c.2 6.87-9.13 12.72-20.85 13.06s-21.39-4.95-21.63-11.82z"/><path class="bq" d="M563 524.4l.48.71 2.16 3.2.56.82 9.47-5.91a1.71 1.71 0 00.33-.22 2.06 2.06 0 00.66-.91 2.53 2.53 0 00.15-.58 3.34 3.34 0 00-.31-1.88 3.21 3.21 0 00-1.63-1.6 2.19 2.19 0 00-1.07-.17 1.82 1.82 0 00-.61.17l-.1.05-.13.08z"/><path class="h" d="M563 524.4l.48.71L574.9 518a2.19 2.19 0 00-1.07-.17 1.82 1.82 0 00-.61.17l-.1.05-.13.08z"/><path d="M565.65 528.32l.56.82 9.47-5.91a1.71 1.71 0 00.32-.23 2.06 2.06 0 00.66-.91 2.53 2.53 0 00.15-.58z" fill="#396bb3"/><path d="M532.84 541l1.38 2.43 3.54 6.23 28.84-17.82a3 3 0 00.6-.37 3.56 3.56 0 001.15-1.58 5.52 5.52 0 00-.29-4.29 6.12 6.12 0 00-1-1.46 4.5 4.5 0 00-3.72-1.62 3.1 3.1 0 00-1.07.3l-.18.09-.22.14-.08.05h-.06z" fill="#2d2d2d"/><path d="M532.84 541l1.38 2.43 3.47-1 29.41-18.25a4.5 4.5 0 00-3.72-1.62 3.1 3.1 0 00-1.07.3l-.18.09-.22.14-.08.05h-.06z" fill="#3a3a3a"/><path d="M531.38 547.2c1.2 2.49 3.77 3.74 5.77 2.79a3 3 0 00.6-.38 3.59 3.59 0 001.15-1.61 5.51 5.51 0 00-.29-4.29 5 5 0 00-4.7-3.09 3.15 3.15 0 00-1.07.3l-.18.09-.22.14-.08.05c-1.61 1.19-2.07 3.72-.98 6z" fill="#4b4c4c"/><ellipse class="ba" cx="512.76" cy="514.06" rx="19.18" ry="10.89"/><ellipse class="r" cx="512.76" cy="510.19" rx="19.18" ry="10.89"/><path class="r" d="M539.21 453.31l-7.26 56.88-38.37.85-7.26-57.73h52.89z"/><ellipse class="s" cx="512.76" cy="453.32" rx="26.45" ry="15.01"/><path d="M512.76 464.89c-13.56 0-23-6.1-23-11.58s9.45-11.58 23-11.58 23 6.1 23 11.58-9.43 11.58-23 11.58z" fill="#272c91"/><path d="M512.76 464.89c-13.56 0-23-6.1-23-11.58s9.45-11.58 23-11.58 23 6.1 23 11.58-9.43 11.58-23 11.58z" fill="#617704"/><g clip-path="url(#b)"><path d="M522.27 448.05a.87.87 0 01-.69-1l1.6-8.24a.87.87 0 011-.69.87.87 0 01.69 1l-1.6 8.24a.87.87 0 01-1 .69z" fill="#fd9220"/><path d="M520.16 491.49c-.15.8-1.55.92-3.13.27s-2.73-1.82-2.58-2.62 1.55-.92 3.13-.27 2.74 1.82 2.58 2.62z" fill="#9a98ed"/><path class="bi" d="M526.32 426.61l-11.86 62.53 5.7 2.35 11.86-62.53-5.7-2.35z"/><path d="M532 429c-.15.8-1.55.92-3.13.27s-2.73-1.82-2.58-2.62 1.55-.92 3.13-.27 2.75 1.78 2.58 2.62z" fill="#205ce1"/><path class="n" d="M517.52 413.06v2.81l-.07 2.74v.81l-.07 2.74v.81l-.06 2.66v.81l-.07 2.69v.81l-.06 2.74v.8l-.07 2.74v.81l-.06 2.69v.8l-.07 2.71v.77l-.07 2.71v.8l-.06 2.76v.81l-.07 2.74v.8l-.06 2.72v.8l-.07 2.76v.8l-.06 2.71v.81l-.07 2.74v.8l-.28 11.2c-.06 2.56-1.9 4.35-3.69 3.58l-6.31-2.54a4 4 0 01-2-3.87l2-65.63c.07-2.33 1.62-4 3.3-3.66l5.57 1.26c1.43.31 2.44 2 2.4 3.96z"/><path class="h" d="M517.47 415.05v.81l-2.53-.65a.44.44 0 01-.23-.48c0-.21.19-.37.35-.3zm-.09 3.55v.81h-.06l-2.53-.67a.39.39 0 01-.23-.46c0-.21.19-.37.34-.32zm-.08 3.55v.81h-.06l-2.53-.67a.39.39 0 01-.23-.46c0-.22.17-.37.34-.32zm-.09 3.48v.81l-2.53-.67a.38.38 0 01-.23-.46c0-.22.17-.37.34-.32zm-.09 3.5v.81l-2.53-.67c-.15 0-.26-.24-.23-.46s.19-.37.35-.32zm-.12 3.55v.8l-2.53-.67a.44.44 0 01-.23-.48c0-.21.19-.37.35-.3zm-.05 3.54v.81l-2.53-.67c-.15 0-.26-.24-.23-.46s.19-.37.35-.32zm-.09 3.5v.8h-.06l-2.53-.67a.4.4 0 01-.23-.46c0-.22.19-.38.34-.32zm-.09 3.5v.78l-2.53-.67a.39.39 0 01-.23-.46c0-.22.17-.37.34-.32zm-.08 3.52v.8l-2.53-.67a.4.4 0 01-.23-.46c0-.22.19-.38.34-.32zm-.08 3.56v.81h-.06l-2.53-.67c-.15 0-.26-.24-.23-.46s.17-.37.35-.32zm-.09 3.55v.8l-2.53-.67a.39.39 0 01-.23-.46c0-.22.17-.37.34-.32zm-.09 3.52v.8h-.06l-2.53-.67c-.16 0-.26-.24-.23-.46s.19-.37.34-.32zm-.09 3.55v.8l-2.53-.67a.43.43 0 01-.23-.46c0-.22.17-.37.35-.32zm-.08 3.5v.81l-2.53-.67a.38.38 0 01-.23-.46c0-.21.17-.37.34-.32zm-.09 3.58v.8h-.06l-2.53-.67a.4.4 0 01-.23-.46c0-.22.19-.37.34-.32z"/></g></g></svg>