<svg xmlns="http://www.w3.org/2000/svg" viewBox="0 0 496 496" width="512" height="512" class="hovered-paths"><path data-original="#FFA64D" data-old_color="#FFA64D" fill="#ffcb58" d="M272 320h120v112H272zm-168-96h120v112H104z"/><path d="M496 232c0-48.68-33.296-90.176-80.096-101.128C413.2 58.248 353.272 0 280 0c-53.56 0-102.648 32.28-124.264 81.008-36.784-6.272-71.232 17.024-80.976 51.272C30.496 145.184 0 185.512 0 232c0 31.848 14.952 61.976 40 81.648V496h416V313.648c25.048-19.672 40-49.8 40-81.648zm-56 248H56V224h16v240h352V224h16v256zm-32-272v240H256V208h152zM240 448H88V208h152v240zm184-240v-16H72v16H40v84.04c-15.176-16.184-24-37.6-24-60.04 0-40.72 27.664-75.848 67.264-85.44l4.904-1.184 1.04-4.944c6.376-30.36 37.104-51.056 69.296-42.464l6.952 1.856 2.576-6.72C185.728 46.984 230.72 16 280 16c66.168 0 120 53.832 119.984 120.128l-.056 8.08 6.68 1.12C449.136 152.44 480 188.888 480 232c0 22.44-8.824 43.864-24 60.04V208h-32z" data-original="#333333" class="hovered-path active-path" data-old_color="#333333" fill="#2e3b48"/><path data-original="#333333" class="hovered-path active-path" data-old_color="#333333" fill="#2e3b48" d="M104 416h120v16H104zm0-32h120v16H104zm0-32h120v16H104zm168-128h120v16H272zm0 32h120v16H272zm104 32h16v16h-16zm-104 0h88v16h-88zm-89.96-186.672l15.08 5.344C209.544 71.576 242.848 48 280 48V32c-43.904 0-83.272 27.856-97.96 69.328zM176 136h16c0-4.552.44-9.36 1.328-14.672l-15.784-2.656c-1.04 6.2-1.544 11.872-1.544 17.328z"/></svg>