<svg xmlns="http://www.w3.org/2000/svg" viewBox="0 0 512 512"><path d="M432 8H80C66.766 8 56 18.766 56 32v456c0 13.234 10.766 24 24 24h352c13.234 0 24-10.766 24-24V32c0-13.234-10.766-24-24-24z" fill="#ff4f19"/><path d="M95.781 8H80C66.766 8 56 18.766 56 32v456c0 13.234 10.766 24 24 24h15.781V8z" fill="#e3001e"/><path d="M400 0h-80a8 8 0 00-8 8v119.996a7.993 7.993 0 004.055 6.961 7.982 7.982 0 008.063-.102L360 113.325l35.883 21.531a7.985 7.985 0 004.117 1.141 7.993 7.993 0 008-8V8a8 8 0 00-8-8z" fill="#5d647f"/><path d="M96 480c-4.422 0-8-3.582-8-8V48c0-4.418 3.578-8 8-8s8 3.582 8 8v424c0 4.418-3.578 8-8 8z" fill="#c10019"/><path d="M355.781 344h-.572c-.071-.272-.084-.545-.17-.816L309.76 199.801c5.679-.948 10.021-5.85 10.021-11.801 0-6.629-5.375-12-12-12h-64c-6.625 0-12 5.371-12 12 0 5.951 4.343 10.853 10.021 11.801l-45.279 143.383c-.086.271-.1.544-.17.816h-.572c-6.625 0-12 5.371-12 12s5.375 12 12 12h32c6.625 0 12-5.371 12-12 0-5.951-4.342-10.853-10.021-11.801L238.665 316h74.231l8.905 28.199c-5.678.948-10.021 5.85-10.021 11.801 0 6.629 5.375 12 12 12h32c6.625 0 12-5.371 12-12s-5.374-12-11.999-12zM248.77 284l26.269-83.184c.086-.271.1-.544.17-.816h1.144c.071.272.084.545.17.816L302.792 284H248.77z" fill="#ffcd00"/></svg>