<svg xmlns="http://www.w3.org/2000/svg" viewBox="0 0 508 508"><path d="M486.8.75H21.2C9.5.75 0 10.35 0 22.05v139.2h508V22.05c0-11.7-9.5-21.3-21.2-21.3z" fill="#41596b"/><path d="M0 161.25v324.8c0 11.7 9.5 21.2 21.2 21.2h465.5c11.7 0 21.2-9.5 21.2-21.2v-324.8H0z" fill="#f2f2f2"/><circle cx="62.1" cy="81.05" r="30" fill="#f2705b"/><circle cx="155.7" cy="81.05" r="30" fill="#ffd05c"/><circle cx="249.2" cy="81.05" r="30" fill="#89d6f7"/><path d="M142.9 430.55l-96.3-96.3 96.3-96.2 31.9 31.9-64.3 64.3 64.3 64.4zm222.2 0l-31.9-31.9 64.3-64.4-64.3-64.3 31.9-31.9 96.3 96.2z" fill="#65c5b8"/><path fill="#4fbfa8" d="M237 447.05h-45.2l79.2-225.5h45.2z"/><path fill="#cdd5df" d="M0 161.25h508v11.5H0z"/></svg>