<svg xmlns="http://www.w3.org/2000/svg" viewBox="0 0 512 512"><path fill="#f8b64c" d="M331.605 292.071l.022 43.83-18.326 71.776-133.024 8.853V292.071z"/><path d="M480.629 394.13l-149.003-58.56v.32l-18.336 71.787-115.957-2.539-16.981-69.237v-.32L31.36 394.13C12.363 401.597 0 419.837 0 440.21v71.787h512V440.21c0-20.363-12.469-38.603-31.371-46.08" fill="#84dbff"/><path fill="#40596b" d="M290.005 430.983l-34.037-34.058-34.069 34.058 16.021 16.011-6.251 65.003h48.544l-6.165-65.056z"/><path fill="#40596b" d="M331.605 292.071l-.042 43.83-54.016 43.509-62.294-46.304 33.27-41.035z" opacity=".1"/><path d="M175.712 192.925c1.664 19.147-7.627 35.605-20.747 36.747-13.141 1.152-25.141-13.44-26.837-32.587-1.664-19.147 7.627-35.605 20.768-36.747 13.131-1.152 25.152 13.44 26.816 32.587m208.064 4.16c-1.664 19.147-13.685 33.739-26.816 32.587-13.141-1.141-22.443-17.6-20.747-36.747 1.664-19.147 13.664-33.739 26.816-32.587 13.142 1.141 22.411 17.6 20.747 36.747" fill="#f8b64c"/><path d="M366.443 142.834v36.267c-.107 7.68-.523 15.36-1.483 22.933-1.6 12.587-4.267 24.96-8 36.907-9.088 28.907-24.331 55.573-44.917 78.08l-10.56 11.52c-9.6 10.56-23.253 16.533-37.547 16.533h-16c-14.187 0-27.829-6.08-37.44-16.533l-10.453-11.52c-14.603-15.893-26.56-34.027-35.413-53.333-8.96-19.413-14.933-40.224-17.483-61.653-.96-7.573-1.504-15.253-1.504-22.933-.107-.853-.107-1.6-.107-2.453v-33.173c0-10.443 1.483-20.683 4.267-30.293 13.109-46.187 55.669-80.107 106.229-80.107 50.453 0 93.024 33.92 106.144 80.107 2.784 9.384 4.267 19.411 4.267 29.651" fill="#ffd15c"/><g fill="#54c0eb"><path d="M255.968 396.925l75.616-61.366 4.416 1.739-34.123 105.728z"/><path d="M256 396.925l-75.637-61.366-4.416 1.739 34.144 105.728z"/></g><path d="M354.464 324.701c-.107.117-.224.117-.224.117v-.235c.117 0 .224.118.224.118m.48-.118v.235s-.128 0-.224-.117c-.011 0 .096-.118.224-.118" fill="#acb3ba"/><path d="M364.715 206.002c3.584-34.912-2.859-58.037-7.851-70.027-2.955-7.083-3.712-14.72-2.645-22.315 4.565-33.141-12.832-28.661-12.832-28.661C303.904 103.41 256 103.005 256 103.005s-47.915.405-85.376-18.005c0 0-17.419-4.48-12.832 28.661 1.045 7.595.288 15.232-2.667 22.304-5.003 12-11.435 35.125-7.851 70.037 0 0-73.088-213.749 108.725-205.781 181.814-7.968 108.716 205.781 108.716 205.781" fill="#40596b"/></svg>