<svg xmlns="http://www.w3.org/2000/svg" viewBox="0 0 512 512"><path d="M297.6 436.286c3.2-6.4 4.267-12.8 4.267-19.2v-121.6c0-24.533-20.267-44.8-44.8-44.8H160c-24.533 0-44.8 20.267-44.8 44.8v120.533c0 7.467 1.067 13.867 4.267 19.2H297.6v1.067z" fill="#ced6e0"/><g fill="#f3705a"><path d="M240 436.286l-16-138.667h-30.933l-14.934 138.667z"/><path d="M224 298.105l16-16.486-30.933-30.933-32 30.933 16 16.486z"/></g><path d="M417.067 436.286L384 293.352c-3.2-14.933-14.933-25.6-29.867-28.8l-77.866-14.933-37.333 186.667h178.133z" fill="#344a5e"/><path d="M256 218.686s0 5.333-21.333 17.067-25.6 14.933-25.6 14.933l44.8 43.733s17.067-43.733 17.067-44.8c-1.067 0-12.801-22.4-14.934-30.933z" fill="#f3f3f3"/><path d="M257.067 436.286c6.4-17.067 12.8-30.933 14.933-39.467 10.667-29.867 35.2-106.667 35.2-106.667l-22.4-12.8 14.933-5.333s-12.8-19.2-23.467-25.6c-10.666-6.4-10.666-14.933-17.066-19.2 0 0-1.067 21.333-3.2 34.133-2.133 12.8-17.067 96-21.333 121.6-1.067 8.533-4.267 28.8-7.467 53.333h29.867v.001z" fill="#415a6b"/><path d="M178.133 436.286L140.8 249.619l-77.867 14.933c-14.933 3.2-26.667 13.867-29.867 28.8L0 436.286h178.133z" fill="#344a5e"/><path d="M161.067 218.686s0 5.333 21.333 17.067 25.6 14.933 25.6 14.933l-44.8 43.733s-17.067-43.733-17.067-44.8c1.067 0 12.8-22.4 14.934-30.933z" fill="#f3f3f3"/><path d="M144 396.819c3.2 7.467 8.533 22.4 14.933 39.467H188.8c-3.2-24.533-5.333-44.8-7.467-53.333-4.267-25.6-19.2-108.8-21.333-121.6-2.133-12.8-3.2-34.133-3.2-34.133-6.4 4.267-6.4 12.8-17.067 19.2-10.667 6.4-23.466 25.599-23.466 25.599l14.933 5.333-23.467 11.733c1.067.001 25.6 77.867 36.267 107.734z" fill="#415a6b"/><path d="M161.067 149.352v70.4s0 5.333 21.333 17.067 25.6 14.933 25.6 14.933 4.267-3.2 25.6-14.933 21.333-17.067 21.333-17.067v-70.4h-93.866z" fill="#f7b64c"/><g fill="#ffd15c"><path d="M261.333 80.019c0-6.4-2.133-13.867-6.4-19.2-4.267-5.333-8.533-8.533-14.933-10.667-5.333-2.133-11.733-2.133-17.067-2.133-10.667-1.067-21.333-1.067-32 2.133h-1.067c-7.467-3.2-14.933-5.333-23.467-5.333s-17.067 4.267-21.333 12.8c-3.2 6.4-4.267 14.933-4.267 22.4 3.2 5.333 4.267 12.8 8.533 19.2-4.267 11.733-7.467 24.533-7.467 39.467 0 48 30.933 87.467 68.267 87.467s68.267-39.467 68.267-87.467c.001-22.4-6.399-42.667-17.066-58.667z"/><ellipse transform="rotate(-171.634 274.158 137.643)" cx="274.166" cy="137.647" rx="11.734" ry="24.535"/><ellipse transform="rotate(-8.366 141.452 137.83)" cx="141.458" cy="137.835" rx="11.734" ry="24.535"/></g><path d="M146.133 154.686l3.2-1.067s-6.4-13.867 0-30.933c6.4-18.133 6.4-23.467 5.333-33.067s-3.2-27.733 16-30.933 60.8-2.133 74.667 0 19.2 20.267 17.067 27.733c-2.133 7.467 2.133 23.467 3.2 33.067 1.067 9.6-1.067 32-1.067 32l3.2-1.067s0-16 4.267-25.6 6.4-19.2 6.4-41.6c0-27.733-7.467-34.133-7.467-34.133s10.667-29.867-25.6-42.667-53.333-3.2-73.6 6.4-34.133 30.933-39.466 42.667c-5.333 11.733 2.133 64 6.4 71.467 3.2 5.333 7.466 27.733 7.466 27.733z" fill="#415a6b"/><path d="M496 290.152c9.6 1.067 16 8.533 16 18.133v48c0 36.267-12.8 70.4-33.067 98.133-20.267 26.667-48 45.867-81.067 56.533-3.2 1.067-7.467 1.067-10.667 0-68.267-20.267-114.133-83.2-114.133-154.667v-48c0-9.6 6.4-17.067 16-18.133 42.667-5.333 69.333-22.4 90.667-46.933 7.467-7.467 19.2-7.467 26.667 0 20.267 24.534 46.933 41.601 89.6 46.934z" fill="#66c6b9"/><path d="M392.533 478.952c-52.267-18.133-87.467-66.133-87.467-122.667v-36.266c34.133-6.4 62.933-20.267 87.467-43.733 24.534 23.466 53.334 37.333 87.467 43.733v36.267c0 28.8-9.6 55.467-26.667 78.933-16 20.267-36.266 35.2-60.8 43.733z" fill="#fff"/><path d="M379.733 425.619c-4.267 0-8.533-1.067-11.733-4.267l-30.933-30.933c-6.4-6.4-6.4-16 0-22.4s16-6.4 22.4 0l20.267 20.267 44.8-44.8c6.4-6.4 16-6.4 22.4 0s6.4 16 0 22.4l-55.467 55.467c-3.2 3.199-7.467 4.266-11.734 4.266z" fill="#f3705a"/></svg>