<svg xmlns="http://www.w3.org/2000/svg" viewBox="0 0 512 512"><path d="M413.867 116.267v244.267c0 20.267-17.067 37.333-37.333 37.333h-339.2C17.067 397.867 0 380.8 0 360.533V116.267h413.867z" fill="#e8eae9"/><path d="M413.867 116.267V37.333C413.867 17.067 396.8 0 376.533 0h-339.2C17.067 0 0 17.067 0 37.333v78.933h413.867z" fill="#66c6b9"/><g fill="#fff"><circle cx="100.267" cy="57.6" r="23.467"/><circle cx="313.6" cy="57.6" r="23.467"/></g><path d="M313.6 57.6c0 8.533-6.4 14.933-14.933 14.933H115.2c-8.533 0-14.933-6.4-14.933-14.933s6.4-14.933 14.933-14.933h183.467c7.466 0 14.933 6.4 14.933 14.933zM54.4 163.2h45.867v42.667H54.4zm86.4 0h45.867v42.667H140.8zm86.4 0h45.867v42.667H227.2zm86.4 0h45.867v42.667H313.6zM54.4 235.733h45.867V278.4H54.4zm86.4 0h45.867V278.4H140.8zm86.4 0h45.867V278.4H227.2zm86.4 0h45.867V278.4H313.6zM54.4 307.2h45.867v42.667H54.4zm86.4 0h45.867v42.667H140.8zm86.4 0h45.867v42.667H227.2zm86.4 0h45.867v42.667H313.6z" fill="#415a6b"/><circle cx="345.6" cy="345.6" r="166.4" fill="#f3705a"/><circle cx="345.6" cy="345.6" r="134.4" fill="#fff"/><path d="M385.067 397.867c-3.2 0-6.4-1.067-8.533-3.2L337.067 355.2c-2.133-2.133-3.2-5.333-3.2-8.533v-73.6c0-6.4 5.333-12.8 12.8-12.8 6.4 0 12.8 5.333 12.8 12.8v68.267l36.267 36.267c5.333 5.333 5.333 12.8 0 18.133-4.267 1.066-7.467 2.133-10.667 2.133z" fill="#415a6b"/><circle cx="345.6" cy="345.6" r="26.667" fill="#ffd15c"/><g fill="#ced6e0"><circle cx="345.6" cy="237.867" r="9.6"/><circle cx="345.6" cy="453.333" r="9.6"/><circle cx="421.333" cy="268.8" r="9.6"/><circle cx="268.8" cy="421.333" r="9.6"/><circle cx="453.333" cy="345.6" r="9.6"/><circle cx="237.867" cy="345.6" r="9.6"/><circle cx="421.333" cy="421.333" r="9.6"/><circle cx="268.8" cy="268.8" r="9.6"/></g></svg>