<svg xmlns="http://www.w3.org/2000/svg" viewBox="0 0 298.618 298.618"><g fill="#1876ce"><path d="M238.471 99.757c.79-4.7 1.314-9.405 1.314-14.043C239.786 38.452 201.333 0 154.071 0H87.405C40.143 0 1.69 38.452 1.69 85.714c0 24.405 10.386 47.538 28.571 63.824v53.843l28.886-16.248c3.19 44.376 40.224 79.533 85.4 79.533h66.667c.105 0 .214 0 .329-.005l56.814 31.957v-53.843c18.186-16.286 28.571-39.419 28.571-63.824.001-37.727-24.533-69.77-58.457-81.194zM59.08 176.073c-.014.067-.033.133-.048.2l-19.248 10.824v-41.924l-1.679-1.425c-17.086-14.533-26.89-35.686-26.89-58.033 0-42.01 34.181-76.19 76.19-76.19h66.667c42.01 0 76.19 34.181 76.19 76.19 0 3.79-.3 7.643-.9 11.5-5.857-1.271-11.919-1.976-18.148-1.976H44.547v9.524h60.914c-26.271 13.533-44.614 40.214-46.381 71.31zm201.434 62.913l-1.681 1.424v41.924l-44.957-25.29-1.295.024c-.31.01-.619.029-1.367.076h-66.667c-42.01 0-76.19-34.181-76.19-76.19s34.181-76.19 76.19-76.19h66.667c42.01 0 76.19 34.181 76.19 76.19.001 22.346-9.804 43.498-26.89 58.032z"/><path d="M195.014 190.2c12.481-6.9 20.962-20.19 20.962-35.438 0-22.319-18.157-40.476-40.476-40.476s-40.476 18.157-40.476 40.476c0 15.248 8.481 28.538 20.962 35.438-15.186 7.305-25.724 22.8-25.724 40.752v16.667h90.476v-16.667c0-17.952-10.538-33.447-25.724-40.752zm-50.466-35.438c0-17.067 13.886-30.952 30.952-30.952s30.952 13.886 30.952 30.952c0 17.066-13.886 30.952-30.952 30.952s-30.952-13.885-30.952-30.952zm66.665 83.333h-71.428v-7.143c0-19.695 16.019-35.714 35.714-35.714s35.714 16.019 35.714 35.714v7.143z"/><circle cx="163.595" cy="142.857" r="4.762"/><circle cx="187.405" cy="142.857" r="4.762"/><path d="M198.238 164.776l-7.595-5.743c-3.671 4.852-9.19 7.633-15.143 7.633s-11.471-2.781-15.143-7.633l-7.6 5.743c5.49 7.252 13.776 11.414 22.743 11.414s17.252-4.162 22.738-11.414zM44.548 38.095h152.381v9.524H44.548zm0 28.572h152.381v9.524H44.548z"/></g></svg>