<svg xmlns="http://www.w3.org/2000/svg" viewBox="0 0 512 512"><path d="M345.154 160.478H166.846c-10.552 0-19.104 8.552-19.104 19.104s8.552 19.104 19.104 19.104h178.308c10.552 0 19.104-8.552 19.104-19.104s-8.552-19.104-19.104-19.104zm0 76.418H166.846c-10.552 0-19.104 8.552-19.104 19.104s8.552 19.104 19.104 19.104h178.308c10.552 0 19.104-8.552 19.104-19.104s-8.552-19.104-19.104-19.104zm0 76.417H166.846c-10.552 0-19.104 8.552-19.104 19.104s8.552 19.104 19.104 19.104h178.308c10.552 0 19.104-8.552 19.104-19.104s-8.552-19.104-19.104-19.104z"/><path d="M256 0C117.302 0 4.458 112.844 4.458 251.542c0 31.516 5.795 62.351 17.251 91.708 8.903 22.55 20.697 43.265 35.133 61.746L22.55 485.4a19.095 19.095 0 002.598 19.359 19.099 19.099 0 0018.257 6.954l129.917-22.671c26.02 9.323 53.805 14.042 82.678 14.042 138.699 0 251.542-112.844 251.542-251.542S394.699 0 256 0zm0 464.876c-26.039 0-50.945-4.496-74.023-13.367a18.992 18.992 0 00-10.138-.987L71.495 468.034l25.04-58.708a19.114 19.114 0 00-3.133-20.009c-15.143-17.474-27.307-37.693-36.12-60.026-9.699-24.842-14.615-51.003-14.615-77.749 0-117.632 95.7-213.333 213.333-213.333s213.333 95.701 213.333 213.333S373.633 464.876 256 464.876z"/></svg>