<svg height="512pt" viewBox="0 0 512 512" width="512pt" xmlns="http://www.w3.org/2000/svg"><path d="M180 45c0 8.398-6.598 15-15 15h-15v45c0 8.398-6.598 15-15 15s-15-6.602-15-15V60h-15c-8.402 0-15-6.602-15-15 0-8.402 6.598-15 15-15h15V15c0-8.402 6.598-15 15-15s15 6.598 15 15v15h15c8.402 0 15 6.598 15 15zm0 0" fill="#4a696f"/><path d="M180 45c0 8.398-6.598 15-15 15h-15v45c0 8.398-6.598 15-15 15V0c8.402 0 15 6.598 15 15v15h15c8.402 0 15 6.598 15 15zm58.2 399.2c-2.7 4.8-7.802 7.8-13.2 7.8H45c-5.398 0-10.5-3-13.2-7.8-2.702-5.098-2.402-10.802.602-15.602l14.7-21.899C75.3 364.7 90 313.801 90 263.098V255c0-8.402 6.598-15 15-15h60c8.402 0 15 6.598 15 15v8.098c0 50.703 14.7 101.601 42.898 143.601l14.704 21.899c3 4.8 3.3 10.504.597 15.601zm0 0" fill="#384949"/><path d="M238.2 444.2c-2.7 4.8-7.802 7.8-13.2 7.8h-90V240h30c8.402 0 15 6.598 15 15v8.098c0 50.703 14.7 101.601 42.898 143.601l14.704 21.899c3 4.8 3.3 10.504.597 15.601zm0 0" fill="#293939"/><path d="M473.598 450.5c-2.098.898-4.2 1.5-6.598 1.5H347c-11.102 0-18.3-11.7-13.5-21.602l4.8-9.3c15.598-31.2 23.7-68 23.7-102.797V315c0-8.402 6.598-15 15-15h60c8.402 0 15 6.598 15 15v3.3c0 34.798 8.102 71.598 23.7 102.802l4.8 9.296c3.602 7.2.598 16.204-6.902 20.102zm0 0" fill="#384949"/><path d="M473.598 450.5c-2.098.898-4.2 1.5-6.598 1.5h-60V300h30c8.402 0 15 6.598 15 15v3.3c0 34.798 8.102 71.598 23.7 102.802l4.8 9.296c3.602 7.2.598 16.204-6.902 20.102zm0 0" fill="#293939"/><path d="M225 422H45c-24.902 0-45 20.098-45 45v30c0 8.398 6.598 15 15 15h240c8.402 0 15-6.602 15-15v-30c0-24.902-20.098-45-45-45zm0 0" fill="#4a696f"/><path d="M270 467v30c0 8.398-6.598 15-15 15H135v-90h90c24.902 0 45 20.098 45 45zm0 0" fill="#384949"/><path d="M467 422H347c-24.902 0-45 20.098-45 45v30c0 8.398 6.598 15 15 15h180c8.402 0 15-6.602 15-15v-30c0-24.902-20.098-45-45-45zm0 0" fill="#4a696f"/><path d="M512 467v30c0 8.398-6.598 15-15 15h-90v-90h60c24.902 0 45 20.098 45 45zM226.2 149.098L209.097 199.8C207 206.1 201.3 210 195 210c-1.5 0-3.3-.3-4.8-.902H79.8c-8.1 2.703-16.5-1.5-18.898-9.297l-17.101-50.703c-4.5-13.797-2.102-28.5 6.3-40.496C58.802 96.898 72 90 86.7 90h96.602c14.699 0 27.898 6.898 36.601 18.602 8.399 11.996 10.797 26.699 6.297 40.496zm0 0" fill="#384949"/><path d="M226.2 149.098L209.097 199.8C207 206.1 201.3 210 195 210c-1.5 0-3.3-.3-4.8-.902H135V90h48.3c14.7 0 27.9 6.898 36.602 18.602 8.399 11.996 10.797 26.699 6.297 40.496zm0 0" fill="#293939"/><path d="M497 150h-45l-15 21-15-21h-30l-15 21-15-21h-45c-8.402 0-15 6.598-15 15v30c0 41.398 33.602 75 75 75h60c41.398 0 75-33.602 75-75v-30c0-8.402-6.598-15-15-15zm0 0" fill="#384949"/><path d="M512 165v30c0 41.398-33.602 75-75 75h-30V150h15l15 21 15-21h45c8.402 0 15 6.598 15 15zm0 0" fill="#293939"/><path d="M392 150v52.5c0 8.398-6.598 15-15 15s-15-6.602-15-15V150zm0 0" fill="#4a696f"/><path d="M452 150v52.5c0 8.398-6.598 15-15 15s-15-6.602-15-15V150zm0 0" fill="#384949"/><path d="M195 180H75c-24.902 0-45 20.098-45 45 0 24.898 20.098 45 45 45h120c24.902 0 45-20.102 45-45 0-24.902-20.098-45-45-45zm0 0" fill="#4a696f"/><path d="M240 225c0 24.898-20.098 45-45 45h-60v-90h60c24.902 0 45 20.098 45 45zm0 0" fill="#384949"/><path d="M437 240h-60c-24.902 0-45 20.098-45 45 0 24.898 20.098 45 45 45h60c24.902 0 45-20.102 45-45 0-24.902-20.098-45-45-45zm0 0" fill="#4a696f"/><path d="M482 285c0 24.898-20.098 45-45 45h-30v-90h30c24.902 0 45 20.098 45 45zm0 0" fill="#384949"/></svg>