<svg xmlns="http://www.w3.org/2000/svg" viewBox="0 0 512.499 512.499"><path d="M393.6 75.416v409.6c0 14.933-11.733 26.667-26.667 26.667H26.667C11.733 512.749 0 501.016 0 486.083V75.416c0-14.933 11.733-26.667 26.667-26.667h340.267c14.933 0 26.666 12.8 26.666 26.667z" fill="#66c6b9"/><path fill="#fff" d="M45.867 91.416h301.867v375.467H45.867z"/><path d="M281.6 110.616V51.949c0-8.533-6.4-14.933-14.933-14.933h-34.133c0-19.2-16-36.267-36.267-36.267-19.2 0-35.2 16-35.2 36.267h-34.133c-8.533 0-14.933 6.4-14.933 14.933v58.667H281.6zm-84.267-86.4c6.4 0 12.8 5.333 12.8 12.8 0 6.4-5.333 12.8-12.8 12.8-6.4 0-12.8-5.333-12.8-12.8s5.334-12.8 12.8-12.8z" fill="#415a6b"/><path d="M141.867 220.483H83.2v-58.667h58.667v58.667zm-52.267-6.4h46.933V167.15H89.6v46.933z" fill="#ced6e0"/><path d="M100.267 211.949c-2.133 0-4.267-1.067-6.4-3.2L70.4 185.283c-3.2-3.2-3.2-9.6 0-12.8 3.2-3.2 9.6-3.2 12.8 0l16 16 34.133-34.133c3.2-3.2 9.6-3.2 12.8 0 3.2 3.2 3.2 9.6 0 12.8l-39.467 42.667c-1.066 1.066-4.266 2.132-6.399 2.132z" fill="#f3705a"/><path d="M141.867 328.216H83.2v-58.667h58.667v58.667zM89.6 322.883h46.933V275.95H89.6v46.933z" fill="#ced6e0"/><path d="M100.267 319.683c-2.133 0-4.267-1.067-6.4-3.2L70.4 293.016c-3.2-3.2-3.2-9.6 0-12.8 4.267-2.133 9.6-2.133 13.867 1.067l16 16L134.4 263.15c3.2-3.2 9.6-3.2 12.8 0s3.2 9.6 0 12.8l-40.533 41.6c-1.067 2.133-4.267 2.133-6.4 2.133z" fill="#f3705a"/><path d="M141.867 437.016H83.2v-58.667h58.667v58.667zm-52.267-6.4h46.933v-46.933H89.6v46.933z" fill="#ced6e0"/><path d="M100.267 428.483c-2.133 0-4.267-1.067-6.4-3.2L70.4 401.816c-3.2-3.2-3.2-9.6 0-12.8 3.2-3.2 9.6-3.2 12.8 0l17.067 17.067L134.4 371.95c3.2-3.2 9.6-3.2 12.8 0 3.2 3.2 3.2 9.6 0 12.8l-40.533 40.533c-1.067 2.133-4.267 3.2-6.4 3.2z" fill="#f3705a"/><path fill="#415a6b" d="M435.317 64.072l35-47.079L503.7 41.811l-35 47.079z"/><path d="M435.2 61.549c22.4-7.467 53.333 5.333 53.333 5.333l-176 236.8c-27.733 37.333-61.867 70.4-101.333 97.067 13.867-44.8 36.267-86.4 64-124.8l160-214.4z" fill="#f3705a"/><path fill="#415a6b" d="M341.004 263.755l-24.818 33.383-36.807-27.363 24.818-33.383z"/><path d="M477.867 22.083l20.267 14.933 11.733-16c4.267-5.333 3.2-12.8-2.133-17.067-6.4-5.333-13.867-3.2-18.133 2.133l-11.734 16.001z" fill="#f3705a"/><path d="M472.533 35.949l-6.4 8.533-16-11.733-49.067 61.867c4.267 5.333 1.067 9.6-3.2 16s-10.667 10.667-17.067 5.333c-2.133-2.133-3.2-5.333-1.067-7.467l64-86.4c2.133-2.133 5.333-3.2 7.467-1.067l21.334 14.934z" fill="#415a6b"/></svg>