<svg xmlns="http://www.w3.org/2000/svg" viewBox="0 0 504.123 504.123"><linearGradient id="a" gradientUnits="userSpaceOnUse" x1=".971" y1="542.745" x2=".971" y2="618.853" gradientTransform="matrix(7.8769 0 0 -7.8769 364.054 4969.67)"><stop offset="0" stop-color="#29d3da"/><stop offset=".519" stop-color="#07f"/><stop offset=".999" stop-color="#064093"/><stop offset="1" stop-color="#084698"/></linearGradient><path fill="url(#a)" d="M268.847 266.626v237.497l205.706-118.76V147.858z"/><linearGradient id="b" gradientUnits="userSpaceOnUse" x1="-22.157" y1="612.657" x2="1.968" y2="588.532" gradientTransform="matrix(7.8769 0 0 -7.8769 364.054 4969.67)"><stop offset="0" stop-color="#29d3da"/><stop offset=".519" stop-color="#07f"/><stop offset=".999" stop-color="#064093"/><stop offset="1" stop-color="#084698"/></linearGradient><path fill="url(#b)" d="M474.553 147.858L268.847 266.626v237.497"/><linearGradient id="c" gradientUnits="userSpaceOnUse" x1="-14.217" y1="649.415" x2="-14.217" y2="592.185" gradientTransform="matrix(7.8769 0 0 -7.8769 364.054 4969.67)"><stop offset=".012" stop-color="#e0b386"/><stop offset=".519" stop-color="#da498c"/><stop offset="1" stop-color="#961484"/></linearGradient><path fill="url(#c)" d="M457.783 118.76L252.062 0 46.356 118.76v.04l205.706 118.768L457.783 118.8z"/><linearGradient id="d" gradientUnits="userSpaceOnUse" x1="-14.217" y1="625.09" x2="-14.217" y2="596.47" gradientTransform="matrix(7.8769 0 0 -7.8769 364.054 4969.67)"><stop offset=".012" stop-color="#e0b386"/><stop offset=".519" stop-color="#da498c"/><stop offset="1" stop-color="#961484"/></linearGradient><path fill="url(#d)" d="M46.356 118.76v.04l205.706 118.768L457.783 118.8v-.04"/><linearGradient id="e" gradientUnits="userSpaceOnUse" x1="-29.405" y1="542.745" x2="-29.405" y2="618.853" gradientTransform="matrix(7.8769 0 0 -7.8769 364.054 4969.67)"><stop offset="0" stop-color="#29d3da"/><stop offset=".519" stop-color="#07f"/><stop offset=".999" stop-color="#064093"/><stop offset="1" stop-color="#084698"/></linearGradient><path fill="url(#e)" d="M235.292 266.626L29.57 147.858v237.505l205.722 118.76z"/><linearGradient id="f" gradientUnits="userSpaceOnUse" x1="-5.108" y1="610.48" x2="-32.358" y2="586.983" gradientTransform="matrix(7.8769 0 0 -7.8769 364.054 4969.67)"><stop offset="0" stop-color="#29d3da"/><stop offset=".519" stop-color="#07f"/><stop offset=".999" stop-color="#064093"/><stop offset="1" stop-color="#084698"/></linearGradient><path fill="url(#f)" d="M235.292 504.123V266.626L29.57 147.858"/></svg>