<svg xmlns="http://www.w3.org/2000/svg" viewBox="0 0 496 496"><path fill="#1876ce" d="M384.12 433.872c-6.088-20.272-22.8-35.216-43.624-39.008L288 385.328v-4.152c9.304-5.4 17.4-12.624 23.848-21.176H328c13.232 0 24-10.768 24-24V216.984a50.171 50.171 0 00-35.832-48.136l-4-4C293.56 146.248 268.832 136 242.504 136 188.184 136 144 180.192 144 234.504V296c0 15.424 10.968 28.328 25.512 31.336 4.488 22.992 18.856 42.448 38.488 53.84v4.152l-52.496 9.544c-20.832 3.792-37.536 18.736-43.624 39.008L93.248 496h309.504l-18.632-62.128zM336 336c0 4.408-3.584 8-8 8h-6.728a79.46 79.46 0 005.216-16.664c3.424-.712 6.576-2.072 9.512-3.784V336zm-8-26.224v-27.552c4.76 2.776 8 7.88 8 13.776s-3.24 11-8 13.776zm-160-.008c-4.76-2.768-8-7.872-8-13.768s3.24-11 8-13.776v27.544zM168 256v9.136a31.73 31.73 0 00-8 3.312v-33.944C160 189.008 197.016 152 242.504 152c22.048 0 42.768 8.584 58.344 24.168l7.056 7.056 2.16.536A34.199 34.199 0 01336 216.984v51.464a31.44 31.44 0 00-8-3.312V256h-25.376c-21.68 0-42.392-10.352-55.4-27.688l-6.352-8.496-15.904 15.904C211.888 248.8 194.496 256 176 256h-8zm16 56v-40.368c19.752-1.832 38.088-10.4 52.28-24.608l3.112-3.112c16.056 17.704 39.16 28.08 63.232 28.08H312v40c0 11.664-3.184 22.576-8.656 32H248v16h42.192c-11.28 9.928-26.024 16-42.192 16-35.288.008-64-28.704-64-63.992zm40.68 76.512C232.064 390.768 239.888 392 248 392s15.936-1.232 23.32-3.488L248 406l-23.32-17.488zm11.144 28.352l-16.32 16.328-10.6-31.768 5.096-.928 21.824 16.368zM282 400.496l5.096.928-10.6 31.768-16.32-16.328L282 400.496zM114.752 480l12.464-41.528c4.344-14.48 16.28-25.16 31.16-27.864l34.64-6.296 19.496 58.496L248 427.312l35.504 35.496L303 404.312l34.64 6.296c14.872 2.704 26.816 13.384 31.16 27.856L381.248 480H114.752z"/><path fill="#1876ce" d="M168 0H24C10.768 0 0 10.768 0 24v96c0 13.232 10.768 24 24 24h37.336l77.312 57.992-8.28-57.992H168c13.232 0 24-10.768 24-24V24c0-13.232-10.768-24-24-24zm8 120c0 4.408-3.584 8-8 8h-56.088l5.44 38.008L66.664 128H24c-4.416 0-8-3.592-8-8V24c0-4.408 3.584-8 8-8h144c4.416 0 8 3.592 8 8v96z"/><path fill="#1876ce" d="M32 32h128v16H32zm0 64h96v16H32zm440 29.624c15.296-13.68 24-33.008 24-53.624 0-39.696-32.296-72-72-72s-72 32.304-72 72c0 20.616 8.704 39.944 24 53.624V136h-16v16h16v32h96v-32h16v-16h-16v-10.376zM456 168h-64v-16h64v16zm-40-96c0-4.408 3.584-8 8-8s8 3.592 8 8-3.584 8-8 8-8-3.592-8-8zm42.992 43.68l-2.992 2.4V136h-24V94.528c9.288-3.312 16-12.112 16-22.528 0-13.232-10.768-24-24-24s-24 10.768-24 24c0 10.416 6.712 19.216 16 22.528V136h-24v-17.92l-2.992-2.4C375.656 104.968 368 89.04 368 72c0-30.88 25.128-56 56-56s56 25.12 56 56c0 17.04-7.656 32.968-21.008 43.68zM32 64h128v16H32zm112 32h16v16h-16z"/></svg>