<svg xmlns="http://www.w3.org/2000/svg" viewBox="0 0 512 512"><g fill="#415a6b"><path d="M323.683 343.467c0 34.133 23.467 61.867 53.333 61.867 28.8 0 52.267-27.733 53.333-61.867H323.683z"/><path d="M447.416 355.2c-3.2-4.267-7.467-7.467-13.867-7.467-2.133 0-4.267 0-6.4 1.067v8.533c2.133-1.067 4.267-1.067 6.4-1.067s5.333 1.067 7.467 3.2c2.133 2.133 1.067 6.4-1.067 11.733-6.4 12.8-26.667 17.067-34.133 18.133v-1.067h-8.533c1.067 4.267 2.133 7.467 2.133 7.467l1.067 2.133h2.133c1.067 0 34.133-3.2 43.733-22.4 3.2-7.465 4.267-14.932 1.067-20.265z"/></g><path d="M323.683 402.133c0 3.2 8.533 12.8 8.533 12.8h89.6s8.533-9.6 8.533-12.8H323.683zm36.266-100.266v19.2c0 2.133-1.067 3.2-3.2 3.2s-3.2-2.133-3.2-3.2v-19.2c0-2.133 2.133-3.2 3.2-3.2s3.2 1.066 3.2 3.2zm20.267-10.667v19.2c0 2.133-1.067 3.2-3.2 3.2s-3.2-2.133-3.2-3.2v-19.2c0-2.133 2.133-3.2 3.2-3.2 2.133-1.067 3.2 1.067 3.2 3.2zm21.333 10.667v19.2c0 2.133-1.067 3.2-3.2 3.2s-3.2-2.133-3.2-3.2v-19.2c0-2.133 2.133-3.2 3.2-3.2 2.134 0 3.2 1.066 3.2 3.2z" fill="#e8eae9"/><path fill="#344a5e" d="M188.216 425.6l-19.2-36.267h-59.733l-19.2 36.267z"/><path d="M254.349 222.933v152.533c0 9.6-7.467 18.133-18.133 18.133H42.083c-9.6 0-18.133-7.467-18.133-18.133V222.933c0-9.6 7.467-18.133 18.133-18.133h194.133c10.667 0 18.133 8.533 18.133 18.133z" fill="#415a6b"/><path fill="#8ad7f8" d="M48.483 228.267h182.4V345.6h-182.4z"/><circle cx="139.149" cy="370.133" r="8.533" fill="#344a5e"/><path d="M495.416 448H17.549c-9.6 0-17.067-8.533-17.067-18.133S7.949 412.8 17.549 412.8h476.8c9.6 0 17.067 7.467 17.067 17.067 1.067 9.6-6.4 18.133-16 18.133z" fill="#f3705a"/><path fill="#f05540" d="M41.016 448h429.867v64H41.016z"/><path d="M459.149 150.4c-2.133-43.733-38.4-77.867-82.133-77.867s-80 34.133-82.133 77.867h164.266z" fill="#415a6b"/><path d="M346.083 150.4c1.067 16 13.867 29.867 30.933 29.867 17.067 0 29.867-12.8 30.933-29.867h-61.866z" fill="#ffd15c"/><path fill="#415a6b" d="M366.349 0h21.333v83.2h-21.333z"/><path d="M381.283 195.2v10.667c0 2.133-2.133 4.267-4.267 4.267s-4.267-2.133-4.267-4.267V195.2c0-2.133 2.133-4.267 4.267-4.267s4.267 2.134 4.267 4.267zm23.466-8.533l5.333 8.533c1.067 2.133 0 4.267-1.067 5.333-2.133 1.067-4.267 0-5.333-1.067l-5.333-8.533c-1.067-2.133 0-4.267 1.067-6.4 1.067 0 4.267 0 5.333 2.134zm14.934-18.134l8.533 5.333c2.133 1.067 3.2 4.267 1.067 5.333-2.133 1.067-4.267 3.2-5.333 1.067l-8.533-5.333c-2.133-1.067-3.2-4.267-2.133-6.4 2.132-1.066 4.265-2.133 6.399 0zM338.616 176l-8.533 5.333c-2.133 1.067-4.267 0-5.333-1.067-1.067-1.067 0-4.267 1.067-5.333l8.533-5.333c2.133-1.067 4.267 0 6.4 1.067 2.133 1.066-.001 3.2-2.134 5.333zm19.2 14.933l-5.333 9.6c-1.067 2.133-4.267 3.2-5.333 1.067-2.133-1.067-3.2-4.267-1.067-5.333l5.333-8.533c1.067-2.133 4.267-3.2 6.4-2.133 0 1.066 1.067 3.199 0 5.332z" fill="#ffd15c"/></svg>