<svg xmlns="http://www.w3.org/2000/svg" viewBox="0 0 496 496" width="512" height="512"><path data-original="#FFA64D" data-old_color="#FFA64D" fill="#ffcb58" d="M64 34.344h160v112H64zm264 136h104v104H328zm0 200l-8 8v-56h56l-8 8 72 72-40 40z"/><path d="M464 18.344v-16H32v16H0v352h271.992v-16H16v-320h16v304h240v-16h-16v-304h192v304h-8v16h24v-304h16v320h-16v16h32v-352h-32zm-224 304H48v-304h192v304z" data-original="#333333" class="active-path" data-old_color="#333333" fill="#2e3b48"/><path data-original="#333333" class="active-path" data-old_color="#333333" fill="#2e3b48" d="M64 226.344h160v16H64zm0-32h160v16H64zm0-32h160v16H64zm0 96h160v16H64zm144 32h16v16h-16zm-144 0h128v16H64zm208-256h160v16H272zm0 32h160v16H272zm144 32h16v16h-16zm-144 0h128v16H272zm56 144c30.872 0 56-25.128 56-56s-25.128-56-56-56-56 25.128-56 56 25.128 56 56 56zm0-96c22.056 0 40 17.944 40 40s-17.944 40-40 40-40-17.944-40-40 17.944-40 40-40zm115.312 144H288v155.312l32-32 80 80 91.312-91.312-80-80 32-32zm25.376 112L400 471.032l-80-80-16 16V306.344h100.688l-16 16 80 80z"/></svg>