<svg height="472pt" viewBox="-4 0 472 472" width="472pt" xmlns="http://www.w3.org/2000/svg"><path d="M464 96v208H0V96c0-17.672 14.328-32 32-32h400c2.422.02 4.832.29 7.2.8 14.527 3.352 24.808 16.294 24.8 31.2zm0 0" fill="#78b9eb"/><path d="M464 96v208H200L439.2 64.8c14.527 3.352 24.808 16.294 24.8 31.2zm0 0" fill="#5aaae7"/><path d="M320 440v24H144v-24a8 8 0 018-8h160a8 8 0 018 8zm0 0" fill="#787680"/><path d="M296 432H168l8-64h112zm0 0" fill="#898890"/><path d="M464 304v32c0 17.672-14.328 32-32 32H32c-17.672 0-32-14.328-32-32v-32zm0 0" fill="#acabb1"/><path d="M290 384H174l2-16h112zm0 0" fill="#787680"/><path d="M361.52 176H328l-8 24 8 24h33.52a47.909 47.909 0 01-83.04 0h-92.96a47.909 47.909 0 01-83.04 0H136l8-24-8-24h-33.52a47.909 47.909 0 0183.04 0h92.96a47.909 47.909 0 0183.04 0zm0 0" fill="#acabb1"/><path d="M288 136H176c0-30.93 25.07-56 56-56s56 25.07 56 56zm0 0" fill="#ff6243"/><path d="M331.762 106.8a100.924 100.924 0 00-8.563-20.8l16.48-22 5.442-7.2L311.2 22.88 282 44.8a100.924 100.924 0 00-20.8-8.563L256 0h-48l-5.2 36.238a100.924 100.924 0 00-20.8 8.563l-29.2-21.922L118.88 56.8l5.44 7.2 16.48 22a100.924 100.924 0 00-8.562 20.8L96 112v24h80c0-30.93 25.07-56 56-56s56 25.07 56 56h80v-24zm0 0" fill="#ffa733"/><path d="M120 456h224v16H120zm0 0" fill="#57565c"/><path d="M416 328h16v16h-16zm0 0" fill="#787680"/><path d="M224 24h16v16h-16zm-76.848 38.46l11.313-11.312 11.312 11.313-11.312 11.316zm147.075.005l11.312-11.313 11.316 11.313L305.54 73.78zm0 0" fill="#ee8700"/></svg>