<svg xmlns="http://www.w3.org/2000/svg" viewBox="0 0 512 512"><path d="M325.867 0H104C93.333 0 83.733 8.533 83.733 20.267v390.4h342.4V101.333L325.867 0z" fill="#e8eae9"/><path d="M124.267 146.133h257.067v30.933H124.267zm0-71.466h173.867V105.6H124.267zM427.2 101.333h-78.933c-11.733 0-22.4-9.6-22.4-22.4V0L427.2 101.333z" fill="#ced6e0"/><path d="M496.533 200.533v286.933C496.533 501.333 485.867 512 472 512H40c-13.867 0-24.533-10.667-24.533-24.533V146.133c0-13.867 10.667-24.533 24.533-24.533h64c7.467 0 14.933 3.2 19.2 9.6l35.2 44.8H472c12.8-1.067 24.533 10.667 24.533 24.533z" fill="#ffd15c"/><g fill="#fff"><path d="M253.333 434.133V416l-18.133-5.333c-1.067-2.133-2.133-4.267-2.133-6.4l8.533-16-12.8-12.8-16 8.533c-2.133-1.067-4.267-2.133-6.4-2.133l-6.4-19.2h-19.2l-5.333 18.133c-2.133 1.067-4.267 2.133-6.4 2.133l-16-8.533-12.8 12.8 8.533 16c-1.067 2.133-2.133 4.267-2.133 6.4l-18.133 6.4v18.133l18.133 5.333c1.067 2.133 2.133 4.267 2.133 6.4l-8.533 16 12.8 12.8 16-8.533c2.133 1.067 4.267 2.133 6.4 2.133L180.8 486.4h18.133l5.333-18.133c2.133-1.067 4.267-2.133 6.4-2.133l16 8.533 12.8-12.8-8.533-16c1.067-2.133 2.133-4.267 2.133-6.4l20.267-5.334zM190.4 455.467c-17.067 0-29.867-13.867-29.867-29.867 0-17.067 13.867-29.867 29.867-29.867 17.067 0 29.867 13.867 29.867 29.867 1.066 16-12.8 29.867-29.867 29.867z"/><circle cx="190.4" cy="424.533" r="17.067"/></g><g fill="#f05540"><path d="M371.733 345.6l7.467-24.533-21.333-13.867c0-3.2 0-6.4-1.067-9.6l18.133-18.133-11.733-22.4-24.533 4.267c-2.133-2.133-4.267-4.267-7.467-6.4v-25.6l-24.533-7.467L292.8 243.2c-3.2 0-6.4 0-9.6 1.067L266.133 227.2l-22.4 11.733L248 263.467c-2.133 2.133-4.267 4.267-6.4 7.467H216l-7.467 24.533 21.333 13.867c0 3.2 0 6.4 1.067 9.6L212.8 337.067l11.733 22.4 24.533-4.267c2.133 2.133 4.267 4.267 7.467 6.4v25.6l24.533 7.467 13.867-21.333c3.2 0 6.4 0 9.6-1.067l18.133 18.133 22.4-11.733L340.8 352c2.133-2.133 4.267-4.267 6.4-7.467l24.533 1.067zm-89.6 1.067c-21.333-6.4-34.133-29.867-26.667-51.2 6.4-21.333 29.867-34.133 51.2-26.667C328 275.2 340.8 298.667 333.333 320c-6.4 21.333-29.866 34.133-51.2 26.667z"/><circle cx="294.933" cy="308.267" r="23.467"/></g></svg>