<svg xmlns="http://www.w3.org/2000/svg" viewBox="0 0 496 496"><path fill="#1876ce" d="M264.624 96c-70.928 0-132.272 45.648-152.648 113.576l-5.752 19.152C100.136 249.04 88.992 267.704 74 282.696l-7.656 7.656A7.933 7.933 0 0064 296c0 2.12.84 4.16 2.344 5.656C90.624 325.944 104 358.232 104 392.568 104 418.72 125.272 440 151.432 440a73.844 73.844 0 0034.944-8.816L200 423.856V488c0 4.416 3.576 8 8 8h136c4.424 0 8-3.584 8-8v-58.808c0-27.008 10.512-52.4 29.616-71.504C408.944 330.36 424 294.024 424 255.376 424 167.496 352.504 96 264.624 96zM304 480h-88v-64.76l59.792-32.192-7.584-14.088-89.424 48.144A57.83 57.83 0 01151.432 424C134.104 424 120 409.904 120 392.568c0-35.936-13.024-69.872-36.832-96.416L85.32 294c16.856-16.864 29.392-37.848 36.24-60.68l5.752-19.152C145.632 153.056 200.824 112 264.624 112c13.664 0 26.848 2.04 39.376 5.632V168h-9.536l-7.416 19.752-19.208-8.728-24.816 24.816 8.736 19.208-19.76 7.408v35.088l19.76 7.408-8.736 19.208 24.816 24.816 19.208-8.728L294.464 328H304v152zm1.544-168l-6.648-17.72-3.432-1.272a48.21 48.21 0 01-3.584-1.48l-3.328-1.536-17.24 7.832-9.128-9.128 7.832-17.24-1.544-3.336a46.588 46.588 0 01-1.472-3.576l-1.272-3.44L248 254.456v-12.912l17.728-6.648 1.272-3.44a43.58 43.58 0 011.472-3.576l1.544-3.336-7.832-17.24 9.128-9.128 17.24 7.832 3.328-1.536a48.21 48.21 0 013.584-1.48l3.432-1.272 6.64-17.72h12.92l6.648 17.72 3.432 1.272a48.21 48.21 0 013.584 1.48l3.328 1.536 17.24-7.832 9.128 9.128-7.832 17.24 1.544 3.336a46.588 46.588 0 011.472 3.576l1.272 3.44L376 241.544v12.912l-17.728 6.648-1.272 3.44a43.58 43.58 0 01-1.472 3.576l-1.544 3.336 7.832 17.24-9.128 9.128-17.24-7.832-3.328 1.536a48.21 48.21 0 01-3.584 1.48l-3.432 1.272-6.64 17.72h-12.92zm64.76 34.384C348.176 368.496 336 397.904 336 429.192V480h-16V328h9.536l7.416-19.752 19.208 8.728 24.816-24.816-8.736-19.208 19.76-7.408v-35.088l-19.76-7.408 8.736-19.208-24.816-24.816-19.208 8.728L329.536 168H320v-44.856c51.64 21.704 88 72.792 88 132.232 0 34.376-13.392 66.696-37.696 91.008zM409.888 0H40C17.944 0 0 17.944 0 40s17.944 40 40 40h369.888l80-40-80-40zM72 64H40c-13.232 0-24-10.768-24-24s10.768-24 24-24h32v48zm328-32H120v16h280v16H88V48h16V32H88V16h312v16zm16-11.056L454.112 40 416 59.056V20.944z"/><path fill="#1876ce" d="M312 216c-17.648 0-32 14.352-32 32s14.352 32 32 32 32-14.352 32-32-14.352-32-32-32zm0 48c-8.824 0-16-7.176-16-16s7.176-16 16-16 16 7.176 16 16-7.176 16-16 16zm160 184c-13.232 0-24 10.768-24 24s10.768 24 24 24 24-10.768 24-24-10.768-24-24-24zm0 32c-4.416 0-8-3.592-8-8 0-4.408 3.584-8 8-8s8 3.592 8 8c0 4.408-3.584 8-8 8zM24 304c-13.232 0-24 10.768-24 24s10.768 24 24 24 24-10.768 24-24-10.768-24-24-24zm0 32c-4.416 0-8-3.592-8-8 0-4.408 3.584-8 8-8s8 3.592 8 8c0 4.408-3.584 8-8 8zm-8 48h16v16H16zm0 48h16v16H16zm0 48h16v16H16zm448-176h16v16h-16zm0 48h16v16h-16zm0 48h16v16h-16z"/></svg>