<svg height="512" viewBox="0 0 58 58" width="512" xmlns="http://www.w3.org/2000/svg"><g fill="none"><path d="M58 38v8H37a29.95 29.95 0 011.24-4h2.2c1.207 0 2.2-1.8 2.2-4z" fill="#c03a2b"/><path d="M58 37v3H44v-4h13a1 1 0 011 1z" fill="#393f4a"/><path d="M47 4h7v12h-7z" fill="#f5efca"/><path d="M42 4h6v12h-6z" fill="#285680"/><path d="M58 5v10a1 1 0 01-1 1h-4V4h4a1 1 0 011 1z" fill="#c03a2b"/><path d="M42 20h15a1 1 0 011 1v10a1 1 0 01-1 1H42z" fill="#f5efca"/><circle cx="51" cy="26" fill="#c03a2b" r="2"/><path d="M5 .09l4 42a5.832 5.832 0 00-3.24 1.67C4.67 44.84 0 46.34 0 48V6A5.99 5.99 0 015 .09z" fill="#c03a2b"/><path d="M44 48v3a3.009 3.009 0 01-3 3h-1c-.16-.22-2.86-1.45-3-1.68a11.855 11.855 0 01-.83-1.67 9.689 9.689 0 01-.72-3.65z" fill="#b19046"/><path d="M44 2v38c0 1.1-.9 3-2 3l-36-.09a5.131 5.131 0 00-.99.09H5V.09C5.33.03 5.665 0 6 0h36a2.006 2.006 0 012 2z" fill="#f0c419"/><path d="M40 53.625c-35.47 0-33.507.031-34.1-.056a5.576 5.576 0 01-.424-11.11c3.895 0-13.42-.084 34.526-.084A9.009 9.009 0 0040 53.625z" fill="#f5efca"/><path d="M22 49H5a1 1 0 010-2h17a1 1 0 010 2z" fill="#cbb292"/><path d="M36.94 22.75a13.565 13.565 0 01-4.68 5.8v-.01a12.615 12.615 0 00-3.05-.62 13.355 13.355 0 00-4.15.27 9.721 9.721 0 00-4.16 2.32 13.437 13.437 0 01-3.59-1.58v-.01c.212-.66.37-1.335.47-2.02a11.868 11.868 0 00-.27-2.97c-.23-2.06 1.19-3.66 1.36-5.65a1.625 1.625 0 00-1.05-1.71c-.99-.43-2.12-.45-3.1-.85a4.686 4.686 0 01-2.6-3.61 13.423 13.423 0 012.32-3.61 24.758 24.758 0 006.12-.7 6.619 6.619 0 004.83-3.77 13.45 13.45 0 015.1 1.37v.01l-.01.01a10.385 10.385 0 01-4.17 2.97 4.283 4.283 0 00-2.53 2.79c-.33 1.83 1.43 2.94 2.97 3.28 1.83.41 3.47 1.43 3.48 3.49a7.32 7.32 0 01-.56 2.52 9.688 9.688 0 00-.89 3 1.92 1.92 0 002.39 1.91 5.593 5.593 0 002.33-.97c.08-.05.16-.1.24-.16a9.469 9.469 0 013.2-1.5z" fill="#2fa8cc"/><path d="M17.51 23.93c.215.975.305 1.973.27 2.97-.1.685-.258 1.36-.47 2.02v.01a13.513 13.513 0 01-5.19-16.82 4.686 4.686 0 002.6 3.61c.98.4 2.11.42 3.1.85.702.26 1.136.966 1.05 1.71-.17 1.99-1.59 3.59-1.36 5.65z" fill="#4fba6f"/><path d="M25.39 4.03a6.619 6.619 0 01-4.83 3.77 24.758 24.758 0 01-6.12.7 13.462 13.462 0 0110.95-4.47zm6.87 24.51v.01a13.5 13.5 0 01-11.36 1.96 9.721 9.721 0 014.16-2.32 13.355 13.355 0 014.15-.27c1.038.08 2.063.288 3.05.62z" fill="#b0d3f0"/><path d="M38 17.5c0 1.803-.36 3.588-1.06 5.25a9.469 9.469 0 00-3.2 1.5c-.08.06-.16.11-.24.16a5.593 5.593 0 01-2.33.97 1.92 1.92 0 01-2.39-1.91 9.688 9.688 0 01.89-3 7.32 7.32 0 00.56-2.52c-.01-2.06-1.65-3.08-3.48-3.49-1.54-.34-3.3-1.45-2.97-3.28a4.283 4.283 0 012.53-2.79 10.385 10.385 0 004.17-2.97l.01-.01V5.4A13.5 13.5 0 0138 17.5z" fill="#4fba6f"/><path d="M33 36H16a1 1 0 010-2h17a1 1 0 010 2z" fill="#f29c1f"/><path d="M5.35 44.06C5.8 43.97 3.432 44 41 44a3.009 3.009 0 003-3v-1a2.006 2.006 0 01-2 2H6a5.94 5.94 0 00-4.32 10.06A6.385 6.385 0 006.15 54H41a3.009 3.009 0 003-3v-3a1 1 0 00-2 0v3a1 1 0 01-1 1H6.24A4.183 4.183 0 012 47.85a3.994 3.994 0 013.35-3.79zm34.077 9.04a4.72 4.72 0 01-.11-.2c.037.067.071.133.11.2z" fill="#e64c3c"/><path d="M15.553 57.893l-2.106-1.053a1 1 0 00-.894 0l-2.106 1.053A1 1 0 019 57v-9h8v9a1 1 0 01-1.447.893z" fill="#c03a2b"/><path d="M58 44v3a1 1 0 01-1 1H38c0-1.38.296-2.745.87-4z" fill="#f0c419"/></g></svg>