<svg xmlns="http://www.w3.org/2000/svg" viewBox="0 0 512 512"><path d="M452.267 482.133H59.733c-18.133 0-32-13.867-32-32V166.4c0-18.133 13.867-32 32-32h392.533c18.133 0 32 13.867 32 32v282.667c.001 18.133-14.933 33.066-31.999 33.066z" fill="#415a6b"/><path fill="#8ad7f8" d="M59.733 166.4h392.533v253.867H59.733z"/><path d="M0 451.2C0 485.333 26.667 512 60.8 512h390.4c33.067 0 60.8-26.667 60.8-60.8H0z" fill="#344a5e"/><path d="M395.733 0H116.267c-18.133 0-32 13.867-32 32v389.333H428.8V32c-1.067-18.133-14.933-32-33.067-32z" fill="#f3f3f3"/><path d="M121.6 188.8h268.8v17.067H121.6zm0-50.133h268.8v17.067H121.6zm0 100.266h100.267V256H121.6zm0-149.333h268.8v17.067H121.6z" fill="#ced6e0"/><path fill="#ffd15c" d="M121.6 39.467h168.533v17.067H121.6z"/><path fill="#f3705a" d="M400 343.467L307.2 284.8 320 393.6l19.2-25.6 16 25.6 28.8-18.133-16-25.6z"/><path d="M316.8 241.067c-2.133 0-4.267 1.067-5.333 3.2l-3.2 13.867c0 2.133 1.067 4.267 3.2 5.333 2.133 0 4.267-1.067 5.333-3.2L320 246.4c0-2.133-1.067-4.267-3.2-5.333zm-27.733 7.466c-1.067-2.133-4.267-2.133-6.4-1.067-2.133 1.067-2.133 4.267-1.067 6.4l7.467 11.733c1.067 2.133 4.267 2.133 6.4 1.067 2.133-1.067 2.133-4.267 1.067-6.4l-7.467-11.733zm-3.2 32c0-2.133-1.067-4.267-3.2-5.333L268.8 272c-2.133 0-4.267 1.067-5.333 3.2 0 2.133 1.067 4.267 3.2 5.333l13.867 3.2c2.133 0 4.266-1.066 5.333-3.2zm2.133 16c-1.067-2.133-4.267-2.133-6.4-1.067l-11.733 7.467c-2.133 1.067-2.133 4.267-1.067 6.4 1.067 2.133 4.267 2.133 6.4 1.067l11.733-7.467c2.134-2.133 2.134-4.266 1.067-6.4zm13.867 9.6c-2.133 0-4.267 1.067-5.333 3.2l-3.2 13.867c0 2.133 1.067 4.267 3.2 5.333 2.133 0 4.267-1.067 5.333-3.2l3.2-13.867c1.066-2.133-1.067-4.266-3.2-5.333zm44.8-17.066l-13.867-3.2c-2.133 0-4.267 1.067-5.333 3.2 0 2.133 1.067 4.267 3.2 5.333l13.867 3.2c2.133 0 4.267-1.067 5.333-3.2 1.066-2.133-1.067-4.267-3.2-5.333zm-2.134-27.734c-1.067-2.133-4.267-2.133-6.4-1.067l-11.733 7.467c-2.133 1.067-2.133 4.267-1.067 6.4 1.067 2.133 4.267 2.133 6.4 1.067l11.733-7.467c1.067-2.133 2.134-4.266 1.067-6.4z" fill="#ffd15c"/></svg>