<svg xmlns="http://www.w3.org/2000/svg" viewBox="0 0 498.752 498.752"><path fill="#1876ce" d="M480.12 435.248c-6.088-20.272-22.8-35.216-43.624-39L384 386.696v-4.144c19.632-11.4 34.008-30.848 38.488-53.84C437.032 325.704 448 312.8 448 297.376V218.36a50.169 50.169 0 00-35.84-48.136l-4-4c-18.608-18.608-43.344-28.848-69.656-28.848-54.312 0-98.504 44.184-98.504 98.504v61.496c0 15.424 10.968 28.328 25.512 31.336C270 351.704 284.368 371.16 304 382.552v4.144l-52.496 9.544c-20.824 3.792-37.536 18.736-43.624 39.008l-18.632 62.128h309.504l-18.632-62.128zM424 311.152V283.6c4.76 2.776 8 7.88 8 13.776s-3.24 11-8 13.776zm-160 0c-4.76-2.776-8-7.88-8-13.776s3.24-11 8-13.776v27.552zm0-53.776v9.136a31.73 31.73 0 00-8 3.312V235.88c0-45.488 37.008-82.504 82.504-82.504 22.032 0 42.76 8.584 58.344 24.168l7.056 7.064 2.152.528A34.19 34.19 0 01432 218.36v51.464a31.44 31.44 0 00-8-3.312v-9.136h-25.368c-21.68 0-42.4-10.352-55.4-27.688l-6.36-8.496-15.896 15.904c-13.088 13.08-30.48 20.28-48.976 20.28h-8zm16 56v-40.368c19.752-1.832 38.08-10.4 52.288-24.6l3.112-3.112c16.04 17.704 39.144 28.08 63.232 28.08H408v40c0 35.288-28.712 64-64 64s-64-28.712-64-64zm40.68 76.512c7.384 2.256 15.208 3.488 23.32 3.488s15.936-1.232 23.32-3.488L344 407.376l-23.32-17.488zm11.144 28.352l-16.328 16.32-10.592-31.768 5.096-.92 21.824 16.368zM378 401.872l5.088.928-10.592 31.768-16.328-16.32L378 401.872zm-167.248 79.504l12.464-41.528c4.344-14.48 16.28-25.16 31.16-27.856l34.64-6.296 19.496 58.496L344 428.688l35.496 35.496 19.496-58.496 34.64 6.296c14.872 2.704 26.816 13.384 31.16 27.856l12.456 41.536H210.752zM208 130.728V80.024l-21.712-5.784a88.989 88.989 0 00-2.096-5.016l11.272-19.472-35.84-35.84-19.472 11.272a88.549 88.549 0 00-5-2.096l-5.808-21.712H78.656l-5.8 21.72a86.143 86.143 0 00-5 2.096l-19.472-11.28-35.84 35.84 11.272 19.472a83.572 83.572 0 00-2.104 5.016L0 80.024v50.704l21.712 5.784a83.572 83.572 0 002.104 5.016L12.544 161l35.84 35.84 19.472-11.272a88.549 88.549 0 005 2.096l5.8 21.712h50.688l5.8-21.72a86.143 86.143 0 005-2.096l19.472 11.272 35.84-35.84-11.272-19.472a83.43 83.43 0 002.096-5.016l21.72-5.776zm-32.544 27.64l-18.464 18.472-16.28-9.432-3.888 1.992c-3.568 1.832-7.2 3.352-10.784 4.512l-4.152 1.336-4.832 18.128H90.944l-4.832-18.128-4.152-1.336a73.72 73.72 0 01-10.784-4.512l-3.888-1.992-16.28 9.432-18.464-18.472 9.424-16.272-1.992-3.888c-1.848-3.592-3.36-7.224-4.504-10.784l-1.336-4.16L16 118.432V92.32l18.136-4.832 1.336-4.16c1.144-3.552 2.656-7.184 4.504-10.784l1.992-3.888-9.424-16.272 18.464-18.472 16.28 9.432 3.888-1.992c3.568-1.832 7.2-3.352 10.784-4.512l4.152-1.336 4.832-18.128h26.112l4.832 18.128 4.152 1.336a73.72 73.72 0 0110.784 4.512l3.888 1.992 16.28-9.432 18.464 18.472-9.424 16.272 1.992 3.888c1.848 3.592 3.36 7.224 4.504 10.784l1.336 4.16L192 92.32v26.112l-18.136 4.832-1.336 4.16c-1.144 3.552-2.656 7.184-4.504 10.784l-1.992 3.888 9.424 16.272z"/><path fill="#1876ce" d="M148.944 138.792C156.176 129.08 160 117.528 160 105.376c0-30.872-25.12-56-56-56s-56 25.128-56 56 25.12 56 56 56c12.48 0 24.28-4.008 34.136-11.6l-9.76-12.672c-7.04 5.416-15.464 8.272-24.376 8.272-22.056 0-40-17.944-40-40s17.944-40 40-40 40 17.944 40 40c0 8.68-2.728 16.928-7.888 23.856l12.832 9.56zm333.4-39.072L472 110.064V81.376c0-44.112-35.888-80-80-80h-48v16h48c35.288 0 64 28.712 64 64v28.688L445.656 99.72l-11.312 11.312L464 140.688l29.656-29.656-11.312-11.312zM40 417.376v-28.688l10.344 10.344 11.312-11.312L32 358.064 2.344 387.72l11.312 11.312L24 388.688v28.688c0 44.112 35.888 80 80 80v-16c-35.288 0-64-28.712-64-64zm-40-176h208v16H0zm0 64h208v16H0zm0-32h96v16H0zm158 0h-46v16h96v-16zm154-272h16v16h-16zm-32 0h16v16h-16zm-160 480h16v16h-16zm32 0h16v16h-16z"/></svg>