<svg xmlns="http://www.w3.org/2000/svg" viewBox="0 0 512.354 512.354"><path d="M422.667 359.957l-62.933 62.933c-6.4 6.4-18.133 6.4-24.533 0l-1.067-1.067c-6.4-6.4-6.4-18.133 0-24.533l62.933-62.933c6.4-6.4 18.133-6.4 24.533 0l1.067 1.067c7.466 6.4 7.466 18.133 0 24.533z" fill="#344a5e"/><path d="M63.2 63.424c-84.267 84.267-84.267 220.8 0 305.067s220.8 84.267 305.067 0 84.267-220.8 0-305.067-220.8-84.267-305.067 0zM327.733 326.89c-61.867 61.867-161.067 61.867-221.867 0-60.8-60.8-60.8-161.067 0-221.867s161.067-61.867 221.867 0 60.8 161.067 0 221.867z" fill="#415a6b"/><path d="M482.4 397.29l-59.733-36.267L360.8 422.89l36.267 59.733c21.333 34.133 68.267 39.467 97.067 11.733 28.799-28.799 22.399-75.732-11.734-97.066z" fill="#ffd15c"/><g fill="#f3705a"><path d="M327.733 189.29h8.533v69.333h-8.533z"/><path d="M336.267 258.624c-3.2-3.2-5.333-3.2-8.533 0l-7.467 12.8c8.533 3.2 17.067 3.2 24.533 0l-8.533-12.8z"/></g><path d="M295.733 305.557V189.29H136.8v116.267c53.333-17.067 105.6-17.067 158.933 0z" fill="#f05540"/><path fill="#f3705a" d="M349.067 189.29l-133.334 62.934L83.467 189.29l132.266-61.866z"/></svg>