<svg xmlns="http://www.w3.org/2000/svg" viewBox="0 0 496 496"><path fill="#1876ce" d="M448 107.312L483.712 71.6C491.64 63.68 496 53.152 496 41.936 496 18.816 477.184 0 454.056 0c-11.192 0-21.728 4.36-29.656 12.28L372.68 64H48v72H0v320h200.664c3.824 22.672 23.592 40 47.336 40s43.512-17.328 47.336-40H496V136h-48v-28.688zM435.712 23.6c4.904-4.904 11.424-7.6 18.344-7.6C468.36 16 480 27.632 480 41.936c0 6.936-2.696 13.448-7.6 18.344L460 72.688 423.312 36l12.4-12.4zM412 47.312L448.688 84 436 96.688 399.312 60 412 47.312zM355.312 200L432 123.312V384H256v-93.752l12.088-3.024L339.312 216H416v-16h-60.688zM388 71.312L400.688 84 390 94.688 401.312 106 412 95.312 424.688 108 264 268.688 251.312 256l138.536-138.536-11.312-11.312L240 244.688 227.312 232 388 71.312zM248.352 275.664L211 285.008l9.336-37.36 28.016 28.016zM256 80h100.68L256 180.68V80zM64 80h176v116.68l-31.224 31.224L189 306.992l51-12.744V384H64V80zm416 72v288H280v8c0 17.648-14.352 32-32 32s-32-14.352-32-32v-8H16V152h32v248h400V152h32z"/><path fill="#1876ce" d="M80 104h144v16H80zm0 96h112v16H80zm0 32h96v16H80zm0 32h96v16H80zm0 32h96v16H80zm256-64h80v16h-80zm0 32h80v16h-80zm-64 32h144v16H272zm128 32h16v16h-16zm-128 0h112v16H272zm-192 0h144v16H80zm80-192h64v16h-64zm-80 0h64v16H80zm80 32h64v16h-64zm-80 0h64v16H80z"/></svg>