<svg xmlns="http://www.w3.org/2000/svg" viewBox="0 0 498.752 498.752"><path fill="#1876ce" d="M251.504 396.24c-20.832 3.792-37.536 18.736-43.624 39.008l-18.632 62.128h309.504l-18.632-62.128c-6.088-20.272-22.8-35.216-43.624-39L384 386.696v-4.144c19.632-11.4 34-30.848 38.488-53.84C437.032 325.704 448 312.8 448 297.376V218.36a50.171 50.171 0 00-35.832-48.136l-4-4C396.744 154.8 383 146.56 368 141.88V57.376c0-13.232-10.768-24-24-24H229.2c-6.608-18.616-24.344-32-45.2-32s-38.592 13.384-45.2 32H24c-13.232 0-24 10.768-24 24v240c0 13.232 10.768 24 24 24h96v32h-16v16h160v-16h-16v-32h3.056c4.072 3.56 8.968 6.2 14.456 7.336 4.488 22.992 18.864 42.44 38.488 53.84v4.144l-52.496 9.544zM424 311.152v-27.544c4.76 2.776 8 7.88 8 13.776s-3.24 10.992-8 13.768zM232 73.376v-24h112c4.416 0 8 3.592 8 8V138.4c-4.44-.608-8.928-1.024-13.496-1.024-24.856 0-47.528 9.328-64.88 24.568l-4.376-15.32c-4.216-14.768-16.736-25.944-31.888-28.472L216 114.6v-5.632c10.216-9.128 16-21.888 16-35.592zm0 280h-96v-32h96v32zm8-117.496v21.496h-16v16h16v24c0 2.776.464 5.424 1.136 8H24c-4.416 0-8-3.584-8-8v-24h192v-16H16v-200c0-4.408 3.584-8 8-8h112v24c0 13.704 5.784 26.464 16 35.592v5.632l-21.36 3.56c-15.16 2.52-27.672 13.696-31.888 28.464l-13.36 46.752h164.392C243.576 206.264 240 220.648 240 235.88zm-133.392-58.512l7.528-26.352c2.52-8.856 10.04-15.56 19.128-17.08L168 128.152v-26.936l-3.176-2.4C156.672 92.656 152 83.384 152 73.376v-24c0-17.648 14.352-32 32-32s32 14.352 32 32v24c0 10.008-4.672 19.28-12.824 25.44l-3.176 2.4v26.936l34.736 5.792c9.088 1.512 16.6 8.216 19.128 17.08l7 24.456c-.488.624-.944 1.256-1.416 1.888h-152.84zM264 311.144c-4.76-2.768-8-7.872-8-13.768s3.24-11 8-13.776v27.544zm0-53.768v9.136a31.44 31.44 0 00-8 3.312V235.88c0-45.496 37.016-82.504 82.504-82.504 22.048 0 42.768 8.584 58.344 24.168l7.056 7.056 2.16.536A34.199 34.199 0 01432 218.36v51.464a31.44 31.44 0 00-8-3.312v-9.136h-25.376c-21.68 0-42.392-10.352-55.4-27.688l-6.352-8.496-15.904 15.904c-13.08 13.08-30.472 20.28-48.968 20.28h-8zm16 56v-40.368c19.752-1.832 38.088-10.408 52.28-24.608l3.112-3.112c16.056 17.704 39.16 28.08 63.232 28.08H408v40c0 35.288-28.712 64-64 64s-64-28.704-64-63.992zm40.672 76.512a79.76 79.76 0 0046.656 0L344 407.376l-23.328-17.488zm11.152 28.352l-16.32 16.32-10.592-31.768 5.088-.92 21.824 16.368zm46.184-16.36l5.088.92-10.592 31.768-16.32-16.32 21.824-16.368zm-69.496 62.312L344 428.688l35.504 35.504L399 405.696l34.64 6.296c14.864 2.696 26.808 13.376 31.152 27.856l12.456 41.528H210.752l12.464-41.528c4.344-14.48 16.28-25.16 31.16-27.856l34.64-6.296 19.496 58.496z"/><path fill="#1876ce" d="M256 65.376h16v16h-16zm32 0h16v16h-16zm32 0h16v16h-16zm-288 160h16v16H32zm32 0h16v16H64zm32 0h16v16H96z"/></svg>