<svg xmlns="http://www.w3.org/2000/svg" viewBox="0 0 496.304 496.304"><path fill="#1876ce" d="M456.152 88.304h-56v-32c0-8.288-5.576-15.632-13.568-17.848L248.152 0 109.72 38.456c-7.992 2.216-13.568 9.56-13.568 17.848 0 8.288 5.576 15.632 13.568 17.848l18.432 5.12v9.032h-88c-22.056 0-40 17.944-40 40v280c0 22.056 17.944 40 40 40h96v32h-32v16h288v-16h-32v-32h96c22.056 0 40-17.944 40-40v-280c0-22.056-17.944-40-40-40zm-64 88c4.416 0 8 3.592 8 8v40h-16v-40c0-4.408 3.584-8 8-8zM114 58.736c-1.08-.304-1.848-1.304-1.848-2.432s.768-2.128 1.848-2.432l134.152-37.264 134.152 37.264c1.08.304 1.848 1.304 1.848 2.432s-.768 2.128-1.848 2.432L248.152 96 114 58.736zm238.152 24.976v30.552l-104 29.72-104-29.712V83.72l104 28.888 104-28.896zm-8 396.592h-192v-32h192v32zm136-72c0 13.232-10.768 24-24 24h-416c-13.232 0-24-10.768-24-24v-24h464v24zm0-40h-464v-240c0-13.232 10.768-24 24-24h88v22.032l120 34.288 120-34.288V79.272l16-4.448v86.952c-9.288 3.312-16 12.112-16 22.528v56h48v-56c0-10.416-6.712-19.216-16-22.528v-57.472h56c13.232 0 24 10.768 24 24v240z"/><path fill="#1876ce" d="M224.152 217.352v93.896l70.424-46.944-70.424-46.952zm16 29.904l25.576 17.048-25.576 17.056v-34.104z"/><path fill="#1876ce" d="M248.152 176.304c-48.52 0-88 39.48-88 88s39.48 88 88 88 88-39.48 88-88-39.48-88-88-88zm0 160c-39.704 0-72-32.296-72-72 0-39.696 32.296-72 72-72s72 32.304 72 72c0 39.704-32.296 72-72 72zm-48 64h96v16h-96zm184-144h16v16h-16zm-32 0h16v16h-16zm-224 0h16v16h-16zm-32 0h16v16h-16zm-32 0h16v16h-16zm352 0h16v16h-16z"/></svg>