<svg viewBox="1 1 512 512" xmlns="http://www.w3.org/2000/svg"><path d="M512 256c0 118.23-80.145 217.746-189.074 247.16a252.421 252.421 0 01-32.852 6.582 255.2 255.2 0 01-19.695 1.852 257.79 257.79 0 01-50.27-2.09C145.086 498.98 80.49 455.93 41.031 395.066 15.066 355.023 0 307.273 0 256 0 114.613 114.613 0 256 0a259.38 259.38 0 0139.215 2.977c98.629 15.171 178.71 86.625 206.379 180.539C508.364 206.492 512 230.828 512 256zm0 0" fill="#515a6e"/><path d="M501.594 183.516c-6.082-45.297-25.34-87.325-58.242-120.227-39.57-39.57-92.36-59.402-148.137-60.312C223.23 1.809 146.242 32.14 86.184 92.21c-.575.574-1.16 1.16-1.747 1.766-39.714 40.878-96.652 138.043-52.472 156.57 62.683 26.3 92.535 25.871 92.535 52.078 0 36.266-69.11 55.45-83.469 92.441C80.488 455.93 145.086 498.98 220.11 509.504c67.633-2.887 138.332-33.05 194.328-89.035 67.918-67.922 97.825-157.469 87.157-236.953zM234.035 394.793c-18.965 18.965-49.715 18.965-68.68 0-18.964-18.965-18.964-49.715 0-68.68 18.965-18.976 49.715-18.976 68.68 0 18.977 18.965 18.977 49.715 0 68.68zm0 0" fill="#e6e6e6"/><path d="M121.613 218.031c-13.715 0-26.61-5.34-36.308-15.039-9.7-9.699-15.043-22.594-15.043-36.308s5.343-26.61 15.043-36.309c9.699-9.7 22.593-15.04 36.308-15.04s26.61 5.34 36.309 15.04 15.039 22.594 15.039 36.309-5.34 26.609-15.04 36.308c-9.698 9.7-22.593 15.04-36.308 15.04zm0 0" fill="#ccc"/><path d="M162.512 166.684c0 22.586-18.313 40.898-40.899 40.898-22.59 0-40.898-18.312-40.898-40.898 0-22.59 18.308-40.899 40.898-40.899 22.586 0 40.899 18.309 40.899 40.899zm0 0" fill="#ed5972"/><path d="M107.383 195.605a40.737 40.737 0 0021.578 11.317c-12.758 2.316-26.406-1.453-36.27-11.317-15.976-15.976-15.976-41.87 0-57.847 9.864-9.863 23.512-13.637 36.27-11.305a40.663 40.663 0 00-21.578 11.305c-15.965 15.976-15.965 41.87 0 57.847zm0 0" fill="#d8375a"/><path d="M222.645 151.668c-13.715 0-26.61-5.34-36.31-15.04-9.694-9.698-15.038-22.593-15.038-36.308 0-13.718 5.34-26.613 15.039-36.312 9.7-9.695 22.594-15.04 36.309-15.04 13.714 0 26.613 5.344 36.308 15.04 9.7 9.699 15.043 22.594 15.043 36.312 0 13.715-5.344 26.61-15.043 36.309-9.695 9.7-22.594 15.039-36.308 15.039zm0 0" fill="#ccc"/><path d="M263.547 100.32c0 22.586-18.313 40.899-40.902 40.899-22.586 0-40.899-18.313-40.899-40.899 0-22.59 18.313-40.898 40.899-40.898 22.59 0 40.902 18.308 40.902 40.898zm0 0" fill="#f7d65e"/><path d="M349.438 149.906c-13.72 0-26.614-5.344-36.313-15.043-9.695-9.695-15.04-22.59-15.04-36.308 0-13.715 5.345-26.61 15.04-36.309 9.7-9.7 22.594-15.039 36.313-15.039 13.714 0 26.609 5.34 36.308 15.04 9.695 9.698 15.04 22.593 15.04 36.308s-5.34 26.613-15.04 36.308c-9.7 9.703-22.594 15.043-36.309 15.043zm0 0" fill="#ccc"/><path d="M390.336 98.559c0 22.586-18.313 40.898-40.899 40.898-22.59 0-40.902-18.312-40.902-40.898 0-22.59 18.313-40.903 40.903-40.903 22.585 0 40.898 18.313 40.898 40.903zm0 0" fill="#49aab7"/><path d="M425.379 248.828c-13.715 0-26.61-5.344-36.309-15.039-9.699-9.7-15.039-22.594-15.039-36.312 0-13.715 5.34-26.61 15.04-36.309 9.699-9.7 22.593-15.04 36.308-15.04s26.61 5.34 36.308 15.04 15.04 22.594 15.04 36.309c0 13.718-5.34 26.613-15.04 36.312-9.699 9.695-22.593 15.04-36.308 15.04zm0 0" fill="#ccc"/><path d="M466.277 197.48c0 22.586-18.308 40.899-40.898 40.899s-40.899-18.313-40.899-40.899c0-22.59 18.31-40.902 40.899-40.902s40.898 18.313 40.898 40.902zm0 0" fill="#5cbf96"/><path d="M402.781 365.5c-13.715 0-26.613-5.344-36.308-15.043-9.7-9.695-15.043-22.59-15.043-36.309 0-13.714 5.343-26.609 15.043-36.308 9.695-9.7 22.593-15.04 36.308-15.04s26.61 5.34 36.309 15.04c9.695 9.7 15.039 22.594 15.039 36.308 0 13.715-5.34 26.614-15.04 36.309-9.698 9.7-22.593 15.043-36.308 15.043zm0 0" fill="#ccc"/><path d="M443.68 314.152c0 22.586-18.313 40.899-40.899 40.899-22.59 0-40.902-18.313-40.902-40.899 0-22.59 18.312-40.902 40.902-40.902 22.586 0 40.899 18.313 40.899 40.902zm0 0" fill="#ea7e5a"/><path d="M208.418 129.242a40.678 40.678 0 0021.574 11.313c-12.758 2.32-26.402-1.45-36.265-11.313-15.977-15.976-15.977-41.87 0-57.847 9.863-9.864 23.507-13.637 36.265-11.305a40.638 40.638 0 00-21.574 11.305c-15.969 15.976-15.969 41.87 0 57.847zm0 0" fill="#d1a22a"/><path d="M335.207 127.477a40.672 40.672 0 0021.578 11.316c-12.762 2.32-26.406-1.453-36.27-11.316-15.976-15.977-15.976-41.868 0-57.844 9.864-9.863 23.508-13.637 36.27-11.305a40.649 40.649 0 00-21.578 11.305c-15.965 15.976-15.965 41.867 0 57.844zm0 0" fill="#488089"/><path d="M411.148 226.398a40.683 40.683 0 0021.579 11.317c-12.758 2.32-26.407-1.45-36.27-11.317-15.977-15.976-15.977-41.867 0-57.843 9.863-9.864 23.512-13.637 36.27-11.305a40.663 40.663 0 00-21.579 11.305c-15.964 15.976-15.964 41.867 0 57.843zm0 0" fill="#529e5f"/><path d="M388.55 343.07a40.696 40.696 0 0021.579 11.317c-12.758 2.32-26.406-1.453-36.27-11.317-15.976-15.976-15.976-41.867 0-57.843 9.864-9.868 23.512-13.637 36.27-11.309a40.683 40.683 0 00-21.578 11.309c-15.965 15.976-15.965 41.867 0 57.843zm0 0" fill="#d64f39"/><path d="M339.465 270.574c0 1.172-.02 2.332-.05 3.5-1.528 54.899-84.282 54.899-85.817 0a130.502 130.502 0 01-.043-3.5c0-17.043 3.449-33.27 9.707-48.043 7.46-17.672 18.922-33.238 33.25-45.578 26.3 22.652 42.953 56.184 42.953 93.621zm0 0" fill="#e5d6b9"/><path d="M296.512 315.242c-21.078 0-42.153-13.719-42.914-41.168a130.502 130.502 0 01-.043-3.5c0-17.043 3.449-33.27 9.707-48.043 7.46-17.672 18.922-33.238 33.25-45.578-4.067 12.34-7.317 27.906-9.438 45.578-1.773 14.774-2.758 31-2.758 48.043 0 1.172 0 2.332.012 3.5.219 27.45 6.207 41.168 12.184 41.168zm0 0" fill="#d1a982"/><path d="M339.465 270.574c-33.496 14.88-39.047-34.148-54.262-18.922-.164.164-.32.325-.488.47-15.047 14.417-29.625-.786-21.453-29.59 7.46-17.673 18.922-33.239 33.25-45.579 26.3 22.652 42.953 56.184 42.953 93.621zm0 0" fill="#5cbf96"/><path d="M296.512 176.953c-4.067 12.34-7.317 27.906-9.438 45.578-1.117 9.328-1.922 19.246-2.36 29.59-15.046 14.418-29.624-.785-21.452-29.59 7.46-17.672 18.922-33.238 33.25-45.578zm0 0" fill="#529e5f"/><path d="M329.758 301.766L325.09 439.39l-2.164 63.77a254.658 254.658 0 01-52.547 8.433l-2.445-72.203-4.672-137.625zm0 0" fill="#f7d65e"/><path d="M290.074 509.742a255.2 255.2 0 01-19.695 1.852l-2.445-72.203-4.672-137.625h25.078l1.148 137.625zm0 0" fill="#d1a22a"/><path d="M329.762 301.766l-4.668 137.625h-57.156l-4.672-137.625zm0 0" fill="#fff"/><path d="M289.492 439.39h-21.555l-4.671-137.624h25.078zm0 0" fill="#f2f2f2"/></svg>