<svg height="512" width="512" xmlns="http://www.w3.org/2000/svg"><path d="M122.181 287.6l-94.624 16.68A231.7 231.7 0 00106.9 441.7l61.717-73.551a135.75 135.75 0 01-46.436-80.549z" fill="#ff421d"/><path d="M256 128a135.416 135.416 0 0146.471 8.321l32.868-90.3a231.515 231.515 0 00-158.678 0l32.868 90.3A135.416 135.416 0 01256 128z" fill="#fdb62f"/><path d="M343.388 368.145l61.717 73.555a231.7 231.7 0 0079.338-137.42l-94.624-16.68a135.75 135.75 0 01-46.431 80.545z" fill="#0071bc"/><path d="M120 264a135.2 135.2 0 0118.311-67.948l-69.35-40.039A215.353 215.353 0 0043.312 301.5l78.869-13.9A136.305 136.305 0 01120 264z" fill="#e86110"/><path d="M392 264a136.305 136.305 0 01-2.181 23.6l78.869 13.9a215.353 215.353 0 00-25.649-145.489l-69.35 40.039A135.2 135.2 0 01392 264z" fill="#00a99d"/><path d="M373.689 196.052l69.35-40.039A216.652 216.652 0 00329.893 60.98l-27.422 75.341a136.226 136.226 0 0171.218 59.731z" fill="#39b54a"/><path d="M209.529 136.321L182.107 60.98a216.652 216.652 0 00-113.146 95.033l69.35 40.039a136.226 136.226 0 0171.218-59.731z" fill="#f7931e"/><path d="M168.612 368.145l-51.434 61.3A215.091 215.091 0 00256 480v-80a135.391 135.391 0 01-87.388-31.855z" fill="#c1272d"/><path d="M256 400v80a215.091 215.091 0 00138.822-50.559l-51.434-61.3A135.391 135.391 0 01256 400z" fill="#662d91"/><path d="M236.865 211.426l-27.336-75.1a136.226 136.226 0 00-71.218 59.731l69.229 39.969a56.1 56.1 0 0129.325-24.6z" fill="#fabe78"/><path d="M200.9 273.716L122.181 287.6a135.745 135.745 0 0046.431 80.549l51.405-61.262a55.9 55.9 0 01-19.117-33.171z" fill="#ff8e77"/><path d="M304.46 236.021l69.229-39.969a136.226 136.226 0 00-71.218-59.731l-27.336 75.1a56.1 56.1 0 0129.325 24.6z" fill="#88d392"/><path d="M256 208a55.769 55.769 0 0119.135 3.426l27.336-75.1a133.926 133.926 0 00-92.942 0l27.336 75.1A55.769 55.769 0 01256 208z" fill="#fed382"/><path d="M200 264a55.666 55.666 0 017.54-27.979l-69.229-39.969a133.568 133.568 0 00-16.13 91.544l78.717-13.88A56.154 56.154 0 01200 264z" fill="#f1a06f"/><path d="M220.017 306.883l-51.4 61.262A135.391 135.391 0 00256 400v-80a55.744 55.744 0 01-35.983-13.117z" fill="#da7d81"/><path d="M373.689 196.052l-69.229 39.969a55 55 0 016.642 37.7l78.717 13.88a133.568 133.568 0 00-16.13-91.544z" fill="#66cbc4"/><path d="M256 320v80a135.391 135.391 0 0087.388-31.855l-51.4-61.262A55.744 55.744 0 01256 320z" fill="#a381bd"/><path d="M291.983 306.883l51.4 61.262a135.745 135.745 0 0046.436-80.545L311.1 273.716a55.9 55.9 0 01-19.117 33.167z" fill="#66aad7"/></svg>