<svg xmlns="http://www.w3.org/2000/svg" viewBox="0 0 480.027 480.027"><path fill="#e9f1f5" d="M472.014 112.063c-97.135 0-199.867 22.344-214.232 63.965h-35.548C206.621 135.18 89.866 110.826 7.909 112.063a8.002 8.002 0 00-7.895 8v285.922a7.999 7.999 0 002.379 5.695 7.667 7.667 0 005.727 2.305c111.996-1.645 199.492 30.063 199.895 58.156a8 8 0 008 7.887h48a8 8 0 008-8c0-27.453 82.137-58.043 200-58.043a8 8 0 008-8V120.063a8.001 8.001 0 00-8.001-8zM208.014 443c-33.484-28.555-114.273-44.934-192-45.059V128.035c91.031.535 191.613 30.023 192 57.012V443zm48 21.027h-32v-272h32v272zm208-65.992c-78.332.984-158.66 16.367-192 44.559V186.102c0-26.828 78.434-56.648 192-57.992v269.925z"/><path fill="#e9f1f5" d="M212.225 2.896C158.276 14.154 116.45 56.85 106.307 111.02l15.73 2.922c12.215-65.156 74.937-108.074 140.094-95.859 47.781 8.958 85.44 45.851 95.379 93.437l15.664-3.25C357.827 34.727 285.768-12.451 212.225 2.896z"/><path fill="#e9f1f5" d="M288.014 72.027c-22.805 0-40 10.316-40 24h16c0-1.992 8.512-8 24-8s24 6.008 24 8h16c0-13.683-17.196-24-40-24zm-96 0c-22.805 0-40 10.316-40 24h16c0-1.992 8.512-8 24-8s24 6.008 24 8h16c0-13.683-17.196-24-40-24z"/></svg>