<svg xmlns="http://www.w3.org/2000/svg" viewBox="0 0 512 512"><g fill="#d1d4d1"><path d="M370.759 282.483h-35.31v52.966h17.655c.023 29.242 23.723 52.942 52.966 52.966v-70.621a35.3 35.3 0 00-35.311-35.311zm-229.518 0a35.3 35.3 0 00-35.31 35.31v70.621c29.242-.023 52.942-23.723 52.966-52.966h17.655v-52.966h-35.311z"/><path d="M414.985 251.498l-2.825 3.266a79.608 79.608 0 01-59.057 27.719v61.263a34.795 34.795 0 01-4.679 17.479l-25.512 44.756a17.476 17.476 0 01-15.272 8.916h1.324v17.655c.027 13.847-10.643 25.365-24.452 26.395l-.177.177c1.854 1.854 26.13 27.366-28.337 52.877-56.497-26.483-28.248-52.966-28.248-52.966v-.088c-13.918-.886-24.745-12.448-24.717-26.395v-17.655h1.412a17.618 17.618 0 01-15.36-8.916l-25.512-44.756a34.815 34.815 0 01-4.679-17.479v-61.263a79.61 79.61 0 01-59.057-27.719l-2.825-3.266a79.523 79.523 0 01-16.949-70.268l9.357-38.93v-.088l19.509-81.302C117.526 25.172 149.501-.014 186.259 0h139.476c36.758-.014 68.733 25.172 77.33 60.91l19.509 81.39 9.357 38.93a79.513 79.513 0 01-16.946 70.268z"/></g><path d="M353.103 282.483v61.263a34.795 34.795 0 01-4.679 17.479l-25.512 44.756a17.476 17.476 0 01-15.272 8.916H204.447a17.618 17.618 0 01-15.36-8.916l-25.512-44.756a34.815 34.815 0 01-4.679-17.479v-61.263h194.207z" fill="#95a5a5"/><path d="M308.966 414.897v17.655c.027 13.847-10.643 25.365-24.452 26.395h-.265a11.84 11.84 0 01-1.766.088h-52.966c-.59.015-1.18-.015-1.766-.088-13.918-.886-24.745-12.448-24.717-26.395v-17.655h105.932z" fill="#d1d4d1"/><path d="M256 512c-56.497-26.483-28.248-52.966-28.248-52.966v-.088a11.84 11.84 0 001.766.088h52.966c.59.015 1.18-.015 1.766-.088h.265l-.177.177C286.19 460.977 310.466 486.488 256 512z" fill="#cc4b4c"/><path d="M158.897 282.483v52.966h-52.966v-17.655a35.3 35.3 0 0135.31-35.31h17.656zm247.172 35.31v17.655h-52.966v-52.966h17.655a35.3 35.3 0 0135.311 35.311z" fill="#a5a5a4"/><path d="M414.985 251.498l-2.825 3.266a79.608 79.608 0 01-59.057 27.719H158.897a79.61 79.61 0 01-59.057-27.719l-2.825-3.266a79.523 79.523 0 01-16.949-70.268l9.357-38.93v-.088l19.509-81.302C117.529 25.172 149.504-.014 186.262 0h139.476c36.758-.014 68.733 25.172 77.33 60.91l19.509 81.39 9.357 38.93a79.523 79.523 0 01-16.949 70.268z" fill="#2c2f38"/><g transform="translate(9 4)"><g fill="#7f8c8d"><path d="M255.828 278.483v35.31a8.828 8.828 0 01-17.656 0v-35.31h17.656zm0 88.276v44.138h-17.655v-44.138a8.828 8.828 0 0117.655 0zm61.793-88.276v52.966c.014 16.101-10.887 30.163-26.483 34.163a32.33 32.33 0 01-8.828 1.148h-15.625a8.828 8.828 0 010-17.656h15.625c9.739-.029 17.626-7.916 17.655-17.655v-52.966h17.656zm-81.479 79.448a8.855 8.855 0 01-8.828 8.828H211.69a32.264 32.264 0 01-8.828-1.148c-15.596-4-26.497-18.062-26.483-34.163v-52.966h17.655v52.966c.029 9.739 7.916 17.627 17.655 17.655h15.625a8.854 8.854 0 018.828 8.828z"/><path d="M291.138 357.931v52.966h-17.655v-44.138h-6.797a8.828 8.828 0 010-17.656h15.625a8.855 8.855 0 018.827 8.828zm-54.996 0a8.855 8.855 0 01-8.828 8.828h-6.797v44.138h-17.655v-52.966a8.855 8.855 0 018.828-8.828h15.625a8.854 8.854 0 018.827 8.828z"/></g><path d="M247 375.586c-19.501 0-35.31-15.809-35.31-35.31 0-19.501 15.809-35.31 35.31-35.31s35.31 15.809 35.31 35.31c-.022 19.492-15.818 35.288-35.31 35.31zm0-52.965c-9.751 0-17.655 7.905-17.655 17.655s7.904 17.655 17.655 17.655 17.655-7.904 17.655-17.655c-.01-9.747-7.908-17.646-17.655-17.655z" fill="#d1d4d1"/><circle cx="247" cy="137.241" r="105.931" fill="#4482c3"/></g><g transform="translate(12 14)"><circle cx="182.207" cy="127.241" r="17.655" fill="#ecf0f1"/><circle cx="244" cy="127.241" r="17.655" fill="#d1d4d1"/><circle cx="305.793" cy="127.241" r="17.655" fill="#bdc3c7"/></g></svg>