<svg xmlns="http://www.w3.org/2000/svg" viewBox="0 0 496 496" width="512" height="512" class="hovered-paths"><path data-original="#FFA64D" class="hovered-path" data-old_color="#FFA64D" fill="#ffcb58" d="M224 104h176v160H224z"/><path d="M312 0C210.536 0 128 82.536 128 184c0 31.392 7.92 60.968 21.84 86.848L128 292.688l-18.344-18.344-11.312 11.312L116.688 304 15.6 405.088C5.536 415.152 0 428.512 0 442.744 0 472.112 23.888 496 53.256 496c14.224 0 27.592-5.536 37.656-15.6L192 379.312l18.344 18.344 11.312-11.312L203.312 368l21.84-21.84C251.032 360.08 280.608 368 312 368c101.464 0 184-82.536 184-184S413.464 0 312 0zM79.6 469.088C72.56 476.128 63.208 480 53.256 480 32.712 480 16 463.288 16 442.744c0-9.952 3.872-19.304 10.912-26.344L128 315.312 180.688 368 79.6 469.088zm112.4-112.4L139.312 304l19-19A185.277 185.277 0 00211 337.688l-19 19zM312 352c-92.632 0-168-75.368-168-168S219.368 16 312 16s168 75.368 168 168-75.368 168-168 168z" data-original="#333333" class="active-path" data-old_color="#333333" fill="#2e3b48"/><path d="M312 32c-83.816 0-152 68.184-152 152s68.184 152 152 152 152-68.184 152-152S395.816 32 312 32zm0 288c-74.992 0-136-61.008-136-136S237.008 48 312 48s136 61.008 136 136-61.008 136-136 136z" data-original="#333333" class="active-path" data-old_color="#333333" fill="#2e3b48"/><path data-original="#333333" class="active-path" data-old_color="#333333" fill="#2e3b48" d="M304 104h16v160h-16zm-56 24h40v16h-40zm0 32h40v16h-40zm0 32h40v16h-40zm0 32h40v16h-40zm88-96h40v16h-40zm0 32h40v16h-40zm0 32h40v16h-40zm0 32h40v16h-40z"/></svg>