<svg height="512pt" viewBox="0 0 512 512" width="512pt" xmlns="http://www.w3.org/2000/svg"><path d="M512 256c0 141.387-114.613 256-256 256S0 397.387 0 256 114.613 0 256 0s256 114.613 256 256zm0 0" fill="#66baed"/><path d="M154.328 0H479.93C497.64 0 512 14.36 512 32.07v307.078c0 17.711-14.36 32.07-32.07 32.07H154.328c-17.715 0-32.07-14.359-32.07-32.07V32.07c0-17.71 14.355-32.07 32.07-32.07zm0 0" fill="#3d4159"/><path d="M154.328 350.32c-6.164 0-11.172-5.007-11.172-11.168V32.07c0-6.16 5.012-11.172 11.172-11.172H479.93c6.16 0 11.172 5.012 11.172 11.172v307.078c0 6.16-5.012 11.172-11.172 11.172zm0 0" fill="#f2f0ec"/><path d="M407.188 278.82a7.301 7.301 0 0110.3-.761l11.989 10.332 10.328-8.985a7.309 7.309 0 0110.308.719 7.309 7.309 0 01-.718 10.309l-8.739 7.597 15.356 13.235a7.303 7.303 0 01.761 10.304 7.283 7.283 0 01-5.535 2.535 7.267 7.267 0 01-4.765-1.773l-16.953-14.613L418.844 317a7.275 7.275 0 01-4.793 1.793c-2.04 0-4.07-.852-5.516-2.512-2.648-3.043-2.324-7.66.719-10.308l9.082-7.895-10.387-8.953c-3.054-2.637-3.398-7.25-.762-10.305zM375.836 92.102a7.306 7.306 0 01-.25 10.328 7.277 7.277 0 01-5.04 2.015 7.288 7.288 0 01-5.292-2.265l-26.567-27.895a7.307 7.307 0 011.239-11.117l31.883-21.254a7.3 7.3 0 0110.128 2.027 7.304 7.304 0 01-2.023 10.13l-14.012 9.34c41.137 1.78 65.059 21.714 78.016 38.573 14.64 19.055 18.637 38.059 18.8 38.86a7.309 7.309 0 01-7.167 8.765 7.31 7.31 0 01-7.153-5.847c-.03-.164-3.46-16.469-16.066-32.871-16.395-21.332-39.941-32.391-69.988-32.957zm58.297 128.296c-5.844 5.235-9.551 12.809-9.551 21.254a7.307 7.307 0 007.309 7.305h42.504a7.307 7.307 0 007.308-7.305c0-8.445-3.707-16.02-9.55-21.254 5.843-5.23 9.55-12.808 9.55-21.253 0-15.747-12.812-28.56-28.558-28.56-15.75 0-28.563 12.813-28.563 28.56 0 8.445 3.707 16.023 9.55 21.253zm19.008 7.309c5.015 0 9.421 2.656 11.879 6.64h-23.754c2.457-3.984 6.863-6.64 11.875-6.64zm0-14.613c-7.688 0-13.946-6.258-13.946-13.95 0-7.687 6.258-13.945 13.946-13.945 7.691 0 13.949 6.258 13.949 13.946 0 7.69-6.258 13.949-13.95 13.949zM234.227 314.84l26.3-15.942a7.31 7.31 0 017.575 0l22.52 13.645 22.51-13.645a7.31 7.31 0 017.575 0l22.512 13.645 22.511-13.645c3.45-2.093 7.942-.988 10.036 2.461a7.31 7.31 0 01-2.461 10.036l-26.301 15.94a7.327 7.327 0 01-7.574 0l-22.512-13.647-22.516 13.648a7.32 7.32 0 01-7.57 0l-22.52-13.648-22.515 13.648a7.306 7.306 0 11-7.57-12.496zm101.851-127.985c0 7.63 2.973 14.801 8.367 20.196l15.028 15.027a7.3 7.3 0 0010.332 0l15.027-15.027c5.395-5.395 8.363-12.567 8.363-20.196 0-7.628-2.972-14.8-8.363-20.19-5.394-5.395-12.566-8.368-20.195-8.368-7.63 0-14.797 2.973-20.192 8.367-5.394 5.39-8.367 12.563-8.367 20.191zm14.613 0c0-3.722 1.45-7.226 4.086-9.859a13.842 13.842 0 019.86-4.086c3.726 0 7.23 1.45 9.863 4.086a13.859 13.859 0 014.086 9.86c0 3.726-1.453 7.226-4.086 9.863l-9.863 9.863-9.86-9.863a13.851 13.851 0 01-4.086-9.864zm0 0" fill="#854f89"/><path d="M306.89 449.578v29.246a254.105 254.105 0 01-88.535 30.426c-42.714-6.3-82.003-23.145-115.117-47.805a257.142 257.142 0 01-43.875-41.523c11.684-35.652 43.875-62.024 82.64-65.16a96.904 96.904 0 017.786-.313h61.953c7.324 0 14.45.817 21.293 2.383 42.297 9.676 73.856 47.531 73.856 92.746zm0 0" fill="#dd3033"/><path d="M306.89 449.578v57.363A257.5 257.5 0 01256.005 512c-9.082 0-18.047-.473-26.887-1.402-46.883-4.891-89.996-22.434-125.879-49.153v-11.867c0-52.539 42.602-95.129 95.149-95.129h13.355c23.238 0 44.531 8.328 61.051 22.164v.008a95.272 95.272 0 0123.625 29.531c6.7 13.02 10.473 27.782 10.473 43.426zm0 0" fill="#f74f4f"/><path d="M87.656 249.531c0 15.715-11.48 28.742-26.511 31.16-1.641.27-3.333.407-5.055.407-17.438 0-31.567-14.13-31.567-31.567 0-17.433 14.13-31.562 31.567-31.562 1.722 0 3.414.136 5.055.406 15.03 2.418 26.511 15.445 26.511 31.156zm0 0" fill="#d3a489"/><path d="M206.305 388.773l-25.54 40.961-25.535-40.96" fill="#ffe152"/><path d="M203.227 506.543a253.213 253.213 0 01-41.692-12.547l19.235-74.918zm0 0" fill="#ffe152"/><path d="M87.656 249.531c0 15.715-11.48 28.742-26.511 31.16a117.49 117.49 0 01-4.188-31.16c0-10.781 1.457-21.23 4.188-31.156 15.03 2.418 26.511 15.445 26.511 31.156zm0 0" fill="#bf8e75"/><path d="M67.371 249.531c0 6.235-5.05 11.285-11.281 11.285-6.23 0-11.281-5.05-11.281-11.285 0-6.23 5.05-11.281 11.28-11.281 6.231 0 11.282 5.05 11.282 11.281zm0 0" fill="#bf8e75"/><path d="M180.762 393.395l-42.832 23.8-13.028-60.601 26.61-15.676m29.25 52.477l42.828 23.8 13.027-60.601-26.613-15.676" fill="#dd3033"/><path d="M273.871 249.531c0 15.715 11.48 28.742 26.512 31.16 1.64.27 3.332.407 5.055.407 17.437 0 31.566-14.13 31.566-31.567 0-17.433-14.129-31.562-31.566-31.562-1.723 0-3.415.136-5.055.406-15.031 2.418-26.512 15.445-26.512 31.156zm0 0" fill="#d3a489"/><path d="M273.871 249.531c0 15.715 11.48 28.742 26.512 31.16a117.49 117.49 0 004.187-31.16c0-10.781-1.457-21.23-4.187-31.156-15.031 2.418-26.512 15.445-26.512 31.156zm0 0" fill="#bf8e75"/><path d="M316.719 249.531c0 6.235-5.051 11.285-11.281 11.285s-11.282-5.05-11.282-11.285c0-6.23 5.051-11.281 11.281-11.281s11.282 5.05 11.282 11.281zm0 0" fill="#bf8e75"/><path d="M298.207 232.754c0 58.445-42.695 106.926-98.594 115.93a116.585 116.585 0 01-18.847 1.515c-64.868 0-117.446-52.578-117.446-117.445 0-30.688 22.422-76.762 41.696-97.684 21.46-23.297 41.574-19.758 75.75-19.758 6.421 0 12.714.508 18.847 1.516 55.899 9 98.594 57.484 98.594 115.926zm0 0" fill="#bf8e75"/><path d="M214.707 317.8v41.657c0 15.25-10.055 28.137-23.902 32.418a33.862 33.862 0 01-10.043 1.52c-18.746 0-33.938-15.196-33.938-33.938v-41.656zm0 0" fill="#bf8e75"/><path d="M214.707 356.816v2.641c0 15.25-10.055 28.137-23.902 32.418-12.496-3.84-21.895-14.707-23.63-28 2.27.14 4.548.207 6.84.207 6.423 0 12.715-.508 18.848-1.516a115.366 115.366 0 0021.844-5.75zm83.5-124.062c0 58.445-42.695 106.926-98.594 115.93-55.898-9.004-98.593-57.485-98.593-115.93 0-35.984 16.187-68.195 41.69-89.742 15.895-13.446 35.427-22.727 56.903-26.184 52.114 8.387 92.766 51.106 98.016 104.219.383 3.851.578 7.762.578 11.707zm0 0" fill="#d3a489"/><path d="M180.766 295.824c-9.836 0-19.668-2.465-28.633-7.394a5.226 5.226 0 01-2.063-7.094 5.231 5.231 0 017.098-2.063c14.773 8.125 32.418 8.125 47.195 0a5.228 5.228 0 017.094 2.063 5.22 5.22 0 01-2.059 7.094c-8.964 4.93-18.796 7.394-28.632 7.394zm0 0" fill="#bf8e75"/><path d="M155.754 225.922c0 7.355-5.965 13.32-13.324 13.32-7.356 0-13.32-5.965-13.32-13.32 0-7.36 5.964-13.324 13.32-13.324 7.36 0 13.324 5.964 13.324 13.324zm76.668 0c0 7.355-5.965 13.32-13.324 13.32-7.356 0-13.32-5.965-13.32-13.32 0-7.36 5.964-13.324 13.32-13.324 7.359 0 13.324 5.964 13.324 13.324zm0 0" fill="#3d4159"/><path d="M153.035 223.57a5.706 5.706 0 11-11.414 0c0-3.152 2.555-5.71 5.707-5.71s5.707 2.558 5.707 5.71zm77.325 0a5.706 5.706 0 01-5.708 5.707 5.71 5.71 0 115.707-5.707zm0 0" fill="#fff"/><path d="M194.086 259.465H167.44a5.748 5.748 0 010-11.496h26.645a5.749 5.749 0 110 11.496zm0 0" fill="#bf8e75"/><path d="M219.434 446.453h51.199v15.672h-51.2zm0 0" fill="#dd3033"/><path d="M173.895 81.762c35.574 2.543 64.14 31.281 65.953 67.46l.336 6.79h20.46l11.028 73.3 26.7-8.265-3.587-71.824c-1.894-38.004-33.324-67.786-71.363-67.649zm0 0" fill="#2a2f4f"/><path d="M292.52 53.414c28.332 28.332 28.332 74.266 0 102.594-28.329 28.332-74.262 28.332-102.594 0zm0 0" fill="#3d4159"/><path d="M189.93 156.008h-89.04l-11.027 73.304-26.695-8.265 3.582-71.828c1.89-37.996 33.324-67.785 71.363-67.645l128.59.485 17 30.601" fill="#3d4159"/><path d="M187.637 81.762c-35.575 2.543-64.14 31.281-65.953 67.46l-.336 6.79h-20.461l-11.028 73.3-26.699-8.265 3.59-71.824c1.89-38.004 33.32-67.786 71.36-67.649zm0 0" fill="#2a2f4f"/><path d="M229.117 510.598c15.246-29.266 52.809-107.688 43.676-133.977a95.272 95.272 0 0123.625 29.531zm0 0" fill="#dd3033"/><path d="M379.992 248.422l-128.46 263.535a255.6 255.6 0 01-22.415-1.36L368.645 242.7a6.355 6.355 0 0111.347 5.723zm0 0" fill="#3d4159"/></svg>