<svg xmlns="http://www.w3.org/2000/svg" viewBox="0 0 501.224 501.224"><path fill="#1876ce" d="M474.608 2.612h-344v.16c-48.8 1.68-88 41.8-88 91v36.84c0 15.576 11.192 28.552 25.952 31.392 4.224 17.024 15.248 31.36 30.048 39.952v2.096l-44.872 8.976c-20.648 4.128-37.072 19.272-42.856 39.528L0 290.612h261.216l-4.568-16h217.96c13.232 0 24-10.768 24-24v-224c0-13.232-10.768-24-24-24zm-408 141.768c-4.76-2.768-8-7.872-8-13.768s3.24-11 8-13.776v27.544zm-8-41.32v-9.296c0-41.432 33.72-75.152 75.16-75.152a45.784 45.784 0 0138.184 20.44l1.712 2.568 3.008.752a34.192 34.192 0 0125.936 33.224v27.464c-4.728-2.752-10.144-4.448-16-4.448-18.92 0-37.672-6.248-52.808-17.6l-11.944-8.96-11.936 11.936c-9.432 9.432-21.976 14.624-35.312 14.624-5.856 0-11.272 1.696-16 4.448zm153.224-52.448h238.776v176h-216v.256c-7.432-6.896-16.736-11.768-27.128-13.848l-44.872-8.968v-2.096c14.8-8.592 25.824-22.928 30.048-39.952 14.76-2.84 25.952-15.816 25.952-31.392V75.596c0-9.048-2.504-17.56-6.776-24.984zm-17.224 93.776v-27.544c4.76 2.768 8 7.872 8 13.768s-3.24 11-8 13.776zm-112 2.224v-32.536c14.584-1.752 28.08-8.232 38.624-18.776l2.128-2.128.84.632c15.744 11.808 34.808 18.936 54.408 20.48v32.328c0 26.472-21.528 48-48 48s-48-21.528-48-48zm-61.392 128l5.048-17.664c4.136-14.464 15.856-25.28 30.608-28.232l57.736-11.544V208.5c5.128 1.336 10.464 2.112 16 2.112s10.872-.776 16-2.104v8.672l57.736 11.536c14.752 2.952 26.48 13.776 30.608 28.232L240 274.612H21.216zm461.392-24c0 4.416-3.584 8-8 8H252.072l-1.728-6.056c-1-3.496-2.424-6.776-4.024-9.944h220.288v-208H197.4c-4.176-2.952-8.824-5.328-13.872-6.92-2.48-3.352-5.32-6.344-8.352-9.08h299.432c4.416 0 8 3.584 8 8v224z"/><path fill="#1876ce" d="M242.608 98.612v16h32v16h-16v16h16v16h-32v16h48v-80zm176 48v-48h-48v16h32v16h-32v48h48v-16h-32v-16zm-80-16v-16h-16v16h-16v16h16v16h16v-16h16v-16zM487.856 451.86c-4.216-14.768-16.736-25.944-31.888-28.472l-21.36-3.56v-5.624c10.216-9.136 16-21.888 16-35.592v-24c0-26.472-21.528-48-48-48s-48 21.528-48 48v24c0 13.704 5.784 26.464 16 35.592v5.624l-21.368 3.56c-8.888 1.48-16.768 5.864-22.688 12.248-5.912-6.328-13.776-10.784-22.584-12.248l-21.36-3.56v-5.624c10.216-9.136 16-21.888 16-35.592v-24c0-26.472-21.528-48-48-48s-48 21.528-48 48v24c0 13.704 5.784 26.464 16 35.592v5.624l-21.36 3.56c-8.816 1.464-16.672 5.92-22.584 12.248-5.92-6.384-13.8-10.76-22.696-12.248l-21.36-3.56v-5.624c10.216-9.136 16-21.888 16-35.592v-24c0-26.472-21.528-48-48-48s-48 21.528-48 48v24c0 13.704 5.784 26.464 16 35.592v5.624l-21.36 3.56c-15.16 2.52-27.672 13.704-31.888 28.472L0 498.612h501.224l-13.368-46.752zm-322.496 0l-8.792 30.752H21.216l7.528-26.36c2.52-8.856 10.04-15.56 19.128-17.08l34.736-5.776v-26.944l-3.176-2.4c-8.152-6.16-12.824-15.432-12.824-25.44v-24c0-17.648 14.352-32 32-32s32 14.352 32 32v24c0 10.008-4.672 19.28-12.824 25.44l-3.176 2.392v26.944l34.728 5.784c7.032 1.176 12.896 5.432 16.48 11.432-.136.424-.336.824-.456 1.256zm7.856 30.752l7.528-26.36c2.52-8.856 10.04-15.56 19.128-17.08l34.736-5.776v-26.944l-3.176-2.4c-8.152-6.16-12.824-15.432-12.824-25.44v-24c0-17.648 14.352-32 32-32s32 14.352 32 32v24c0 10.008-4.672 19.28-12.824 25.44l-3.176 2.392v26.944l34.736 5.784c9.088 1.512 16.6 8.216 19.128 17.08l7.528 26.36H173.216zm171.432 0l-8.784-30.752c-.12-.432-.32-.832-.456-1.256 3.584-5.992 9.448-10.256 16.472-11.432l34.728-5.776v-26.944l-3.176-2.4c-8.152-6.16-12.824-15.432-12.824-25.44v-24c0-17.648 14.352-32 32-32s32 14.352 32 32v24c0 10.008-4.672 19.28-12.824 25.44l-3.176 2.392v26.944l34.736 5.784c9.088 1.512 16.6 8.216 19.128 17.08l7.528 26.36H344.648z"/></svg>