<svg height="512" viewBox="0 0 58 58" width="512" xmlns="http://www.w3.org/2000/svg"><g fill="none"><path d="M58 32v24a2.006 2.006 0 01-2 2H38V30h18a2.006 2.006 0 012 2z" fill="#3180bc"/><path d="M40 30v28h-3a2.006 2.006 0 01-2-2V32a2.006 2.006 0 012-2z" fill="#4397d5"/><rect fill="#ebeff0" height="5" rx="1" width="9" x="44" y="35"/><path d="M53 50h-9a1 1 0 010-2h9a1 1 0 010 2zm-4 4h-5a1 1 0 010-2h5a1 1 0 010 2z" fill="#2b5781"/><path d="M37 58H2a2.006 2.006 0 01-2-2V43.22a1.926 1.926 0 01.37-1.15 2 2 0 011.33-.83L10 40c-3 10 6 11 6 11l3-5 3 5s9-1 6-11l7 1.05V56a2.006 2.006 0 002 2z" fill="#e04c34"/><path d="M35 23v18.05L28 40v-6.25a15.379 15.379 0 002.91-8.56c.01-.895.091-1.788.24-2.67 1.261.303 2.553.464 3.85.48z" fill="#7e532f"/><path d="M22 51l-3-5c3.767-.5 7.09-2.715 9-6 3 10-6 11-6 11zm-3-5l-3 5s-9-1-6-11a12.278 12.278 0 009 6z" fill="#ebeff0"/><path d="M28 33.75V40a12.278 12.278 0 01-9 6 12.278 12.278 0 01-9-6v-6.25a15.979 15.979 0 007.5 5.89c.2.07.38.13.57.2.602.21 1.258.21 1.86 0 .19-.07.38-.13.57-.2a15.979 15.979 0 007.5-5.89z" fill="#f6c58f"/><path d="M31.15 22.52c-.149.882-.23 1.775-.24 2.67A15.379 15.379 0 0128 33.75a15.979 15.979 0 01-7.5 5.89c-.19.07-.38.13-.57.2-.602.21-1.258.21-1.86 0-.19-.07-.37-.13-.57-.2a15.979 15.979 0 01-7.5-5.89 15.368 15.368 0 01-2.9-8.56 17.316 17.316 0 00-.24-2.67C14.71 20.66 19 14 19 14s4.29 6.66 12.15 8.52z" fill="#fad5a9"/><path d="M35 16v7a17.407 17.407 0 01-3.85-.48C23.29 20.66 19 14 19 14s-4.29 6.66-12.14 8.52A17.5 17.5 0 013 23v-7C3 7.163 10.163 0 19 0s16 7.163 16 16z" fill="#a1693e"/><path d="M10 33.75V40l-8.3 1.24a2 2 0 00-1.33.83A5.985 5.985 0 013 34.81V23a17.5 17.5 0 003.86-.48c.149.882.23 1.775.24 2.67a15.368 15.368 0 002.9 8.56z" fill="#7e532f"/></g></svg>