<svg xmlns="http://www.w3.org/2000/svg" viewBox="0 0 498.88 498.88"><path fill="#1876ce" d="M93.12 497.44h405.76l-26.376-84.392c-.384-1.224-.84-2.408-1.272-3.608H496v-352h-96v.352c-3.208-2.264-6.536-4.4-10.064-6.288-16.552-30.944-48.344-50.064-83.6-50.064H296c-42.496 0-80.64 18.616-107.024 48H0v360h120.768c-.432 1.2-.888 2.384-1.272 3.608L93.12 497.44zm224.64-16h-43.52l6.376-25.496-16.176-24.264L296 404.072l31.56 27.616-16.176 24.264 6.376 25.488zm2.24-304c-8.824 0-16 7.176-16 16h-16c0-8.824-7.176-16-16-16h-48c-5.896 0-11 3.24-13.776 8H200v-37.104a319.228 319.228 0 0090.592 13.104h10.816c30.744 0 61.168-4.408 90.592-13.104v37.104h-10.224c-2.776-4.76-7.88-8-13.776-8h-48zm48 16v16c0 8.824-7.176 16-16 16h-16c-8.824 0-16-7.176-16-16v-16h48zm-96 0v16c0 8.824-7.176 16-16 16h-16c-8.824 0-16-7.176-16-16v-16h48zm-64 8v8c0 17.648 14.352 32 32 32h16c17.648 0 32-14.352 32-32h16c0 17.648 14.352 32 32 32h16c17.648 0 32-14.352 32-32v-8h8v32c0 52.936-43.064 96-96 96s-96-43.064-96-96v-32h8zm138.792 152.52l20.488 3.152-12.808 76.856-46.768-40.92 39.088-39.088zM296 382.128l-40-40v-4.2c12.44 4.784 25.896 7.512 40 7.512s27.56-2.728 40-7.512v4.2l-40 40zm-11.704 10.92l-46.768 40.92-12.808-76.856 20.488-3.152 39.088 39.088zM477.12 481.44h-62.056l-7.128-56.992-15.872 1.984 6.872 55.008H334.24l-5.624-22.504 11.088-16.624 25.832 22.6 17.56-105.36 7.784 1.2c30.968 4.768 57.016 27.168 66.368 57.072l19.872 63.616zm2.88-408v320h-16v.192c-14.768-25.728-40.808-44.096-70.688-48.696L352 338.576v-8.288c26.92-15.624 46.784-42.072 53.488-73.4C424.928 254.176 440 237.616 440 217.44v-82.336c0-23.216-8.416-44.816-22.912-61.664H480zm-72.336 166.632c.128-2.208.336-4.392.336-6.632v-38.528c9.288 3.312 16 12.112 16 22.528 0 10.536-6.872 19.416-16.336 22.632zM296 17.44h10.336c30.048 0 57.064 16.696 70.504 43.576l1.192 2.384 2.384 1.192C407.304 78.04 424 105.056 424 135.104v50.544c-4.672-3.536-10.056-6.184-16-7.392v-51.912l-10.528 3.512a303.297 303.297 0 01-96.064 15.584h-10.816c-32.704 0-65.024-5.24-96.064-15.584L184 126.336v51.912c-5.944 1.216-11.328 3.856-16 7.392v-40.2c0-70.576 57.424-128 128-128zM184.336 240.072C174.872 236.856 168 227.976 168 217.44c0-10.416 6.712-19.216 16-22.528v38.528c0 2.24.208 4.424.336 6.632zM16 393.44v-328h160.352c-15.36 22.896-24.352 50.416-24.352 80v72c0 20.176 15.072 36.736 34.512 39.448 6.704 31.328 26.568 57.776 53.488 73.4v8.288l-41.312 6.352c-29.88 4.6-55.92 22.968-70.688 48.696v-.184H16zm118.76 24.376c9.352-29.896 35.4-52.304 66.368-57.072l7.784-1.2 17.56 105.36 25.832-22.6 11.088 16.624-5.632 22.512h-64.696l6.872-55.008-15.872-1.984-7.128 56.992H114.88l19.88-63.624z"/><path fill="#1876ce" d="M64 129.44v16h8v48h16v-64zm-32 88h96v16H32zm72 57.376v-1.376c0-13.232-10.768-24-24-24s-24 10.768-24 24h16c0-4.416 3.584-8 8-8s8 3.584 8 8v1.376a8.026 8.026 0 01-2.344 5.656L56 310.128v19.312h48v-16H75.312l21.656-21.656c4.536-4.528 7.032-10.56 7.032-16.968z"/></svg>