<svg xmlns="http://www.w3.org/2000/svg" viewBox="0 0 513.067 513.067"><path d="M418.667 189.867V467.2h-393.6V189.867c0-14.933 12.8-27.733 27.733-27.733h337.067c16-.001 28.8 12.799 28.8 27.733z" fill="#e8eae9"/><path d="M.533 468.267c0 24.533 20.267 44.8 44.8 44.8h352c24.533 0 44.8-20.267 44.8-44.8H.533z" fill="#415a6b"/><path fill="#8ad7f8" d="M56 193.067h330.667V422.4H56z"/><path d="M331.2 422.4l-1.067-23.467c-1.067-16-10.667-29.867-25.6-34.133-12.8-4.267-27.733-9.6-30.933-10.667-1.067 0-106.667-3.2-106.667-3.2L120 375.467s-6.4 0-7.467 23.467c0 5.333 0 12.8 1.067 23.467h217.6z" fill="#344a5e"/><path d="M256.533 422.4c5.333-30.933 10.667-65.067 10.667-65.067l-13.867-17.067-3.2 4.267L228.8 355.2l-1.067 1.067-35.2-6.4s-10.667 4.267-12.8 26.667c-1.067 12.8 7.467 30.933 17.067 45.867h59.733z" fill="#ced6e0"/><path d="M187.2 358.4h58.667L248 329.6s3.2-5.333 5.333-16-1.067-26.667-1.067-26.667 14.933-41.6-17.067-49.067-54.4 23.467-54.4 23.467l5.333 45.867s2.133 6.4 4.267 10.667L187.2 358.4z" fill="#ffd15c"/><path d="M249.067 329.6s1.067-3.2 3.2-8.533c0 0-23.467 46.933-58.667-3.2 0 0 4.267 23.467 26.667 40.533h25.6l3.2-28.8z" fill="#f7b64c"/><path d="M217.067 422.4H248c-5.333-18.133-20.267-51.2-20.267-51.2l-2.133-7.467h-7.467L216 371.2s-1.067 38.4 1.067 51.2z" fill="#f3705a"/><path d="M213.867 355.2l5.333 1.067h7.467l6.4 5.333s-5.333 5.333-6.4 9.6c0-2.133-10.667-2.133-10.667 0 0 0-5.333-6.4-8.533-7.467-2.134 0 6.4-8.533 6.4-8.533z" fill="#f05540"/><g fill="#ffd15c"><ellipse transform="rotate(-104.211 186.243 293.342)" cx="186.243" cy="293.343" rx="14.933" ry="6.4"/><ellipse transform="rotate(89.335 252.588 287.546)" cx="252.58" cy="287.525" rx="14.933" ry="6.4"/></g><path d="M186.133 289.067c0 1.067 1.067 2.133 1.067 4.267h3.2v-6.4c2.133-7.467 5.333-11.733 2.133-19.2-2.133-7.467-1.067-9.6 1.067-9.6 0 0 9.6 3.2 19.2-2.133s10.667-10.667 16-10.667 13.867 1.067 17.067 4.267c3.2 3.2 3.2 10.667 3.2 18.133 0 6.4 3.2 21.333 4.267 26.667h2.133c0-2.133 0-9.6 1.067-13.867C270.4 233.6 239.467 214.4 210.667 217.6c-32 3.2-37.333 37.333-35.2 46.933 1.066 9.6 9.6 21.334 10.666 24.534zM254.4 408.533c-1.067 3.2-2.133 7.467-3.2 13.867h14.933c4.267-6.4 7.467-11.733 9.6-16 10.667-18.133 16-35.2 16-35.2l-10.667-7.467 4.267-3.2s-27.733-29.867-35.2-29.867c0 0 6.4 13.867 7.467 24.533 0 9.601-1.067 42.668-3.2 53.334z" fill="#415a6b"/><path d="M249.067 329.6s-1.067 5.333-5.333 10.667c-4.267 6.4-17.067 14.933-17.067 14.933l13.867 25.6s5.333-10.667 9.6-17.067c4.267-7.467 4.267-17.067 3.2-22.4-1.067-5.333-4.267-11.733-4.267-11.733zM219.2 355.2s-3.2 1.067-7.467 8.533c-4.267 7.467-8.533 22.4-8.533 22.4s-16-27.733-20.267-33.067c-4.267-4.267-3.2-11.733-3.2-11.733s4.267-2.133 6.4-8.533c2.133-6.4 4.267-10.667 4.267-10.667s0 11.733 5.333 18.133c8.534 7.467 23.467 14.934 23.467 14.934z" fill="#f3f3f3"/><path d="M189.333 422.4h22.4c-2.133-6.4-4.267-11.733-6.4-17.067-7.467-20.267-17.067-75.733-17.067-75.733-3.2-1.067-21.333 18.133-23.467 22.4-2.133 3.2-5.333 10.667-5.333 10.667l6.4 4.267-10.667 6.4C160.533 384 174.4 403.2 189.333 422.4z" fill="#415a6b"/><path fill="#344a5e" d="M262.933 490.667H180.8l-9.6-22.4h101.333z"/><path d="M512.533 291.2c0 52.267-42.667 94.933-94.933 94.933-3.2 0-7.467 0-10.667-1.067-7.467 4.267-14.933 7.467-22.4 10.667-12.8 4.267-24.533 6.4-37.333 6.4 10.667-7.467 19.2-17.067 26.667-27.733-29.867-16-51.2-48-51.2-84.267 0-52.267 42.667-94.933 94.933-94.933s94.933 42.667 94.933 96z" fill="#f3705a"/><path d="M464.533 235.733V323.2H436.8v27.733h-61.867c-3.2 0-5.333-2.133-5.333-5.333V235.733c0-3.2 2.133-5.333 5.333-5.333H459.2c3.2 0 5.333 3.2 5.333 5.333z" fill="#fff"/><path d="M436.8 350.933l27.733-27.733H436.8zm-57.6-109.866h74.667v7.467H379.2zm0 22.4h74.667v7.467H379.2zm0 21.333h74.667v7.467H379.2zm0 22.4h74.667v7.467H379.2zm0 22.4h45.867v7.467H379.2z" fill="#e8eae9"/><path d="M.533 96c0 52.267 42.667 94.933 94.933 94.933 3.2 0 7.467 0 10.667-1.067 7.467 4.267 14.933 7.467 22.4 10.667 12.8 4.267 24.533 6.4 37.333 6.4-10.667-7.467-19.2-17.067-26.667-27.733 29.867-16 51.2-48 51.2-84.267C190.4 42.667 147.733 0 95.467 0 43.2 1.067.533 43.733.533 96z" fill="#415a6b"/><path d="M47.467 132.267c32 4.267 64 4.267 96 0 3.2 0 6.4-3.2 6.4-6.4V64c0-3.2-2.133-6.4-6.4-6.4-32-4.267-64-4.267-96 0-3.2 0-6.4 3.2-6.4 6.4v61.867c1.066 3.2 3.2 6.4 6.4 6.4z" fill="#f3705a"/><path d="M114.667 100.267l-23.467 16c-3.2 2.133-7.467 0-7.467-4.267V80c0-3.2 4.267-5.333 7.467-3.2l23.467 16c3.2 1.067 3.2 5.333 0 7.467z" fill="#fff"/></svg>