<svg xmlns="http://www.w3.org/2000/svg" xmlns:xlink="http://www.w3.org/1999/xlink" width="1085.67" height="854.95" viewBox="0 0 1085.67 854.95">
  <defs>
    <style>
      .a, .an, .au, .bd, .bf, .e, .k, .m, .u, .y {
        fill: none;
      }

      .b {
        fill: #324446;
      }

      .c {
        isolation: isolate;
      }

      .d {
        fill: #ddf1fb;
      }

      .al, .aq, .be, .d, .m, .u, .y {
        mix-blend-mode: multiply;
      }

      .e {
        stroke: #202c2c;
      }

      .bf, .e, .k, .m {
        stroke-linecap: round;
        stroke-linejoin: round;
      }

      .bf, .e {
        stroke-width: 7px;
      }

      .e, .f, .m, .y {
        opacity: 0.2;
      }

      .ai, .al, .f {
        fill: #202c2c;
      }

      .g {
        fill: #fff;
      }

      .h, .l {
        fill: #e2e2e2;
      }

      .aw, .az, .i {
        fill: #bfc0c2;
      }

      .j {
        fill: #fffdfe;
      }

      .k {
        stroke: #e2e2e2;
        stroke-width: 3px;
      }

      .aa, .aw, .az, .bd, .l {
        opacity: 0.4;
      }

      .m, .u, .y {
        stroke: #a8a8a8;
      }

      .m {
        stroke-width: 4px;
      }

      .n {
        fill: #61251d;
      }

      .o {
        fill: #009ee5;
      }

      .aa, .p {
        fill: #01516b;
      }

      .q {
        fill: #053844;
      }

      .r {
        fill: #a8a8a8;
      }

      .s {
        clip-path: url(#a);
      }

      .ah, .t {
        opacity: 0.3;
      }

      .an, .au, .bd, .u, .y {
        stroke-miterlimit: 10;
      }

      .v {
        clip-path: url(#b);
      }

      .w {
        fill: #ebebeb;
      }

      .x {
        clip-path: url(#c);
      }

      .z {
        clip-path: url(#d);
      }

      .ab {
        fill: #df361f;
      }

      .ac, .ah {
        fill: #93261c;
      }

      .ad {
        clip-path: url(#e);
      }

      .ae {
        clip-path: url(#f);
      }

      .af {
        clip-path: url(#g);
      }

      .ag {
        clip-path: url(#h);
      }

      .aj {
        fill: #171443;
      }

      .ak {
        clip-path: url(#i);
      }

      .al {
        opacity: 0.6;
      }

      .am {
        fill: #4d6565;
      }

      .an {
        stroke: #ffcb58;
        stroke-width: 6px;
      }

      .ao {
        fill: #ffcb58;
      }

      .ap {
        clip-path: url(#j);
      }

      .ar {
        fill: #eaaf39;
      }

      .as {
        fill: #b25900;
      }

      .at {
        fill: #ff481e;
      }

      .au, .bd {
        stroke: #fff;
      }

      .av {
        clip-path: url(#k);
      }

      .aw {
        mix-blend-mode: screen;
      }

      .ax {
        fill: #e5e5e5;
      }

      .ay {
        clip-path: url(#l);
      }

      .ba {
        fill: #e13f2a;
      }

      .bb {
        fill: #ab0e09;
      }

      .bc {
        fill: #ffbe00;
      }

      .be {
        fill: #ffb001;
      }

      .bf {
        stroke: #a7734e;
      }

      .bg {
        fill: #805434;
      }

      .bh {
        clip-path: url(#m);
      }

      .bi {
        fill: #f4d6a9;
      }

      .bj {
        fill: #008d95;
      }

      .bk {
        clip-path: url(#n);
      }
    </style>
    <clipPath id="a">
      <polygon class="a" points="234.91 424.46 234.91 475.71 452.23 593.49 452.23 541.43 234.91 424.46"/>
    </clipPath>
    <clipPath id="b">
      <polygon class="a" points="784.04 348.2 784.04 435.76 452.72 612.36 452.72 523.41 784.04 348.2"/>
    </clipPath>
    <clipPath id="c">
      <polygon class="a" points="773.79 369.14 773.79 420.39 453.24 593.42 453.24 541.36 773.79 369.14"/>
    </clipPath>
    <clipPath id="d">
      <polygon class="a" points="549.63 220.05 218.16 396.71 452.76 524.87 784.23 348.21 549.63 220.05"/>
    </clipPath>
    <clipPath id="e">
      <polygon class="a" points="284.94 320.91 284.94 364.61 470.25 465.04 470.25 420.65 284.94 320.91"/>
    </clipPath>
    <clipPath id="f">
      <polygon class="a" points="753.19 255.88 753.19 330.54 470.67 481.13 470.67 405.29 753.19 255.88"/>
    </clipPath>
    <clipPath id="g">
      <polygon class="a" points="744.45 273.74 744.45 317.44 471.12 464.99 471.12 420.59 744.45 273.74"/>
    </clipPath>
    <clipPath id="h">
      <polygon class="a" points="553.3 146.61 270.66 297.25 470.7 406.53 753.35 255.89 553.3 146.61"/>
    </clipPath>
    <clipPath id="i">
      <polygon class="b" points="735.21 161.14 735.21 142.35 698.53 142.35 490.59 31.41 282.65 142.35 245.97 142.35 245.97 161.14 245.97 161.92 490.59 292.43 735.21 161.92 735.21 161.14"/>
    </clipPath>
    <clipPath id="j">
      <path class="a" d="M374.12,388.33A11.62,11.62,0,0,1,362.5,400h0a11.62,11.62,0,0,1-11.62-11.62v-39.4a11.62,11.62,0,0,1,11.62-11.62h0a11.62,11.62,0,0,1,11.62,11.62Z"/>
    </clipPath>
    <clipPath id="k">
      <path class="a" d="M425.26,788.49c14.64,27.65,41.6,42.06,60.23,32.2s21.86-40.27,7.23-67.92-41.6-42.06-60.23-32.19S410.63,760.84,425.26,788.49Z"/>
    </clipPath>
    <clipPath id="l">
      <path class="a" d="M981.12,494.17c-14.63-27.64-41.6-42.06-60.23-32.2-.62.33-1.18.74-1.76,1.11L431.44,721.31l52.86,99.84,487.19-258a26.39,26.39,0,0,0,2.41-1.11C992.53,552.22,995.76,521.82,981.12,494.17Z"/>
    </clipPath>
    <clipPath id="m">
      <polygon class="a" points="101.91 570.1 130.62 614.89 152.15 572.11 101.91 570.1"/>
    </clipPath>
    <clipPath id="n">
      <path class="a" d="M129.66,587.13c6.24-11.78,17.72-17.92,25.66-13.72.26.14.5.31.75.47l207.77,110-22.52,42.54L133.76,616.54a10.53,10.53,0,0,1-1-.47C124.8,611.86,123.42,598.91,129.66,587.13Z"/>
    </clipPath>
  </defs>
  <title>about</title>
  <g class="c">
    <g>
      <path class="d" d="M1073.51,528.23C1073.51,708.74,833.19,855,536.74,855S0,708.74,0,528.23,240.25,201.47,536.74,201.47,1073.51,347.71,1073.51,528.23Z"/>
      <line class="e" x1="535.1" y1="383.7" x2="769.7" y2="511.86"/>
      <line class="e" x1="611.66" y1="345.42" x2="846.26" y2="473.58"/>
      <g>
        <polygon class="f" points="795.9 269.05 687.83 326.51 898.49 440.53 1006.82 383.88 795.9 269.05"/>
        <g>
          <polygon class="g" points="1005.87 363.51 1005.87 383.41 947.87 378.52 1005.87 363.51"/>
          <g>
            <polygon class="g" points="803.89 273.07 717.9 318.4 919.88 428.73 1005.87 383.41 803.89 273.07"/>
            <polygon class="h" points="919.88 428.73 919.88 375.46 717.9 298.49 717.9 318.4 919.88 428.73"/>
            <polygon class="i" points="803.89 253.17 717.9 298.49 919.88 408.83 1005.87 363.51 803.89 253.17"/>
          </g>
        </g>
        <g>
          <polygon class="g" points="1005.87 363.51 1005.87 383.41 947.87 378.52 1005.87 363.51"/>
          <g>
            <polygon class="g" points="803.89 273.07 717.9 318.4 919.88 428.73 1005.87 383.41 803.89 273.07"/>
            <polygon class="h" points="919.88 428.73 919.88 375.46 717.9 298.49 717.9 318.4 919.88 428.73"/>
            <polygon class="i" points="803.89 253.17 717.9 298.49 919.88 408.83 1005.87 363.51 803.89 253.17"/>
          </g>
        </g>
        <g>
          <path class="j" d="M776.13,112.46c-14.07,0-25.48,6.41-25.48,14.32v161.1c0,7.91,11.41,14.32,25.48,14.32s25.48-6.41,25.48-14.32V126.78C801.61,118.87,790.2,112.46,776.13,112.46Z"/>
          <line class="k" x1="759.54" y1="128.18" x2="759.54" y2="286.65"/>
          <line class="k" x1="772.55" y1="136.6" x2="772.55" y2="295.07"/>
          <line class="k" x1="788.63" y1="130.48" x2="788.63" y2="288.95"/>
        </g>
        <g>
          <path class="j" d="M942.26,195.91c-14.08,0-25.49,6.41-25.49,14.32v161.1c0,7.91,11.41,14.32,25.48,14.32s25.49-6.41,25.49-14.32V210.23C967.74,202.32,956.33,195.91,942.26,195.91Z"/>
          <line class="k" x1="925.67" y1="211.63" x2="925.67" y2="370.1"/>
          <line class="k" x1="938.68" y1="220.05" x2="938.68" y2="378.52"/>
          <line class="k" x1="954.76" y1="213.92" x2="954.76" y2="372.39"/>
        </g>
        <g>
          <path class="j" d="M856.51,156.1c-14.07,0-25.48,6.41-25.48,14.32v161.1c0,7.91,11.41,14.32,25.48,14.32S882,339.43,882,331.52V170.42C882,162.51,870.59,156.1,856.51,156.1Z"/>
          <line class="k" x1="839.92" y1="171.82" x2="839.92" y2="330.29"/>
          <line class="k" x1="852.93" y1="180.24" x2="852.93" y2="338.71"/>
          <line class="k" x1="869.01" y1="174.11" x2="869.01" y2="332.58"/>
        </g>
        <g>
          <polygon class="g" points="1005.87 175.94 1005.87 195.85 947.87 190.96 1005.87 175.94"/>
          <g>
            <polygon class="g" points="803.89 85.5 717.9 130.83 919.88 241.17 1005.87 195.85 803.89 85.5"/>
            <polygon class="h" points="919.88 241.17 919.88 187.9 717.9 110.93 717.9 130.83 919.88 241.17"/>
            <polygon class="i" points="803.89 65.6 717.9 110.93 919.88 221.27 1005.87 175.94 803.89 65.6"/>
          </g>
        </g>
        <polygon class="i" points="897.38 38.42 810.64 70.57 737.38 107.89 869.01 138.13 897.38 38.42"/>
        <polygon class="h" points="897.38 38.42 835.9 69.23 920.06 205.66 987.77 169.9 897.38 38.42"/>
        <polygon class="g" points="920.3 205.5 836.86 68.47 737.38 107.89 920.3 205.5"/>
        <polygon class="l" points="899.64 187.59 832.41 77.19 753.03 108.66 899.64 187.59"/>
      </g>
      <g>
        <polygon class="f" points="256.76 320.85 15.17 446.49 363.44 637.2 605.03 511.56 256.76 320.85"/>
        <g>
          <polygon class="i" points="273.54 304.35 32.48 432.83 32.49 432.82 18.54 434.05 18.54 440.26 363.14 632.16 618.15 496.24 273.54 304.35"/>
          <polygon class="g" points="273.54 298.13 18.54 434.05 363.14 625.94 618.15 490.03 273.54 298.13"/>
          <g>
            <line class="m" x1="293.23" y1="330.25" x2="77.59" y2="444.41"/>
            <line class="m" x1="322.41" y1="346.66" x2="106.77" y2="460.81"/>
            <line class="m" x1="351.59" y1="363.06" x2="135.96" y2="477.22"/>
            <line class="m" x1="380.78" y1="379.47" x2="165.14" y2="493.62"/>
            <line class="m" x1="409.96" y1="395.87" x2="194.32" y2="510.02"/>
            <line class="m" x1="439.14" y1="412.28" x2="223.5" y2="526.43"/>
            <line class="m" x1="468.32" y1="428.68" x2="252.69" y2="542.83"/>
            <line class="m" x1="497.51" y1="445.08" x2="281.87" y2="559.24"/>
            <line class="m" x1="526.69" y1="461.49" x2="311.05" y2="575.64"/>
            <line class="m" x1="555.87" y1="477.89" x2="340.24" y2="592.05"/>
          </g>
        </g>
      </g>
      <polygon class="f" points="529.41 304.41 179.11 491.11 427.04 626.55 777.34 439.85 529.41 304.41"/>
      <g>
        <polygon class="n" points="549.63 307.6 218.16 484.27 452.76 612.43 784.23 435.77 549.63 307.6"/>
        <polygon class="o" points="549.63 220.05 218.16 396.71 452.76 524.87 784.23 348.21 549.63 220.05"/>
        <g>
          <polygon class="p" points="218.16 396.71 218.16 484.27 452.76 612.43 452.76 523.48 218.16 396.71"/>
          <polygon class="q" points="229.35 421.06 229.35 481.07 456.66 604.62 456.66 543.72 229.35 421.06"/>
          <polygon class="r" points="234.91 424.46 234.91 475.71 452.23 593.49 452.23 541.43 234.91 424.46"/>
          <g class="s">
            <g class="t">
              <line class="u" x1="207.28" y1="414.21" x2="466.3" y2="555.97"/>
              <line class="u" x1="207.28" y1="420.81" x2="466.3" y2="562.57"/>
              <line class="u" x1="207.28" y1="427.41" x2="466.3" y2="569.17"/>
              <line class="u" x1="207.28" y1="434.02" x2="466.3" y2="575.77"/>
              <line class="u" x1="207.28" y1="440.62" x2="466.3" y2="582.38"/>
              <line class="u" x1="207.28" y1="447.22" x2="466.3" y2="588.98"/>
              <line class="u" x1="207.28" y1="453.82" x2="466.3" y2="595.58"/>
            </g>
          </g>
        </g>
        <polygon class="p" points="773.79 420.39 773.79 369.14 783.96 363.66 784.04 363.78 784.04 348.2 452.72 523.41 452.72 612.36 784.04 435.76 784.04 422.24 773.79 420.39"/>
        <g class="v">
          <g>
            <polygon class="q" points="773.79 368.62 773.79 428.63 452.98 602.46 452.98 541.57 773.79 368.62"/>
            <polygon class="w" points="773.79 369.14 773.79 420.39 453.24 593.42 453.24 541.36 773.79 369.14"/>
            <g class="x">
              <g>
                <line class="y" x1="801.41" y1="358.89" x2="439.17" y2="555.9"/>
                <line class="y" x1="801.41" y1="365.49" x2="439.17" y2="562.5"/>
                <line class="y" x1="801.41" y1="372.09" x2="439.17" y2="569.1"/>
                <line class="y" x1="801.41" y1="378.7" x2="439.17" y2="575.7"/>
                <line class="y" x1="801.41" y1="385.3" x2="439.17" y2="582.31"/>
                <line class="y" x1="801.41" y1="391.9" x2="439.17" y2="588.91"/>
                <line class="y" x1="801.41" y1="398.5" x2="439.17" y2="595.51"/>
              </g>
            </g>
          </g>
        </g>
        <g class="z">
          <polygon class="aa" points="342.3 106.13 10.83 282.79 245.43 410.96 576.91 234.29 342.3 106.13"/>
        </g>
      </g>
      <g>
        <polygon class="n" points="553.3 221.27 270.66 371.91 470.7 481.19 753.35 330.55 553.3 221.27"/>
        <polygon class="ab" points="553.3 146.61 270.66 297.25 470.7 406.53 753.35 255.89 553.3 146.61"/>
        <g>
          <polygon class="ac" points="270.66 297.25 270.66 371.91 470.7 481.19 470.7 405.34 270.66 297.25"/>
          <polygon class="n" points="280.2 318.01 280.2 369.18 474.03 474.53 474.03 422.61 280.2 318.01"/>
          <polygon class="r" points="284.94 320.91 284.94 364.61 470.25 465.04 470.25 420.65 284.94 320.91"/>
          <g class="ad">
            <g class="t">
              <line class="u" x1="261.39" y1="312.17" x2="482.25" y2="433.05"/>
              <line class="u" x1="261.39" y1="317.8" x2="482.25" y2="438.68"/>
              <line class="u" x1="261.39" y1="323.43" x2="482.25" y2="444.31"/>
              <line class="u" x1="261.39" y1="329.06" x2="482.25" y2="449.94"/>
              <line class="u" x1="261.39" y1="334.69" x2="482.25" y2="455.56"/>
              <line class="u" x1="261.39" y1="340.32" x2="482.25" y2="461.19"/>
              <line class="u" x1="261.39" y1="345.95" x2="482.25" y2="466.82"/>
            </g>
          </g>
        </g>
        <polygon class="ac" points="744.45 317.44 744.45 273.74 753.11 269.07 753.19 269.17 753.19 255.88 470.67 405.29 470.67 481.13 753.19 330.54 753.19 319.01 744.45 317.44"/>
        <g class="ae">
          <g>
            <polygon class="n" points="744.45 273.3 744.45 324.47 470.89 472.69 470.89 420.77 744.45 273.3"/>
            <polygon class="w" points="744.45 273.74 744.45 317.44 471.12 464.99 471.12 420.59 744.45 273.74"/>
            <g class="af">
              <g>
                <line class="y" x1="768" y1="265" x2="459.12" y2="432.99"/>
                <line class="y" x1="768" y1="270.63" x2="459.12" y2="438.62"/>
                <line class="y" x1="768" y1="276.26" x2="459.12" y2="444.25"/>
                <line class="y" x1="768" y1="281.89" x2="459.12" y2="449.87"/>
                <line class="y" x1="768" y1="287.52" x2="459.12" y2="455.5"/>
                <line class="y" x1="768" y1="293.15" x2="459.12" y2="461.13"/>
                <line class="y" x1="768" y1="298.78" x2="459.12" y2="466.76"/>
              </g>
            </g>
          </g>
        </g>
        <g class="ag">
          <polygon class="ah" points="388.62 55.93 105.97 206.57 306.01 315.85 588.66 165.21 388.62 55.93"/>
        </g>
      </g>
      <g>
        <ellipse class="f" cx="494.72" cy="264.7" rx="157.72" ry="90.39"/>
        <g>
          <path class="ai" d="M341.11,102.54V257.73c0,47.84,69,86.63,154.17,86.63s154.18-38.78,154.18-86.63V102.54Z"/>
          <polygon class="aj" points="735.21 161.14 735.21 142.35 698.53 142.35 490.59 31.41 282.65 142.35 245.97 142.35 245.97 161.14 245.97 161.92 490.59 292.43 735.21 161.92 735.21 161.14"/>
          <g>
            <polygon class="b" points="735.21 161.14 735.21 142.35 698.53 142.35 490.59 31.41 282.65 142.35 245.97 142.35 245.97 161.14 245.97 161.92 490.59 292.43 735.21 161.92 735.21 161.14"/>
            <g class="ak">
              <rect class="al" x="490.59" width="306.47" height="397.05"/>
            </g>
          </g>
          <polygon class="am" points="490.59 11.83 245.97 142.35 490.59 272.86 735.21 142.35 490.59 11.83"/>
          <g>
            <polyline class="an" points="494.44 131.97 361.97 203.52 361.97 325.82"/>
            <g>
              <g>
                <g>
                  <path class="ao" d="M374.12,388.33A11.62,11.62,0,0,1,362.5,400h0a11.62,11.62,0,0,1-11.62-11.62v-39.4a11.62,11.62,0,0,1,11.62-11.62h0a11.62,11.62,0,0,1,11.62,11.62Z"/>
                  <g class="ap">
                    <g class="aq">
                      <path class="ar" d="M328.42,334.65c21.45,13.64,50.71,13.7,70.63-2.81,2.61-2.16-1.13-5.86-3.71-3.71-18.11,15-45,14.27-64.26,2-2.86-1.82-5.5,2.72-2.65,4.54Z"/>
                    </g>
                  </g>
                </g>
                <circle class="ao" cx="362.5" cy="326.97" r="15.02"/>
              </g>
              <g>
                <ellipse class="ar" cx="486.17" cy="135.75" rx="23.76" ry="14.46"/>
                <ellipse class="ao" cx="486.17" cy="131.89" rx="18.86" ry="11.48"/>
              </g>
            </g>
          </g>
        </g>
      </g>
      <polygon class="as" points="396.33 513.04 395.29 553.69 409.75 547.83 428.38 573.37 428.38 530.63 396.33 513.04"/>
      <g>
        <polygon class="f" points="915.71 522.83 424.86 785.85 510.29 832.4 1001.14 569.38 915.71 522.83"/>
        <g>
          <path class="at" d="M737.36,581.33a28.63,28.63,0,0,0-4.9,3.3l10.39-5.5A28.76,28.76,0,0,0,737.36,581.33Z"/>
          <g>
            <g>
              <rect class="g" x="425.69" y="585.2" width="553.66" height="112.97" transform="translate(-218.61 403.31) rotate(-27.9)"/>
              <path class="i" d="M425.26,788.49c14.64,27.65,41.6,42.06,60.23,32.2s21.86-40.27,7.23-67.92-41.6-42.06-60.23-32.19S410.63,760.84,425.26,788.49Z"/>
              <ellipse class="au" cx="458.99" cy="770.63" rx="38.03" ry="56.44" transform="translate(-307.25 304.36) rotate(-27.9)"/>
              <g class="av">
                <path class="aw" d="M442.64,812.81c14.64,27.65,41.61,42.06,60.23,32.2s21.86-40.27,7.23-67.92S468.49,735,449.86,744.9,428,785.16,442.64,812.81Z"/>
                <g>
                  <path class="g" d="M446.72,761.61l0,0,.31-.14Z"/>
                  <path class="ax" d="M451.16,760.31c10.62-1.63,23.62,6.76,31.18,21,8.51,16.08,7,33.66-3.25,40.21l1.38,2.56L988.89,602.38Z"/>
                </g>
              </g>
            </g>
            <ellipse class="g" cx="947.4" cy="512.03" rx="38.16" ry="56.64" transform="translate(-129.48 502.88) rotate(-27.9)"/>
          </g>
          <g class="ay">
            <rect class="az" x="435.36" y="624.14" width="680.46" height="40.14" transform="translate(-211.29 437.8) rotate(-27.9)"/>
          </g>
          <path class="ba" d="M792.22,594.59C777.58,567,750.61,552.54,732,562.4a26,26,0,0,0-3.74,2.42L620.5,621.88c18.3-5.92,42.46,8.33,56,34,14.64,27.65,11.4,58.05-7.23,67.92-.34.18-.7.34-1,.51l.07.13L788.2,660.92l-.16-.3C803.93,649.17,806,620.66,792.22,594.59Z"/>
          <g>
            <g>
              <polygon class="bb" points="814.03 644.88 814.74 624.41 850.19 616.48 767.8 585.54 730.98 613.7 814.03 644.88"/>
              <polygon class="bb" points="850.19 611.29 850.19 616.48 833.55 612.06 850.19 611.29"/>
              <polygon class="at" points="814.03 639.7 814.74 619.23 850.19 611.29 767.8 580.36 730.98 608.52 814.03 639.7"/>
            </g>
            <g>
              <polygon class="bb" points="693.54 623.14 665.05 679.27 703.65 670.25 732.95 690.81 750.98 623.77 693.54 623.14"/>
              <polygon class="bb" points="665.13 673.15 665.05 679.27 683.64 672.79 686.61 660.39 665.13 673.15"/>
              <polygon class="at" points="693.54 617.09 665.05 673.2 703.65 664.19 732.95 684.75 750.98 617.71 693.54 617.09"/>
            </g>
            <g>
              <path class="bb" d="M783.42,587.88c0,23.76-31.62,43-70.64,43s-70.63-19.24-70.63-43,31.61-43,70.63-43S783.42,564.13,783.42,587.88Z"/>
              <path class="at" d="M783.42,582.4c0,23.76-31.62,43-70.64,43s-70.63-19.25-70.63-43,31.61-43,70.63-43S783.42,558.64,783.42,582.4Z"/>
              <ellipse class="bc" cx="712.78" cy="578.74" rx="45.11" ry="27.46"/>
              <ellipse class="bd" cx="712.78" cy="580.57" rx="59.28" ry="36.09"/>
            </g>
          </g>
          <ellipse class="be" cx="712.78" cy="578.74" rx="36.07" ry="21.96"/>
        </g>
      </g>
      <g>
        <line class="bf" x1="766.34" y1="210.09" x2="848.89" y2="474.49"/>
        <g>
          <path class="bg" d="M700.28,287.31a6.14,6.14,0,0,1-5.64-3.4,6.55,6.55,0,0,1,2.79-8.66l73.12-39a6.27,6.27,0,0,1,8.59,2.63,6.57,6.57,0,0,1-2.82,8.72l-73.21,39A6.32,6.32,0,0,1,700.28,287.31Z"/>
          <path class="bg" d="M712.81,328.59a6.19,6.19,0,0,1-5.66-3.43,6.54,6.54,0,0,1,2.8-8.66l73.33-38.83a6.3,6.3,0,0,1,8.62,2.68,6.57,6.57,0,0,1-2.83,8.73l-73.41,38.78A6.26,6.26,0,0,1,712.81,328.59Z"/>
          <path class="bg" d="M725.87,370.69a6.23,6.23,0,0,1-5.73-3.36,6.53,6.53,0,0,1,2.64-8.72l72.79-40a6.34,6.34,0,0,1,8.69,2.55,6.56,6.56,0,0,1-2.67,8.79l-72.88,40A6.27,6.27,0,0,1,725.87,370.69Z"/>
          <path class="bg" d="M738.46,412.21a6.28,6.28,0,0,1-5.75-3.39,6.52,6.52,0,0,1,2.66-8.73l73-39.74a6.38,6.38,0,0,1,8.72,2.6,6.55,6.55,0,0,1-2.69,8.8l-73.13,39.7A6.27,6.27,0,0,1,738.46,412.21Z"/>
          <path class="bg" d="M750.65,453.26a6.34,6.34,0,0,1-5.71-3.52,6.52,6.52,0,0,1,2.82-8.69l73.94-38.24a6.41,6.41,0,0,1,8.69,2.79,6.54,6.54,0,0,1-2.85,8.75l-74,38.19A6.32,6.32,0,0,1,750.65,453.26Z"/>
          <path class="bg" d="M763.35,495.11a6.38,6.38,0,0,1-5.72-3.55,6.52,6.52,0,0,1,2.82-8.7l74.15-38a6.45,6.45,0,0,1,8.72,2.83,6.54,6.54,0,0,1-2.86,8.76l-74.24,38A6.32,6.32,0,0,1,763.35,495.11Z"/>
        </g>
        <line class="bf" x1="687.43" y1="243.85" x2="770.45" y2="512.54"/>
      </g>
      <g>
        <path class="f" d="M366.06,704.84c-.28-.15-.57-.25-.85-.37l-15.54-8.15c-.24-.15-.46-.32-.71-.45a11.25,11.25,0,0,0-2.42-.91l.08-.16-207.78-110c-.25-.16-.48-.33-.74-.47a11.26,11.26,0,0,0-3.26-1.12l.09-.19-50.24-2,25.14,39.22a13.45,13.45,0,0,0,3.11,4.86l.46.71.11-.22a11,11,0,0,0,2,1.4c.25.13.51.22.77.34l207.81,110,.16-.31a11.16,11.16,0,0,0,2.11,1.49,11,11,0,0,0,1.06.49l15.4,8.07c.22.13.42.28.64.4,7.94,4.2,19.42-1.94,25.66-13.71S374,709,366.06,704.84Z"/>
        <g class="bh">
          <polygon class="bi" points="101.91 570.1 130.62 614.89 152.15 572.11 101.91 570.1"/>
          <ellipse class="q" cx="97.18" cy="564.07" rx="18.52" ry="20.96"/>
        </g>
        <g>
          <path class="at" d="M233.51,624.26a12.07,12.07,0,0,1,2.09,1.41l-4.43-2.35A12.29,12.29,0,0,1,233.51,624.26Z"/>
          <ellipse class="bj" cx="144.03" cy="594.74" rx="24.13" ry="16.26" transform="translate(-448.99 443.77) rotate(-62.1)"/>
          <g>
            <rect class="bj" x="224.29" y="532.04" width="48.13" height="235.88" transform="translate(-442.29 565.32) rotate(-62.1)"/>
            <ellipse class="i" cx="352.11" cy="704.91" rx="24.13" ry="16.26" transform="translate(-435.63 686.27) rotate(-62.1)"/>
            <g class="bk">
              <rect class="az" x="208.67" y="506.1" width="17.1" height="289.9" transform="translate(-459.8 538.38) rotate(-62.1)"/>
            </g>
            <path class="bb" d="M383.74,694.24l-16.84-8.83c-.24-.15-.46-.32-.72-.45-7.94-4.2-19.42,1.94-25.66,13.72s-4.86,24.74,3.08,28.94a11.47,11.47,0,0,0,1.06.49l16.56,8.67Z"/>
            <path class="at" d="M386.37,722.86c-6.24,11.78-17.73,17.92-25.66,13.71s-9.32-17.15-3.08-28.93,17.72-17.92,25.66-13.71S392.61,711.08,386.37,722.86Z"/>
          </g>
        </g>
      </g>
      <polygon class="g" points="174.19 169.01 182.96 185.04 198.99 193.81 182.96 202.58 174.19 218.62 165.42 202.58 149.38 193.81 165.42 185.04 174.19 169.01"/>
      <polygon class="g" points="853.82 704.55 860.93 717.55 873.93 724.66 860.93 731.77 853.82 744.77 846.71 731.77 833.71 724.66 846.71 717.55 853.82 704.55"/>
      <polygon class="g" points="974.29 53.67 979.19 62.63 988.15 67.53 979.19 72.42 974.29 81.38 969.4 72.42 960.44 67.53 969.4 62.63 974.29 53.67"/>
      <polygon class="g" points="101.21 244.35 106.11 253.31 115.07 258.21 106.11 263.11 101.21 272.06 96.31 263.11 87.36 258.21 96.31 253.31 101.21 244.35"/>
      <path class="g" d="M678.35,92.36c3.77,0,3.77-5.85,0-5.85s-3.77,5.85,0,5.85Z"/>
      <path class="g" d="M485.9,640.7l-.77,0c-.27,0-.39-.16.42.06a2.65,2.65,0,0,1,1.45,3.4c.1-.2.38-.36-.16.2a4.68,4.68,0,0,0,.55-.69,3.1,3.1,0,0,0,.31-2.26,2.13,2.13,0,0,0-1.48-1.48,3.42,3.42,0,0,0-4,3.17,2.74,2.74,0,0,0,2,2.6,8,8,0,0,0,1.68.19,2.61,2.61,0,0,0,0-5.22Z"/>
      <path class="g" d="M231.36,764.27a13,13,0,0,0-1.59,1.85,3.58,3.58,0,0,0-.51,1.14,4.09,4.09,0,0,0-.07,1.51,4.15,4.15,0,0,0,1,2.14l.75.58a2.74,2.74,0,0,0,1.37.44,3.72,3.72,0,0,0,2.35-.44h0l-2.76.36a3.64,3.64,0,0,0,1.34.15,3.83,3.83,0,0,0,3.2-1.86,3.23,3.23,0,0,0,0-3.33,3.88,3.88,0,0,0-1.8-1.57c-.26-.11-.5-.17-.75-.27l.85.36-.08,0,.73,5.63a8.5,8.5,0,0,0,.59-.78,4.8,4.8,0,0,0,.51-1.9l-.13,1v0l-.37.88a1.13,1.13,0,0,1,.13-.21l-.58.75a13.54,13.54,0,0,1,1-1.06,3.73,3.73,0,0,0-5.28-5.28Z"/>
      <path class="g" d="M995.39,461.11a5.49,5.49,0,0,0-.72-1.93,2.15,2.15,0,0,0-3.66,0,5.49,5.49,0,0,0-.72,1.93,2.65,2.65,0,1,0,5.1,0Z"/>
      <path class="g" d="M816,759.92c3.09,0,3.09-4.8,0-4.8s-3.09,4.8,0,4.8Z"/>
    </g>
  </g>
</svg>
