<svg xmlns="http://www.w3.org/2000/svg" width="572.74" height="459.06" viewBox="0 0 572.74 459.06">
  <defs>
    <style>
      .a {
        isolation: isolate;
      }

      .b {
        fill: #ce6849;
      }

      .c {
        fill: #efba50;
      }

      .d {
        fill: #75cfd3;
      }

      .e {
        fill: #afaf3e;
      }

      .f {
        fill: #fff3dc;
      }

      .g {
        fill: #e5c3a3;
      }

      .h {
        fill: #e54141;
      }

      .i {
        fill: #f55;
      }

      .j {
        fill: #fff2d9;
      }

      .k {
        fill: #ddb08c;
      }

      .l {
        fill: #ffb24d;
      }

      .m {
        fill: #fc933d;
      }

      .n {
        fill: #927ace;
      }

      .o {
        fill: #7f67ba;
      }

      .p {
        fill: #ffce61;
      }

      .q {
        fill: #ffc166;
      }

      .r {
        fill: #c4b8e8;
      }

      .s {
        fill: #ffa9a9;
      }

      .t {
        fill: #f4c7a2;
      }

      .u {
        fill: #7d65b7;
      }

      .v {
        fill: #9d85cc;
      }

      .w {
        fill: #915e54;
      }

      .x {
        fill: #7f4b44;
      }

      .y {
        fill: #ffb243;
      }

      .z {
        fill: #f95858;
      }

      .aa {
        fill: #e54242;
      }

      .ab {
        fill: #ffc3b0;
      }

      .ac {
        fill: #ffc885;
      }

      .ad {
        fill: #eac1ea;
      }

      .ae {
        fill: #bf8b84;
      }

      .af {
        fill: #a33f2b;
      }

      .ag {
        fill: #8c2f1f;
      }

      .ah {
        fill: #ffcd9c;
      }

      .ai {
        fill: #5298cc;
      }

      .aj {
        fill: #3a88af;
      }

      .ak {
        fill: #543a4b;
      }

      .al {
        fill: #664d5c;
      }

      .am {
        opacity: 0.3;
      }

      .am, .br, .bx {
        mix-blend-mode: overlay;
      }

      .an {
        fill: #b9e1f9;
      }

      .ao {
        fill: #fff0dc;
      }

      .ap {
        fill: #bc5642;
        opacity: 0.5;
        mix-blend-mode: multiply;
      }

      .aq {
        fill: #ef8f6f;
      }

      .ar {
        fill: #745e84;
      }

      .as {
        fill: #d1bfa3;
      }

      .at {
        fill: #d8d5ca;
      }

      .au {
        fill: #987da8;
      }

      .av {
        fill: #826993;
      }

      .aw {
        fill: #654d77;
      }

      .ax {
        fill: #fff9e9;
      }

      .ay {
        fill: #5795aa;
      }

      .az {
        fill: #78c7dd;
      }

      .ba {
        fill: #544345;
      }

      .bb {
        fill: #473437;
      }

      .bc {
        fill: #f4e9dc;
      }

      .bd {
        fill: #f9f1e8;
      }

      .be {
        fill: #edd9c3;
      }

      .bf {
        fill: #e5c9ae;
      }

      .bg {
        fill: #f4e3d3;
      }

      .bh {
        fill: #c6a98d;
      }

      .bi {
        fill: #af8461;
      }

      .bj {
        fill: #594547;
      }

      .bk {
        fill: #443235;
      }

      .bl {
        fill: #d6c2b4;
      }

      .bm {
        fill: #7a646f;
      }

      .bn {
        fill: #42323a;
      }

      .bo {
        fill: #d3bca9;
      }

      .bp {
        fill: #3f3137;
      }

      .bq {
        fill: #3a2c32;
      }

      .br, .bs {
        fill: #b8faff;
      }

      .bt {
        fill: #2b1f25;
      }

      .bu {
        fill: #9e4736;
      }

      .bv {
        fill: #c46c51;
      }

      .bw {
        fill: #af5641;
      }

      .bx {
        opacity: 0.4;
      }

      .by {
        fill: #fff4e3;
      }
    </style>
  </defs>
  <title>banner</title>
  <g class="a">
    <g>
      <g>
        <polygon class="b" points="471.25 436.4 440.52 433.75 436.91 456.25 467.63 458.89 471.25 436.4"/>
        <rect class="c" x="365.35" y="436.22" width="31.21" height="22.84"/>
        <rect class="d" x="379.9" y="413.19" width="31.21" height="22.85"/>
        <rect class="c" x="372.05" y="390.33" width="32.82" height="22.85"/>
        <rect class="d" x="405.96" y="436.22" width="31.21" height="22.84"/>
        <rect class="e" x="376.98" y="367.6" width="31.21" height="22.84"/>
        <rect class="b" x="348.57" y="413.2" width="31.21" height="22.85"/>
        <rect class="e" x="328.69" y="436.22" width="35.49" height="22.84"/>
        <rect class="b" x="295.17" y="436.22" width="31.22" height="22.84"/>
        <rect class="c" x="363.24" y="344.81" width="31.21" height="22.85"/>
        <rect class="d" x="355.96" y="321.94" width="31.21" height="22.85"/>
        <rect class="d" x="340.62" y="367.6" width="31.21" height="22.85"/>
        <rect class="b" x="335.98" y="390.33" width="31.21" height="22.85"/>
        <rect class="c" x="311.17" y="413.2" width="31.21" height="22.84"/>
        <path class="f" d="M369.36,338.95V327.57l2.6-.75h2.58v12.13Z"/>
        <path class="f" d="M385.05,350.1v1.51l-.81,1.54h-5.61v1.37h4.45c1.21,0,2.06.62,2.06,1.51v4.69c0,.88-.85,1.51-2.06,1.51h-9.63v-3H380v-1.68h-6.53V350.1Z"/>
        <g>
          <path class="f" d="M379.27,408.27V396.89l2.6-.75h2.58v12.13Z"/>
          <path class="f" d="M388.4,408.27c-1.21,0-2.06-.62-2.06-1.51v-9.11c0-.89.86-1.51,2.06-1.51H396c1.21,0,2.08.62,2.08,1.51v9.11c0,.88-.85,1.51-2.08,1.51Zm3.1-9.08v6.06h1.35V399.2Z"/>
        </g>
        <path class="f" d="M351.3,449.37v4.69c0,.89-.86,1.51-2.09,1.51h-7.55c-1.21,0-2.06-.62-2.06-1.51V445c0-.88.85-1.51,2.06-1.51h9.42V445l-.8,1.55h-5.51v1.37h4.44C350.44,447.86,351.3,448.49,351.3,449.37Zm-5.18,1.51h-1.35v1.68h1.35Z"/>
        <path class="f" d="M363.13,385.25c0,.88-.85,1.5-2.06,1.5h-9.63v-3H358v-1.68h-3.74v-1.89l2.74-1.85v-.64h-4.71l-.83-1.54v-1.51H363v2.89l-2,2c1.3.07,2.11.59,2.11,1.58Z"/>
        <path class="f" d="M419.34,445.25h-4.88V442.2h10.18v3.12l-4,9h-4.8v-1l3.51-7.69Z"/>
        <path class="f" d="M389.53,383.74v-3.07c0-.88,1-1.45,2.13-1.45v-.35c-1.13,0-2.13-.57-2.13-1.46v-2.79c0-.88.87-1.51,2.08-1.51h7.55c1.21,0,2.06.62,2.06,1.51v2.79c0,.88-1,1.46-2.11,1.46v.35c1.14,0,2.11.57,2.11,1.45v3.07c0,.89-.85,1.51-2.06,1.51h-7.55C390.38,385.25,389.53,384.63,389.53,383.74Zm5.18-6.2h1.35v-1.37h-1.35Zm0,4.69h1.35v-1.68h-1.35Z"/>
        <path class="f" d="M329.61,428.13v.66h6.51v3H324.43v-4a1.91,1.91,0,0,1,1.4-2.06l5.13-2.36v-.64h-5.71l-.83-1.54v-1.51h9.63c1.21,0,2.06.63,2.06,1.51V424a1.87,1.87,0,0,1-1.4,2.06Z"/>
        <path class="f" d="M365.78,418.92v1.51l-2.22,4.66v.64h2v-2.2h5.19V431h-5.19v-2.28h-7.31v-3.71l2.91-6.14Z"/>
        <path class="f" d="M456.25,440.43l-.35,1.49-3.26,4.31-.14.64,2,.25L455,445l5.11.64L458.38,453l-5.11-.64.52-2.25-7.2-.9.85-3.66,4.29-5.68Z"/>
        <path class="f" d="M373.9,447.67V443c0-.89.85-1.51,2.06-1.51h7.55c1.23,0,2.08.62,2.08,1.51v9.11c0,.88-.85,1.51-2.08,1.51h-9v-3h5.92v-1.37H376C374.75,449.19,373.9,448.57,373.9,447.67Zm5.16-1.51h1.35v-1.66h-1.35Z"/>
        <path class="f" d="M390.9,430.55V419.17l2.6-.75h2.58v12.13Z"/>
        <path class="f" d="M356.08,400h-4.87V396.9h10.17V400l-4,9h-4.8v-1l3.5-7.69Z"/>
        <path class="f" d="M319.06,441.7v1.5l-.81,1.54h-5.6v1.37h4.45c1.21,0,2.06.62,2.06,1.51v4.69c0,.89-.85,1.51-2.06,1.51h-9.63v-3H314v-1.68h-6.53V441.7Z"/>
      </g>
      <g>
        <g>
          <path class="g" d="M131.44,342.88l-56.17,6.3,16.94,26.25,47.13.88C132.64,364.28,130.7,356,131.44,342.88Z"/>
          <path class="h" d="M46.34,381.05s-15.91-12.74-3.79-29.56l46.06-10.16,50.54.4.28,3.14s-48,1.69-48.89,4.07.83,19.6,5.48,20.94S142.22,374,142.22,374l.11,4.59Z"/>
          <path class="i" d="M87.49,341.58,42.55,351.5c-12.13,16.81,3.79,29.56,3.79,29.56l48.38-1.26C91,378.22,82.29,355.56,87.49,341.58Z"/>
          <polygon class="j" points="51.59 381.47 74.67 378.69 75.7 397.53 53.7 398.81 51.59 381.47"/>
          <polygon class="k" points="75.12 386.91 74.67 378.69 51.59 381.47 52.26 387.07 75.12 386.91"/>
          <path class="l" d="M133,398.23c2.3-5.73,3.35-15-1.87-20.67l-60.53-2.46L47.9,380.51l.67,2.94,21-2.87s3.93,13.07,1.21,15-19.13,2.3-19.13,2.3l1.27,4.39Z"/>
          <path class="m" d="M131.08,377.55l-60.53-2.46c3.45.14,7.1,16.61,6,26l56.4-2.82C135.25,392.5,136.3,383.26,131.08,377.55Z"/>
          <path class="g" d="M145.92,400.45l-35-1.7-.54,18.05,33.39,3.45C140.92,412.52,142.09,408.27,145.92,400.45Z"/>
          <path class="n" d="M149.47,402.33l1.36-2.6-35.76-4.86-68.13,7.48S36.47,415,50.78,424.15l47.13,6.24,49.41-8,.6-2.59-28-2.53s-6.74-10.11-3.78-17.43Z"/>
          <path class="o" d="M147.92,419.78l-28-2.53s-6.74-10.11-3.78-17.43l33.32,2.51,1.36-2.6-35.76-4.86-4.17.46a33.06,33.06,0,0,0-.75,6.95c0,10.43,4.77,19.51,11.8,24.22l25.38-4.12Z"/>
          <polygon class="j" points="6.63 424.52 61.44 424.52 61.44 453.08 4.97 456.07 6.63 424.52"/>
          <polygon class="g" points="6.44 424.3 57.01 423.61 62.76 433.87 6.1 434.47 6.44 424.3"/>
          <path class="p" d="M32.8,452.31c3.41-.29,6.45-3,8-7,3.59-9.73,4.64-19.43.91-19.43L.9,427.17V422l51-2,89.28,3c7.27,0,12.54,36.15-5.33,36.15H0v-4Z"/>
          <path class="l" d="M141.15,422.92l-89.28-3-.41,0a63.73,63.73,0,0,1,.41,6.89,58.39,58.39,0,0,1-9.23,32.2h93.19C153.69,459.06,148.42,422.92,141.15,422.92Z"/>
          <path class="m" d="M74.19,426.17H64.71c.79,10.65-1.38,18.42-7.16,27.26h9.93C73.3,443.52,74.41,437.09,74.19,426.17Z"/>
          <path class="m" d="M83.13,439.21A37.93,37.93,0,0,1,81,445.73h52.55a38.4,38.4,0,0,0,2-6.52Z"/>
          <path class="q" d="M87.29,382.94a51.68,51.68,0,0,1,1.15,6.56h35.3a54,54,0,0,0-1.26-6.56Z"/>
          <path class="r" d="M96.31,403,51,407.21c-.66,2.49-1.05,4.11,0,7.17l45.28-1.2C95,409.51,94.72,407.06,96.31,403Z"/>
          <path class="s" d="M52.07,354.67l-7.84,2.24c-1.62,6.7-1.07,10.47,2.12,17l7.94-1A30.26,30.26,0,0,1,52.07,354.67Z"/>
        </g>
        <g>
          <path class="t" d="M206.84,351.53l-27.14-1.8-.41,19.2,25.87,3.67C202.5,363.95,203,359.24,206.84,351.53Z"/>
          <path class="u" d="M209.6,353.53l1.05-2.76-27.72-5.17-52.8,8s-8.11,13.45,3,23.19l36.53,6.64,38.29-8.54.47-2.76L186.7,369.4s-5.23-10.76-2.93-18.54Z"/>
          <path class="v" d="M183.32,373.18s-6.78-10.54-2.15-27.32l-51,7.69s-8.11,13.45,3,23.19l36.53,6.64,36.89-8.23Z"/>
          <polygon class="u" points="133.1 376.74 130.92 374.49 184.41 372.81 207.92 374.85 196.85 377.98 143.91 378.37 133.1 376.74"/>
          <path class="t" d="M220.51,380.31,196,377.47l-1.26,18,23.41,1.39C216.09,390.36,216.46,386.24,220.51,380.31Z"/>
          <path class="w" d="M133.74,395.64c-2.39-5.49-3.43-14.3,2.17-19.71l64.47-1.87,24.06,5.34-.74,2.8-22.28-2.9s-4.3,12.43-1.42,14.26,20.35,2.34,20.35,2.34L219,400.09Z"/>
          <polygon class="x" points="133.99 396.15 133.1 393.78 195.91 396.15 197.4 400.3 133.99 396.15"/>
          <path class="x" d="M223.7,382.21l.74-2.8-24.06-5.34c-8.59,2.89-6.24,20-5.8,24.56L219,400.09l1.39-4.18s-17.48-.51-20.35-2.34,1.42-14.26,1.42-14.26Z"/>
          <polygon class="j" points="131.35 395.82 166.51 401.26 156.95 427.42 127.69 428.95 131.35 395.82"/>
          <polygon class="t" points="131.35 395.82 130.39 404.52 162.29 408.92 154.16 427.57 156.95 427.42 166.51 401.26 131.35 395.82"/>
          <path class="p" d="M221.24,433.65s13.43-16.77,1.24-33.36l-94.6-5.43-.27,3.1s27.46,1.67,28.39,4-.29,22.66-5,24-26.25.7-26.25.7l-.12,4.53Z"/>
          <path class="y" d="M222.47,400.28l-62-3.56A80.47,80.47,0,0,1,157.65,432l63.59,1.63S234.67,416.87,222.47,400.28Z"/>
          <polygon class="t" points="248.82 434.58 194.9 434.58 194.9 454.83 250.45 456.95 248.82 434.58"/>
          <path class="z" d="M221.37,454.46c-13.74-.83-11.93-18.94-7-18.94l40.1.94v-3.67L118.19,428c-7.15,0-12.38,31.08,8.56,31.08H255.34v-2.82Z"/>
          <path class="aa" d="M255.34,456.24l-34-1.78c-13.74-.83-11.93-18.94-7-18.94l40.1.94v-3.67l-45.33-1.6c-7.65,0-3.8,27.87,4.32,27.87h41.91Z"/>
          <polygon class="aa" points="207.94 433.73 117.46 428.08 220.18 431.66 207.94 433.73"/>
          <path class="ab" d="M134.65,432.79h-9.29c-2.62,8-2.35,13.76.79,23h9.28C133.6,446.79,132.88,440.66,134.65,432.79Z"/>
          <path class="ac" d="M165.56,426.38h9.28c3.43-8.54,3.76-14.75,1.57-24.63h-9.28C168,411.37,168.14,417.94,165.56,426.38Z"/>
          <ellipse class="ac" cx="186.35" cy="413.62" rx="4.15" ry="3.95"/>
          <ellipse class="ad" cx="169.35" cy="359.61" rx="3.11" ry="3.95"/>
          <polygon class="ae" points="180.95 380.3 138.29 381.63 137.69 385.78 179.77 388.15 180.95 380.3"/>
          <polygon class="ad" points="160.11 357.24 133.25 360.59 133.25 364.35 160.11 362.57 160.11 357.24"/>
        </g>
      </g>
      <g>
        <path class="af" d="M179,198.24C149,234.9,81.46,195.3,78.87,115.94c0,0-12.52-22.91,10-64,6.48-11.84,22.74-17.48,22.74-17.48s5.68-13.53,15.3-17.55,20.19-3,20.19-3S158.62-3.73,181.93.72C204.48,5,228.42,25.18,228.42,25.18S258,24.55,279,89.86C296.27,143.69,179,198.24,179,198.24Z"/>
        <path class="ag" d="M140.16,98.9c-13.39-29.46-13.48-60.8-2.68-84.65a41,41,0,0,0-10.62,2.69c-9.62,4-15.3,17.55-15.3,17.55S95.31,40.13,88.83,52c-22.47,41.07-10,64-10,64C81.46,195.3,149,234.9,179,198.24c0,0,38.5-17.92,68.12-43.35C209.14,170.73,161.6,146.07,140.16,98.9Z"/>
        <polygon class="ah" points="142.47 219.36 150.8 207.07 159.95 211.57 154.76 225.23 142.47 219.36"/>
        <path class="ai" d="M153.42,229.38c4.53,0,7.7,5.55,8,10.44,2.39,39.08,43.32,41.88,60.06,41.54l2.34,5.6s-30.38,4.32-51.6-7.4c-24.68-13.63-26.62-48.18-26.62-48.18Z"/>
        <path class="aj" d="M175.36,277c-20.76-11.37-25.56-37.3-26.58-45.58l-3.38.85s2,34.56,26.84,48.19c21.41,11.72,52,7.4,52,7.4l-1.27-3C213.78,285.55,191.84,286,175.36,277Z"/>
        <path class="ak" d="M218.8,344.76l-6.45,89.55-3.54,0L203.47,341a8.33,8.33,0,0,1,4.79-7.6c3-1.43,6.18-.79,7.71,1.56A15.72,15.72,0,0,1,218.8,344.76Z"/>
        <path class="al" d="M165.6,318l-45,16.37L130,352l82.81.32s7.58-13.27,2.47-18.2C211.19,330.19,165.6,318,165.6,318Z"/>
        <path class="ak" d="M156.63,341.68s0-15.13,16.86-21.49l-4.29-1.45-27.86,8.74,15.3,14.76Z"/>
        <path class="ak" d="M186.73,336.21C168,333.52,150.12,331.4,148,324.44l-27.4,10L130,352l84,1.49s3-8.46,3.07-14.24C209.81,342.3,194.14,347,186.73,336.21Z"/>
        <path class="ai" d="M161.55,244.56c1.63-13.68-16-35.3-31.51-15.84-14.24,17.87-26.69,81.44-9.79,111.35,22.47,2.65,29-19.5,53.23-19.88C161.4,308.23,157.18,281.44,161.55,244.56Z"/>
        <path class="aj" d="M139.28,297.45c-10.67-32.5-4.18-75.08-9.24-68.72-14.24,17.87-26.69,81.44-9.79,111.35,14.56,1.72,22.43-7,32.76-13.42A127.91,127.91,0,0,1,139.28,297.45Z"/>
        <g class="am">
          <path class="an" d="M161.47,292.41a132.81,132.81,0,0,1-1.59-21.47c-8.12-4.42-26.59-11.73-45-.25a173.2,173.2,0,0,0-2.76,28.41C125.81,295,146.11,290.92,161.47,292.41Z"/>
        </g>
        <path class="ai" d="M137.82,227.56a8.78,8.78,0,0,1,7.09,9.92c-4.87,38.25,34.81,48.74,51.72,51l1.31,5.79s-31.38-.51-50.56-15.16c-15.09-11.52-17.92-30.73-18.17-41.94a9.42,9.42,0,0,1,8.6-9.6Z"/>
        <path class="aj" d="M152.41,277.56c-15.21-11.53-18.07-30.73-18.32-41.94-.07-2.79,1.58-7.61,3.5-9.39-4.79.62-9.66,6.83-9.55,11.66.25,11.21,3.93,30.59,19.14,42.12,19.34,14.65,51,15.16,51,15.16l-.65-2.82C187.44,291.44,166.61,288.32,152.41,277.56Z"/>
        <path class="ao" d="M207.86,434.55h16.69s-9.57-6.47-12.11-6.28S207.86,434.55,207.86,434.55Z"/>
        <polygon class="an" points="224.92 287.87 222.55 280.5 214.9 279.68 217.45 289.43 224.92 287.87"/>
        <circle class="aj" cx="219.81" cy="285.14" r="1.32"/>
        <path class="al" d="M199.3,346.11l2.66,88.2H198.4l-14.85-91.87a7.28,7.28,0,0,1,4-7.49,6.27,6.27,0,0,1,7.88,1.54A16.74,16.74,0,0,1,199.3,346.11Z"/>
        <path class="ak" d="M198.53,367.27c-4.13.7-9.07-8.13-11-19.73a52,52,0,0,1-.7-12.11c-2.33,1.56-6.18,4.86-5.76,7.54L198.4,434.3H202l-2-67.7A3.16,3.16,0,0,1,198.53,367.27Z"/>
        <polygon class="an" points="149.57 233.7 153.94 224.28 143.29 216.35 138.51 220.04 149.57 233.7"/>
        <polygon class="an" points="155.85 231.51 152.58 224.82 155.31 223.18 156.51 227.65 155.85 231.51"/>
        <path class="ap" d="M163.06,249.71a46.27,46.27,0,0,1-1.42-7.5,19.19,19.19,0,0,0-.21-2.21c0-.07,0-.12,0-.18a14.29,14.29,0,0,0-2-6.45,26.69,26.69,0,0,0-3-5l.13-.76-1.11-4.11,4.55-12-9.15-4.51-6.7,9.89-.81-.6L138.51,220l1.2,1.48c-3.19.94-6.47,3.19-9.66,7.2-.12.15-.24.33-.36.49C150.25,217.67,135.14,253.18,163.06,249.71Z"/>
        <path class="ah" d="M174.84,226.32c38.79,12.47,64.31,4.49,88.68-61.46,24.77-67-8.93-92.87-49-102s-80.81,2.81-96.33,66.67S150.13,218.38,174.84,226.32Z"/>
        <path class="ag" d="M146.48,200.87c20.57-35.54,16.14-51.17,16.24-61.61.56-57.18,72.12-84.76,43.26-93.74-74.12-23.05-153.59,118.71-83.71,149.7A68,68,0,0,0,146.48,200.87Z"/>
        <path class="ah" d="M155.83,190.52c-13.4-11.12-32.14-16.21-29.93-1.4s20.35,28.17,26.94,21.92S165.71,198.72,155.83,190.52Z"/>
        <path class="aq" d="M151.91,193.64c-8.52-7.07-20.43-10.31-19-.9s12.93,17.91,17.12,13.94S158.19,198.85,151.91,193.64Z"/>
        <path class="ah" d="M154.48,200.18c-5-4.11-11.9-6-11.09-.5s7.54,10.43,10,8.12S158.14,203.22,154.48,200.18Z"/>
        <path class="af" d="M213.31,36.79c-6.41-14.56-30.24-15.58-53.22-2.28s-36.41,35.88-30,50.43,30.24,15.58,53.22,2.29S219.72,51.35,213.31,36.79Z"/>
        <polygon class="ar" points="245.49 253.7 255.69 272.83 236.15 291.19 220.84 280.15 245.49 253.7"/>
        <polygon class="as" points="245.31 257.37 252.23 272.1 232.69 290.46 217.38 279.43 240.21 253.91 245.31 257.37"/>
        <polygon class="at" points="248.23 270.59 236.75 253.55 221.82 274.85 248.23 270.59"/>
        <polygon class="au" points="220.04 263.32 255.26 272.88 205.04 295.12 203.97 293.61 220.04 263.32"/>
        <polygon class="av" points="221.54 264.91 255.26 272.88 230.41 297.9 204.53 295.06 221.54 264.91"/>
        <polygon class="aw" points="218.54 276.45 221.96 269.62 249.41 276.04 240.81 281.77 218.54 276.45"/>
        <path class="ao" d="M196.94,434.55h14.5s-8.31-6.47-10.52-6.28S196.94,434.55,196.94,434.55Z"/>
        <g>
          <path class="aq" d="M233,165.37c7-14,13.09-14.71,18.91-11.17s9.17,10,2,24.11-13.58,13.38-19.33,9.79S226,179.35,233,165.37Z"/>
          <path class="ax" d="M232.54,167.13c6.4-12.83,12.38-13.11,18.19-9.55s9.25,9.62,2.76,22.49-12.14,12.13-19,10.5S226.17,179.91,232.54,167.13Z"/>
          <path class="aq" d="M210.06,196.54a5.45,5.45,0,0,0,7.3-2.71,6.65,6.65,0,0,1-.11,2.34,5.51,5.51,0,0,1-7.78,3.66,7.81,7.81,0,0,1-4.6-8.78,5.05,5.05,0,0,1,.47-.94A7.92,7.92,0,0,0,210.06,196.54Z"/>
          <path class="ay" d="M237.75,177.33c2.72-3,6.69-3.51,8.88-1.2s1.71,6.61-1,9.59-6.7,3.49-8.86,1.18S235,180.29,237.75,177.33Z"/>
          <path class="az" d="M240.22,180c1-1.1,2.48-1.29,3.29-.44a2.7,2.7,0,0,1-.38,3.55c-1,1.1-2.48,1.3-3.28.44A2.7,2.7,0,0,1,240.22,180Z"/>
          <path class="aq" d="M186.33,146.45c6.57-15.37,13.12-15.82,19.44-11.61,6.13,4.12,9.66,11.07,2.95,25.42-6.45,13.78-12.93,13.27-19,9.82C183.49,166.53,180,161.22,186.33,146.45Z"/>
          <path class="ax" d="M186,148.35c6-13.95,12.41-14,18.7-9.84,6.12,4,9.73,10.49,3.64,23.51-5.88,12.57-11.54,12-18.58,10.49S180.22,161.81,186,148.35Z"/>
          <path class="ay" d="M192.55,160c2.06-3.4,6-4.54,8.77-2.55s3.22,6.23,1.18,9.52-5.86,4.4-8.58,2.55S190.51,163.41,192.55,160Z"/>
          <path class="az" d="M195.74,162.28a2.29,2.29,0,0,1,3.23-.94,2.65,2.65,0,0,1,.45,3.53,2.28,2.28,0,0,1-3.2.94A2.63,2.63,0,0,1,195.74,162.28Z"/>
          <path class="af" d="M249,139.59c11.21-.48,19.62,11.71,20.68,16l5.69-4c-2.17-7.22-12.63-19-24.63-18.3Z"/>
          <path class="af" d="M194.52,117.87c12.37-3,23.42,8,25,11.8l4.8-4.92c-3-6.86-16.31-18.26-30.08-14.86Z"/>
          <path class="aq" d="M183.55,196.74c7.16,19.39,21.75,18.84,29.11,16.5l1,.56c-5.35,3-25.93,8.23-33.63-19.06Z"/>
        </g>
        <path class="ah" d="M206.16,296.12c1.94.29,4.17.06,4.42-.69s-1.44-.46-2.74-.85-1.56-.43-1.43-.72,1.68,0,3.45.11c2.23.16,3.73-.06,4-.81s-1.31-.5-3.26-.84c-1.7-.3-2.5-.34-2.29-1.07.08-.35,1.26-.27,3.14-.47,2.15-.23,3.5-.83,3.49-1.43,0-.83-1-.12-3.46-.17-3.24,0-4.11.39-5.51-.77s4.83-2.33,3.88-3.47c-1.26-1.5-11.74,3.55-12.26,5.78C196.79,294,200,295.18,206.16,296.12Z"/>
        <polygon class="an" points="198.91 295.56 197.94 287.88 190.56 285.68 191.28 295.72 198.91 295.56"/>
        <circle class="aj" cx="193.96" cy="291.97" r="1.32"/>
      </g>
      <g>
        <g>
          <path class="ba" d="M308.63,338.07c37.72,0,48-63.33,60.45-83l-6.71-3.21c-11.6,18.24-30,75.07-53.12,73.85-23.32-1.25-21-37.56,3.61-51.63l-9.41-16.47C260.91,282,264.54,338.07,308.63,338.07Z"/>
          <g>
            <path class="bb" d="M293.37,311.17c-6.24-11.61-.42-32.31,16.31-42.6l3.17,5.55C298,282.58,291.31,299.09,293.37,311.17Z"/>
            <path class="bb" d="M306.56,331.85c35.38,0,46.58-55.73,58.14-78.83l4.37,2.09c-12.49,19.63-22.72,83-60.45,83-19.37,0-30.92-10.82-34.19-25C279.35,324.07,290.14,331.85,306.56,331.85Z"/>
          </g>
        </g>
        <g>
          <path class="bc" d="M435.37,433.8s55.51-22.67,70.52-38.08c15-30.22,49-200.89,43.46-271.21,0,0-33.67-30.1-108.25-35.56-64.79-4.74-93.24,23.7-93.24,23.7s-12.64,198.52,17.39,283.06C395.27,418.44,435.37,433.8,435.37,433.8Z"/>
          <path class="bd" d="M347.86,112.66s6.59-6.57,20.61-12.86c-26,48.65,3.3,213.94,30.34,295.17,18.16,14.61,25.35,29.9,40.21,37.31-2.31,1-3.65,1.53-3.65,1.53s-40.1-15.36-70.12-38.08C335.22,311.18,347.86,112.66,347.86,112.66Z"/>
          <path class="be" d="M461.82,383.7c14.67-11.55,59.45-263.7,46.06-281.18,28.23,10.17,41.46,22,41.46,22,5.53,70.32-28.44,241-43.46,271.21-15,15.41-70.52,38.08-70.52,38.08s-51.46-18.22-70.12-38.08c-1.78-2.37-2.44-7-3.35-10.49C369.38,390,452.54,391,461.82,383.7Z"/>
          <path class="bf" d="M511.34,103.82c11.72,22.11-30,274.17-43.94,285.16-8.54,6.72-86.86,3-104.84-1-.18-.73-.39-1.69-.66-2.76,7.48,4.8,90.64,5.79,99.93-1.53,14.67-11.55,59.45-263.7,46.06-281.18C508.92,102.9,510.75,103.58,511.34,103.82Z"/>
          <path class="bg" d="M471.9,405.24c36.34-32.4,79.42-207.25,73.89-277.57,0,0-6-8.26-18.29-16.8,14.76,7.35,21.84,13.64,21.84,13.64,5.53,70.32-28.44,241-43.46,271.21a41.33,41.33,0,0,1-3.76,3.35C502.19,399,482.56,407.61,471.9,405.24Z"/>
          <path class="bh" d="M423.25,433.19c3.88-.95,17.05-18.9,17.05-18.9l-8.39-11.16c-7.41-11-19.87-8.12-23.8,1.48C405.55,410.87,416.71,434.78,423.25,433.19Z"/>
          <path class="bi" d="M408.26,404.29c4.08-9.33,16.33-12,23.65-1.16l8.39,11.16s-1.59,2.16-3.8,5A71.06,71.06,0,0,0,408.26,404.29Z"/>
          <path class="be" d="M418,432.33c-4.14-5.8-9.47-29.2-9.47-29.2l-43.26-7.41S410,433.59,418,432.33Z"/>
          <path class="bj" d="M414.09,432.76c0-15.44,8.64-25.08,19.3-25.08s19.29,9.65,19.29,25.08-8.64,25.09-19.29,25.09S414.09,448.19,414.09,432.76Z"/>
          <path class="bk" d="M425.13,409.85a16.76,16.76,0,0,1,8.27-2.17c10.66,0,19.29,9.65,19.29,25.08s-8.64,25.09-19.29,25.09a17.13,17.13,0,0,1-12.75-5.75C432,451.26,437.33,417.19,425.13,409.85Z"/>
          <path class="bl" d="M433.17,431.47c0-9.52,3.67-15.47,8.2-15.47s8.2,5.95,8.2,15.47-3.67,15.47-8.2,15.47S433.17,441,433.17,431.47Z"/>
          <ellipse class="bj" cx="441.68" cy="431.41" rx="2.96" ry="4.64"/>
          <path class="bm" d="M473.14,244c-8.87,8.78-99.23,8.89-110.88-1.6-6.76-6.09-12.75-106-3.13-125.69,5.07-10.34,115.69-15.47,131.32,2C498.62,127.84,485.81,231.43,473.14,244Z"/>
          <path class="bn" d="M470.27,240.87c-8.52,8.42-95.21,8.54-106.39-1.52-6.5-5.84-12.31-101.79-3.06-120.7,4.86-9.94,111.19-14.85,126.19,2C494.85,129.4,482.44,228.85,470.27,240.87Z"/>
          <path class="bo" d="M507.81,275.92c2.51-17.38,9.39-28.34,15.37-27.48s8.8,13.19,6.28,30.57-9.4,30.77-15.38,29.92S505.3,293.3,507.81,275.92Z"/>
          <path class="bh" d="M528.15,286.08c-3.11-6.12-7.87-10-13.2-10a12.08,12.08,0,0,0-7.52,2.82c.11-1,.23-2,.37-3,2.51-17.38,9.39-28.34,15.37-27.48s8.8,13.19,6.28,30.57C529.12,281.46,528.67,283.82,528.15,286.08Z"/>
          <path class="bp" d="M509.25,276c2-13.47,6.19-22.13,9.57-21.65s4.61,9.91,2.66,23.38-6.27,24-9.64,23.53S507.3,289.46,509.25,276Z"/>
          <path class="be" d="M442.87,433.35c-4.39.72-11-30.22-11-30.22s51-.76,73.57-7C497.1,406.09,459.91,430.54,442.87,433.35Z"/>
          <g>
            <path class="bq" d="M393.28,110.93c34-3,83.81-1.42,93.73,9.69,7.48,8.38-3.48,99.31-15.07,118C440.36,191.2,417.29,156.37,393.28,110.93Z"/>
            <path class="bq" d="M435.62,246.75c-28.43,1.19-64.76-1.12-71.74-7.4-6-5.4-11.42-87.9-4.88-115.19C382.87,170.35,403.93,206,435.62,246.75Z"/>
          </g>
          <rect class="br" x="435.05" y="194.67" width="16.3" height="28.44"/>
          <rect class="bs" x="438.37" y="197.87" width="9.68" height="22.04"/>
          <rect class="br" x="380.04" y="194.67" width="16.3" height="28.44"/>
          <rect class="bs" x="383.36" y="197.87" width="9.68" height="22.04"/>
          <path class="bt" d="M360.82,118.66c4.86-9.94,111.19-14.85,126.19,2,.06.07.1.18.16.25-19-15.33-120.12-10.42-124.86-.73-8.94,18.29-3.8,108.64,2.42,119.83a7.37,7.37,0,0,1-.84-.61C357.38,233.52,351.57,137.57,360.82,118.66Z"/>
          <rect class="br" x="436.59" y="196.54" width="13.24" height="24.7"/>
          <rect class="br" x="381.75" y="196.54" width="13.23" height="24.7"/>
          <path class="bf" d="M364.83,349.93l27.26,7.51L452.93,389s9.88,4.35,17-17.38,14.22-58.47,14.22-58.47l-31.21-8.69-99.95,13Z"/>
        </g>
        <path class="bc" d="M339.85,242.74c-1.58-5-9.36-1.36-16.11,2.75-6.43,3.9-13.93,10.51-13.42,18.52l3.12-.83c.22-3.55,11.87-8.25,15.33-9.62C334.16,251.4,341.43,247.73,339.85,242.74Z"/>
        <path class="bc" d="M298.39,260.83l8.38-11.43c8.79,4.95,12.69,10.95,15,21.51L311,275.1C303.83,272.06,300.06,270.55,298.39,260.83Z"/>
        <path class="bc" d="M348.31,262.5c3.18,4.38-4.2,9.36-11.39,13.13-6.85,3.58-16.3-1-22.55-6.14l2.45-2.36c3,1.89,13.29,1.52,16.38-.83C338,262.61,345.13,258.12,348.31,262.5Z"/>
        <path class="bc" d="M326.25,230.77c-1.82-4.9-9.4-.89-16,3.54-6.23,4.22-7.41,14.68-6.51,22.65l3.08-1c0-3.55,5.47-12.32,8.85-13.86C321,239.69,328.08,235.68,326.25,230.77Z"/>
        <path class="bf" d="M434.17,237.53l4.35,22.91-56.7,2.17C402.76,239.51,434.17,237.53,434.17,237.53Z"/>
        <path class="j" d="M320,251.36S332.63,246,335,246s30.42,2.37,47.41,15.6c0,0,34.07-10.27,64-6.72,5.3.63,11.85,7.51,11.85,7.51l-72.49,34.77Z"/>
        <ellipse class="bu" cx="381.92" cy="266.89" rx="4.84" ry="3.09"/>
        <polygon class="bv" points="463.21 257.29 462.31 255.51 381.43 267.07 312.67 248.24 310.71 249.78 397.23 338.18 463.21 257.29"/>
        <polygon class="bw" points="471.5 326.43 463.21 257.29 381.43 269.14 310.71 249.78 344.69 317.73 397.23 340.25 471.5 326.43"/>
        <polygon class="bu" points="471.5 326.43 463.21 257.29 381.43 269.14 397.23 340.25 471.5 326.43"/>
        <g class="bx">
          <path class="by" d="M346.65,315.55l-33-63L382.53,273l75-9.78,7.94,59.52-69.77,11.68ZM455.5,265.91l-72.92,9.51-.25,0-63.94-19,29.95,57.2L396,332l66.88-11.2Z"/>
        </g>
        <g>
          <path class="ba" d="M571.85,308.05c-5.34-25.84-33.77-48.32-53.05-53.86-3.6,2.41-4.7,4.31-2.52,8.85,13.94,4,41.27,26.66,44.9,44.21,6.44,31.18-73.83,46.77-143.83,17.28l-6,14.48C496.35,374.84,582.47,359.47,571.85,308.05Z"/>
          <g>
            <path class="bb" d="M517.86,255.54c13.94,4,41.28,26.66,44.9,44.21a16.15,16.15,0,0,1-1.23,10.35,17.42,17.42,0,0,0-.35-2.85c-3.63-17.55-31-40.21-44.9-44.21-1.93-4-1.29-6,1.37-8C517.72,255.2,517.77,255.36,517.86,255.54Z"/>
            <path class="bb" d="M414.21,332.06c73,30.29,146.36,22.94,158.38-12.47-3.76,42-83,52.42-161.28,19.44Z"/>
          </g>
        </g>
        <rect class="bs" x="431.79" y="132.64" width="5.53" height="4.35"/>
        <rect class="bs" x="420.73" y="132.64" width="5.53" height="4.35"/>
        <rect class="bs" x="409.67" y="132.64" width="5.53" height="4.35"/>
        <rect class="bs" x="398.61" y="132.64" width="5.53" height="4.35"/>
        <path class="be" d="M381,314.15c-3.46,3.72,3.34,8.58,10.06,12.33,6.4,3.57,15.6,6.74,22.13,2.46L411,326.7c-3.11,1.52-12.69-6.09-15.52-8.36C391.05,314.8,384.45,310.41,381,314.15Z"/>
        <path class="be" d="M414.65,341l-12.13-2,11-23,8.7,7C423.14,330.57,422.09,334.9,414.65,341Z"/>
        <path class="be" d="M393.65,297.48c2.18-4.8,10-.94,16.6,3.34,6.32,4.08,7,14.28,5.64,22.06l-3.19-.94c.14-3.46-5.1-12-8.57-13.47C398.7,306.16,391.47,302.28,393.65,297.48Z"/>
        <path class="be" d="M377.37,331.42c-3.27,3.89,3.77,8.4,10.67,11.82,6.57,3.24,16-.78,22.32-5.38l-2.31-2.13c-3,1.68-13.06,1.29-16-.84C387.46,331.57,380.66,327.51,377.37,331.42Z"/>
      </g>
    </g>
  </g>
</svg>
