<svg xmlns="http://www.w3.org/2000/svg" xmlns:xlink="http://www.w3.org/1999/xlink" width="827.74" height="820.41" viewBox="0 0 827.74 820.41">
  <defs>
    <style>
      .a, .ad, .ae, .i, .t {
        fill: none;
      }

      .b {
        isolation: isolate;
      }

      .c, .j {
        fill: #191d23;
      }

      .c {
        opacity: 0.21;
      }

      .d {
        fill: #f45a16;
      }

      .e {
        fill: #027396;
      }

      .f {
        fill: #e3e3e3;
      }

      .g {
        fill: #0081b4;
      }

      .bn, .h, .p, .q {
        fill: #fff;
      }

      .i {
        stroke: #c4c4c4;
        stroke-width: 0.78px;
      }

      .ad, .i, .t {
        stroke-miterlimit: 10;
      }

      .j {
        opacity: 0.55;
      }

      .k {
        fill: #ffd05a;
      }

      .l {
        fill: #ffdc79;
      }

      .m {
        fill: #e83d83;
      }

      .n {
        fill: #fe5c99;
      }

      .o {
        fill: #c9d4fe;
        opacity: 0.16;
      }

      .p {
        opacity: 0.1;
      }

      .bm, .q {
        opacity: 0.2;
      }

      .r {
        fill: #779a0a;
      }

      .ac, .s {
        fill: #c3d600;
      }

      .t {
        stroke: #fff;
        stroke-width: 2.56px;
      }

      .ae, .t {
        stroke-linecap: round;
      }

      .u {
        fill: #00e0c1;
      }

      .v {
        fill: #02f5d0;
      }

      .w {
        fill: #ffe6a6;
      }

      .x {
        fill: #011a5f;
      }

      .y {
        fill: #0c3184;
      }

      .z {
        fill: #ffa15a;
      }

      .aa, .bk {
        fill: #e0f9fe;
      }

      .ab {
        fill: #ff9136;
      }

      .ac {
        opacity: 0.44;
      }

      .ad, .ae {
        stroke: #dae3f2;
      }

      .ae {
        stroke-linejoin: round;
      }

      .af {
        fill: #f2b1a0;
      }

      .ag {
        fill: #a37676;
      }

      .ah {
        fill: #f2f2f2;
      }

      .ai {
        fill: #ffc5b3;
      }

      .aj {
        fill: #353535;
      }

      .ak {
        fill: #95b709;
      }

      .al {
        fill: #4f4f4f;
      }

      .am {
        fill: #f2ba88;
      }

      .an {
        fill: #ffd1a4;
      }

      .ao {
        fill: #713e23;
      }

      .ap {
        fill: #442312;
        opacity: 0.34;
      }

      .aq {
        fill: #444;
        opacity: 0.15;
      }

      .ar {
        fill: #1b91a8;
      }

      .as {
        fill: #004559;
      }

      .at {
        fill: #46bce0;
      }

      .au {
        fill: #007394;
      }

      .av {
        fill: #bfcade;
      }

      .aw {
        fill: #74869b;
      }

      .ax {
        fill: #f5faff;
      }

      .ay {
        fill: #d8e2ed;
      }

      .az {
        fill: #ebf6fa;
      }

      .ba {
        fill: #1796ce;
        opacity: 0.3;
        mix-blend-mode: multiply;
      }

      .bb {
        fill: #b3e8f4;
      }

      .bc {
        fill: #77bdc9;
      }

      .bd {
        fill: #ededed;
      }

      .be {
        fill: #30c6c6;
      }

      .bf {
        fill: #4de4e8;
      }

      .bg {
        fill: #4d8e93;
      }

      .bh {
        fill: #ed8406;
      }

      .bi {
        fill: #fbc006;
      }

      .bj {
        fill: #8eefef;
      }

      .bk {
        opacity: 0.42;
      }

      .bl {
        fill: #4a86ce;
      }

      .bm, .bn {
        mix-blend-mode: screen;
      }

      .bm {
        fill: url(#a);
      }

      .bn {
        opacity: 0.5;
      }

      .bo {
        fill: #0a2982;
      }

      .bp {
        fill: #80c4e7;
      }

      .bq {
        fill: #d5ebff;
      }

      .br {
        fill: #396bb3;
      }

      .bs {
        fill: #2d2d2d;
      }

      .bt {
        fill: #3a3a3a;
      }

      .bu {
        fill: #4b4c4c;
      }

      .bv {
        fill: #272c91;
      }

      .bw {
        fill: #617704;
      }

      .bx {
        clip-path: url(#b);
      }

      .by {
        fill: #fd9220;
      }

      .bz {
        fill: #9a98ed;
      }

      .ca {
        fill: #205ce1;
      }
    </style>
    <linearGradient id="a" x1="569.06" y1="506.27" x2="613.26" y2="506.27" gradientTransform="translate(15.14 -17.17) rotate(1.69)" gradientUnits="userSpaceOnUse">
      <stop offset="0" stop-color="#b3bae0" stop-opacity="0.1"/>
      <stop offset="0.63" stop-color="#b3bae0" stop-opacity="0.24"/>
      <stop offset="1" stop-color="#b3bae0" stop-opacity="0.3"/>
    </linearGradient>
    <clipPath id="b">
      <path class="a" d="M512.76,464.89c-13.56,0-23-6.1-23-11.58s-6.13-85.54,34.87-82.78c13.53.91,11.16,77.3,11.16,82.78S526.33,464.89,512.76,464.89Z"/>
    </clipPath>
  </defs>
  <title>main</title>
  <g class="b">
    <g>
      <g>
        <path class="c" d="M827.74,587.29,448.23,447.62,36.21,592C8.36,605,10,645.11,38.85,655.77L412.66,807.71Z"/>
        <polygon class="d" points="21.76 548.77 408.47 685.33 779.71 498.17 461.4 375.35 21.76 548.77"/>
        <path class="e" d="M409.23,780.16,23.51,632.69c-19.35-7.4-25-30.42-23.2-49,.92-9.51,3-18.91,8.63-26.83,5.16-7.29,12.63-13.06,21.36-15.31a32.94,32.94,0,0,1,21.55,1.91L393,694.9Z"/>
        <polygon class="e" points="21.76 629.7 408.47 782.42 779.71 588.27 779.71 566.15 460.17 429.72 21.76 629.7"/>
        <polygon class="f" points="407.03 771.06 779.71 577.52 779.71 494.25 407.03 681.47 407.03 771.06"/>
        <polygon class="e" points="21.76 544.9 407 681.56 779.71 494.31 779.84 484.68 461.4 371.49 21.76 544.9"/>
        <path class="g" d="M3,568.65s2-6,11.89-15.67c19.66-19.31,44.42-11.59,44.42-11.59l347.73,130L779.7,484.58,460,361.39,37.21,526.83S23.48,535.1,15.44,544.9C4.2,558.6,3,568.65,3,568.65Z"/>
        <path class="h" d="M407,771.06,38.3,624.29a38.22,38.22,0,0,1-24.09-35.51h0A38.22,38.22,0,0,1,65.91,553L407,681.47Z"/>
        <g>
          <line class="i" x1="55.99" y1="559.65" x2="392.99" y2="690.69"/>
          <line class="i" x1="37.38" y1="568.43" x2="392.99" y2="706.14"/>
          <line class="i" x1="30.36" y1="581.07" x2="392.99" y2="721.59"/>
          <line class="i" x1="27.55" y1="594.06" x2="392.99" y2="737.04"/>
          <line class="i" x1="32.47" y1="611.97" x2="392.99" y2="752.49"/>
        </g>
        <path class="j" d="M175.51,408.81c0,.21,0,.42,0,.61v-.61Z"/>
        <path class="j" d="M175.46,410c0-.19,0-.4,0-.61v1.35C175.46,410.52,175.46,410.29,175.46,410Z"/>
        <line class="i" x1="414.85" y1="690.97" x2="764.96" y2="519.8"/>
        <line class="i" x1="415.91" y1="704.32" x2="766.01" y2="533.14"/>
        <line class="i" x1="416.96" y1="717.66" x2="767.06" y2="546.48"/>
        <line class="i" x1="418.01" y1="731" x2="768.12" y2="559.83"/>
        <line class="i" x1="419.07" y1="744.35" x2="769.17" y2="573.17"/>
      </g>
      <g>
        <g>
          <path class="k" d="M337.22,150.58v76.93a4.94,4.94,0,0,0,2.72,4.63c.08,0,.15.08.23.1l25.15,10.19,51.94,21a2.59,2.59,0,0,0,2.72-.61l10.18-8.43a3.79,3.79,0,0,0,1.45-2.87V177.18a6.45,6.45,0,0,0-4-6.28l-76.32-31a3.29,3.29,0,0,0-3.22.64l-9.68,7.94a2.07,2.07,0,0,0-.34.26A2.45,2.45,0,0,0,337.22,150.58Z"/>
          <path class="l" d="M337.22,150.58v76.93a4.94,4.94,0,0,0,2.72,4.63c.08,0,.15.08.23.1l25.15,10.19,51.94,21a2.59,2.59,0,0,0,2.72-.61,3.21,3.21,0,0,0,1.15-2.35v-75a6.19,6.19,0,0,0-3.71-5.91l-77.27-31.29a1.88,1.88,0,0,0-1.72.21,2.07,2.07,0,0,0-.34.26A2.45,2.45,0,0,0,337.22,150.58Z"/>
        </g>
        <path class="h" d="M375.36,184.83l-5.15,8.78a1.42,1.42,0,0,1-1.4.74l-11.16-2c-1.07-.19-2,1.22-1.4,2l8.89,11.52a1,1,0,0,1,.18.83L363,219.41a.94.94,0,0,0,1.14,1.15l11.93-2.45a1,1,0,0,1,.84.19l10.9,9.22c.79.67,2.19-.31,2-1.41l-1.92-11.78a1.47,1.47,0,0,1,.68-1.4l8.44-5.52c.84-.55.94-1.72.18-2.08l-13.41-6.25a.86.86,0,0,1-.43-.45l-6-14C377.08,183.81,375.89,183.94,375.36,184.83Z"/>
      </g>
      <g>
        <g>
          <path class="m" d="M617.26,235.53v78a5,5,0,0,0,2.76,4.7c.08,0,.16.08.23.11l25.51,10.34L698.44,350a2.62,2.62,0,0,0,2.76-.62l10.33-8.55A3.84,3.84,0,0,0,713,338V262.52a6.54,6.54,0,0,0-4-6.37l-77.41-31.4a3.34,3.34,0,0,0-3.26.65l-9.82,8.05a2.11,2.11,0,0,0-.35.27A2.49,2.49,0,0,0,617.26,235.53Z"/>
          <path class="n" d="M617.26,235.53v78a5,5,0,0,0,2.76,4.7c.08,0,.16.08.23.11l25.51,10.34L698.44,350a2.62,2.62,0,0,0,2.76-.62,3.25,3.25,0,0,0,1.16-2.38V271a6.28,6.28,0,0,0-3.77-6l-78.38-31.74a1.9,1.9,0,0,0-1.75.21,2.11,2.11,0,0,0-.35.27A2.49,2.49,0,0,0,617.26,235.53Z"/>
        </g>
        <g>
          <path class="h" d="M647.84,273.31c0,6.17,5,13.13,11.18,15.53s11.18-.65,11.18-6.82-5-13.13-11.18-15.53S647.84,267.14,647.84,273.31Z"/>
          <path class="h" d="M633.71,307l50.59,19.71c-.06-13.94-11.32-29.59-25.29-35-7-2.71-13.3-2.35-17.88.45S633.71,300,633.71,307Z"/>
        </g>
      </g>
      <path class="o" d="M406.36,1.12V37.39a2.33,2.33,0,0,0,1.28,2.18l.11,0,11.86,4.8,24.49,9.91a1.22,1.22,0,0,0,1.28-.29,1.51,1.51,0,0,0,.54-1.11V17.6a2.92,2.92,0,0,0-1.75-2.79L407.73.06a.89.89,0,0,0-.81.1,1,1,0,0,0-.16.12A1.16,1.16,0,0,0,406.36,1.12Z"/>
      <path class="o" d="M436.33,36.37V72.64a2.33,2.33,0,0,0,1.28,2.18l.11,0,11.86,4.8,24.49,9.91a1.22,1.22,0,0,0,1.28-.29,1.51,1.51,0,0,0,.54-1.11V52.84a2.92,2.92,0,0,0-1.75-2.79L437.7,35.3a.89.89,0,0,0-.81.1,1,1,0,0,0-.16.12A1.16,1.16,0,0,0,436.33,36.37Z"/>
      <path class="p" d="M301,54.44V108.7a3.48,3.48,0,0,0,1.92,3.27l.16.07,17.74,7.19,36.63,14.83a1.82,1.82,0,0,0,1.92-.43,2.26,2.26,0,0,0,.81-1.66V79.08a4.37,4.37,0,0,0-2.62-4.17l-54.5-22.07a1.32,1.32,0,0,0-1.21.15,1.46,1.46,0,0,0-.24.19A1.73,1.73,0,0,0,301,54.44Z"/>
      <path class="p" d="M190.88,119.54v61.83a4,4,0,0,0,2.18,3.72c.06,0,.12.07.18.08l20.21,8.19,41.74,16.9a2.08,2.08,0,0,0,2.18-.49,2.58,2.58,0,0,0,.92-1.89V147.62a5,5,0,0,0-3-4.75l-62.11-25.15a1.51,1.51,0,0,0-1.38.17,1.68,1.68,0,0,0-.28.21A2,2,0,0,0,190.88,119.54Z"/>
      <path class="q" d="M629,409.53v48.08a3.09,3.09,0,0,0,1.7,2.89l.14.07,15.72,6.37L679,480.08a1.62,1.62,0,0,0,1.7-.38,2,2,0,0,0,.72-1.47V431.37a3.87,3.87,0,0,0-2.32-3.7l-48.3-19.56a1.17,1.17,0,0,0-1.08.13,1.3,1.3,0,0,0-.22.17A1.54,1.54,0,0,0,629,409.53Z"/>
      <path class="q" d="M149,134.64v61.83a4,4,0,0,0,2.18,3.72c.06,0,.12.07.18.08l20.21,8.19,41.74,16.9a2.08,2.08,0,0,0,2.18-.49,2.58,2.58,0,0,0,.92-1.89V162.72a5,5,0,0,0-3-4.75l-62.11-25.15A1.51,1.51,0,0,0,150,133a1.65,1.65,0,0,0-.28.21A2,2,0,0,0,149,134.64Z"/>
      <path class="p" d="M709.26,363.54v60.2a3.86,3.86,0,0,0,2.13,3.62l.18.08,19.68,8,40.64,16.45a2,2,0,0,0,2.13-.48,2.51,2.51,0,0,0,.9-1.84V390.88a4.84,4.84,0,0,0-2.91-4.63l-60.47-24.49a1.47,1.47,0,0,0-1.35.17,1.63,1.63,0,0,0-.27.21A1.92,1.92,0,0,0,709.26,363.54Z"/>
      <path class="p" d="M47.79,384.29v51.85a3.33,3.33,0,0,0,1.83,3.12l.15.07,16.95,6.87,35,14.17a1.74,1.74,0,0,0,1.83-.41,2.16,2.16,0,0,0,.77-1.58V407.84a4.17,4.17,0,0,0-2.5-4L49.75,382.77a1.27,1.27,0,0,0-1.16.14,1.37,1.37,0,0,0-.23.18A1.65,1.65,0,0,0,47.79,384.29Z"/>
      <g>
        <path class="r" d="M483.12,244.32v51.85a3.33,3.33,0,0,0,1.83,3.12l.15.07,16.95,6.87,35,14.17a1.74,1.74,0,0,0,1.83-.41l6.86-5.68a2.55,2.55,0,0,0,1-1.94V262.25a4.35,4.35,0,0,0-2.68-4.23l-51.44-20.87a2.22,2.22,0,0,0-2.17.43l-6.53,5.35a1.4,1.4,0,0,0-.23.18A1.65,1.65,0,0,0,483.12,244.32Z"/>
        <path class="s" d="M483.12,244.32v51.85a3.33,3.33,0,0,0,1.83,3.12l.15.07,16.95,6.87,35,14.17a1.74,1.74,0,0,0,1.83-.41,2.16,2.16,0,0,0,.77-1.58V267.87a4.17,4.17,0,0,0-2.5-4l-52.09-21.09a1.26,1.26,0,0,0-1.16.14,1.4,1.4,0,0,0-.23.18A1.65,1.65,0,0,0,483.12,244.32Z"/>
        <polyline class="t" points="493.83 277.25 501.84 291.27 528.76 274.35"/>
      </g>
      <g>
        <path class="u" d="M92.44,264v51.85a3.33,3.33,0,0,0,1.83,3.12l.16.07,16.95,6.87,35,14.17a1.74,1.74,0,0,0,1.83-.41l6.86-5.68a2.55,2.55,0,0,0,1-1.94V281.9a4.35,4.35,0,0,0-2.68-4.23L101.93,256.8a2.22,2.22,0,0,0-2.17.43l-6.53,5.35a1.39,1.39,0,0,0-.23.18A1.65,1.65,0,0,0,92.44,264Z"/>
        <path class="v" d="M92.44,264v51.85a3.33,3.33,0,0,0,1.83,3.12l.16.07,16.95,6.87,35,14.17a1.74,1.74,0,0,0,1.83-.41,2.16,2.16,0,0,0,.77-1.58V287.52a4.17,4.17,0,0,0-2.5-4L94.4,262.45a1.27,1.27,0,0,0-1.16.14,1.39,1.39,0,0,0-.23.18A1.65,1.65,0,0,0,92.44,264Z"/>
        <path class="h" d="M129.65,311.82c1.4,2.34,4,2.89,5.74,1.25s2.06-4.87.66-7.21-4-2.89-5.74-1.25S128.24,309.48,129.65,311.82Z"/>
        <path class="h" d="M116,306.17c1.39,2.34,4,2.91,5.74,1.28s2.09-4.86.7-7.2-4-2.91-5.74-1.28S114.57,303.83,116,306.17Z"/>
        <path class="h" d="M102.28,300.53c1.38,2.35,3.95,2.93,5.73,1.3s2.11-4.85.72-7.2-3.95-2.93-5.73-1.3S100.89,298.19,102.28,300.53Z"/>
      </g>
      <g>
        <path class="c" d="M672,671.12l22.33-6.44a3.74,3.74,0,0,1,4.17,5.64l-7.2,11.06a16.11,16.11,0,0,1-5.85,5.39L517.21,777.55a20.91,20.91,0,0,1-22-1.32h0a6.17,6.17,0,0,1,.63-10.48l173-93.33A16.15,16.15,0,0,1,672,671.12Z"/>
        <g>
          <g>
            <path class="l" d="M675.56,655.6l1.78,3.85,6.76,14.63,20.26-20.93a.68.68,0,0,0-.14-1.08.54.54,0,0,0-.52-.2Z"/>
            <path class="w" d="M675.56,655.6l1.78,3.85,6.2,0,20.67-7.42a.54.54,0,0,0-.52-.2Z"/>
          </g>
          <g>
            <path class="x" d="M498.38,750.53l2.63,5.36,6.75,13.77L681.5,675.93h0a6.33,6.33,0,0,0,1.32-.72A7.61,7.61,0,0,0,685.5,672a11.81,11.81,0,0,0-.06-9.2,13.1,13.1,0,0,0-1.89-3.25v0a9.62,9.62,0,0,0-7.74-3.93,6.63,6.63,0,0,0-2.32.5,2.25,2.25,0,0,0-.39.17l-.49.27a.92.92,0,0,0-.18.1l-.13.09Z"/>
            <path class="y" d="M498.38,750.53l2.63,5.36,7.54-1.78,175-94.56v0a9.62,9.62,0,0,0-7.74-3.93,6.63,6.63,0,0,0-2.32.5,2.25,2.25,0,0,0-.39.17l-.49.27a.92.92,0,0,0-.18.1l-.13.09Z"/>
            <path class="z" d="M494.46,763.68c2.23,5.48,7.58,8.48,12,6.7h0a6.4,6.4,0,0,0,1.33-.72,7.68,7.68,0,0,0,2.65-3.23,11.79,11.79,0,0,0-.06-9.2c-1.85-4.54-5.84-7.39-9.65-7.2a6.73,6.73,0,0,0-2.32.5,3.44,3.44,0,0,0-.39.17l-.5.27a.77.77,0,0,0-.18.1C493.73,753.31,492.43,758.67,494.46,763.68Z"/>
            <path class="aa" d="M527.93,734.6l-14.75,8a.31.31,0,0,1,.17-.07,6.6,6.6,0,0,1,2.16-.44,9.72,9.72,0,0,1,7.81,4,11.29,11.29,0,0,1,1.86,3.16,11.89,11.89,0,0,1,0,9.21,7.68,7.68,0,0,1-1.8,2.56,3.09,3.09,0,0,1-.69.57l14.1-7.53s.6-.33.89-.52a7.73,7.73,0,0,0,2.62-3.21,11.73,11.73,0,0,0-.06-9.21,11.52,11.52,0,0,0-1.86-3.2,9.65,9.65,0,0,0-7.77-4,6.66,6.66,0,0,0-2.33.52C528.18,734.5,528.05,734.57,527.93,734.6Z"/>
            <path class="h" d="M512.8,742.77a1.45,1.45,0,0,1,.34-.19c-.08,0-.13.07-.17.07Z"/>
            <path class="ab" d="M498.22,750.65a5.64,5.64,0,0,1,2.33-.48,9.43,9.43,0,0,1,7.74,4,13,13,0,0,1,1.9,3.24,11.62,11.62,0,0,1,.06,9.17,8,8,0,0,1-2.66,3.25l14.23-7.65a4.93,4.93,0,0,0,.89-.52,3.09,3.09,0,0,0,.69-.57,7.15,7.15,0,0,0,2-2.64,11.91,11.91,0,0,0-.06-9.21A13.74,13.74,0,0,0,523.5,746a9.78,9.78,0,0,0-7.81-4,6.2,6.2,0,0,0-2.33.52.31.31,0,0,0-.17.07h0c-.08,0-.13.07-.17.07l-.17.11Z"/>
          </g>
        </g>
      </g>
      <g>
        <path class="c" d="M779.19,679.36l22.93-3.74a3.74,3.74,0,0,1,3.47,6.09l-8.46,10.13a16.11,16.11,0,0,1-6.45,4.66L612.82,766.66a20.91,20.91,0,0,1-21.68-3.92h0A6.17,6.17,0,0,1,593,752.41l182.86-72.13A16.12,16.12,0,0,1,779.19,679.36Z"/>
        <g>
          <g>
            <path class="l" d="M784.2,669.93l1.34,4,5.07,15.3,22.49-18.52a.68.68,0,0,0,0-1.09.54.54,0,0,0-.5-.25Z"/>
            <path class="w" d="M784.2,669.93l1.34,4,6.16.75,21.38-5a.54.54,0,0,0-.5-.25Z"/>
          </g>
          <g>
            <path class="r" d="M597.44,744.27l2,5.62,5.16,14.44,183.2-73.54h0a6.36,6.36,0,0,0,1.4-.57,7.62,7.62,0,0,0,3-2.91,11.81,11.81,0,0,0,1-9.15,13.09,13.09,0,0,0-1.51-3.44,0,0,0,0,1,0,0,9.62,9.62,0,0,0-7.25-4.78,6.64,6.64,0,0,0-2.37.23,2.22,2.22,0,0,0-.41.12l-.52.21a1,1,0,0,0-.19.08l-.14.08Z"/>
            <path class="ac" d="M597.44,744.27l2,5.62,7.7-.92,184.55-74.22a.05.05,0,0,0,0,0,0,0,0,0,1,0,0,9.62,9.62,0,0,0-7.25-4.78,6.64,6.64,0,0,0-2.37.23,2.22,2.22,0,0,0-.41.12l-.52.21a1,1,0,0,0-.19.08l-.14.08Z"/>
            <path class="z" d="M592.07,756.89c1.6,5.7,6.57,9.28,11.13,8h0a6.38,6.38,0,0,0,1.4-.57,7.68,7.68,0,0,0,3-2.91,11.8,11.8,0,0,0,1-9.15c-1.33-4.72-5-8-8.77-8.24a6.75,6.75,0,0,0-2.37.23,3.5,3.5,0,0,0-.4.13l-.52.22a.81.81,0,0,0-.19.08C592.51,746.51,590.61,751.69,592.07,756.89Z"/>
            <path class="aa" d="M628.6,731.77,613,738a.31.31,0,0,1,.18-.05,6.62,6.62,0,0,1,2.2-.2,9.72,9.72,0,0,1,7.31,4.9,11.3,11.3,0,0,1,1.5,3.35,11.89,11.89,0,0,1-1,9.15,7.68,7.68,0,0,1-2.08,2.34,3.08,3.08,0,0,1-.75.49l14.86-5.89s.63-.26.95-.42a7.74,7.74,0,0,0,3-2.9,11.73,11.73,0,0,0,1-9.16,11.52,11.52,0,0,0-1.49-3.39,9.65,9.65,0,0,0-7.27-4.86,6.67,6.67,0,0,0-2.38.25C628.86,731.7,628.72,731.76,628.6,731.77Z"/>
            <path class="h" d="M612.64,738.19A1.45,1.45,0,0,1,613,738c-.09,0-.14.06-.18.05Z"/>
            <path class="ab" d="M597.27,744.37a5.64,5.64,0,0,1,2.37-.21,9.42,9.42,0,0,1,7.24,4.81,13,13,0,0,1,1.52,3.43,11.62,11.62,0,0,1-1,9.12,8,8,0,0,1-3,2.93l15-6a5,5,0,0,0,.95-.42,3.08,3.08,0,0,0,.75-.49,7.15,7.15,0,0,0,2.25-2.4,11.91,11.91,0,0,0,1-9.16,13.77,13.77,0,0,0-1.45-3.38,9.78,9.78,0,0,0-7.31-4.86,6.19,6.19,0,0,0-2.38.25.31.31,0,0,0-.18.05h0c-.09,0-.14.06-.18.05l-.18.09Z"/>
          </g>
        </g>
      </g>
      <g>
        <path class="ad" d="M398.62,316.07c1.5,3.37,0,6.1-3.38,6.1s-7.31-2.73-8.81-6.1,0-6.1,3.38-6.1S397.12,312.7,398.62,316.07Z"/>
        <path class="ad" d="M671.23,396.49c1.5,3.37,0,6.1-3.38,6.1s-7.31-2.73-8.81-6.1,0-6.1,3.38-6.1S669.73,393.12,671.23,396.49Z"/>
        <path class="ad" d="M568.84,230.93c1.5,3.37,0,6.1-3.38,6.1s-7.31-2.73-8.81-6.1,0-6.1,3.38-6.1S567.34,227.56,568.84,230.93Z"/>
        <path class="ad" d="M45.78,239.26c1.5,3.37,0,6.1-3.38,6.1s-7.31-2.73-8.81-6.1,0-6.1,3.38-6.1S44.28,235.89,45.78,239.26Z"/>
        <g>
          <line class="ae" x1="332" y1="298.83" x2="332" y2="309.97"/>
          <line class="ae" x1="337.22" y1="307.07" x2="326.77" y2="301.06"/>
        </g>
        <g>
          <line class="ae" x1="456.1" y1="165.99" x2="456.1" y2="177.13"/>
          <line class="ae" x1="461.33" y1="174.22" x2="450.88" y2="168.21"/>
        </g>
        <g>
          <line class="ae" x1="112.95" y1="156.44" x2="112.95" y2="167.58"/>
          <line class="ae" x1="118.18" y1="164.67" x2="107.73" y2="158.66"/>
        </g>
        <g>
          <line class="ae" x1="767.06" y1="341.95" x2="767.06" y2="353.09"/>
          <line class="ae" x1="772.29" y1="350.18" x2="761.84" y2="344.17"/>
        </g>
      </g>
      <g>
        <path class="af" d="M193,377.93s-2,44.71-5.27,55.56,2.1,28-40,55.64l13.81,17.22s50.26-22.42,59.39-63.14c4.23-18.86,13.07-66.09,13.07-66.09"/>
        <path class="c" d="M199.59,782.86c-3.4,5.12-10.35,10.63-22.69,15.89s-21.47,17-30.83,20.36c-10.63,3.77-28.61-.72-40.65-13.13-4.35-4.49.54-6.55.45-10.76a18.87,18.87,0,0,1,2.3-9.2c2.82-5.17,11.07-8.13,21-11.34s14-6.09,21-11.77,9.4-13,11.85-16.3c1.26-1.66,11.11,2.29,14.22,8.44,1.53,3.11,1,4.19.37,5.16a3,3,0,0,0,.08,3.29,3.49,3.49,0,0,0,2.21,1.61c13,2.64,11.21-8.14,11.21-8.14C199.36,762.79,206.38,772.64,199.59,782.86Z"/>
        <path class="c" d="M165.3,728.11c-3.4,5.12-10.35,10.63-22.69,15.89s-21.47,17-30.83,20.36c-10.63,3.77-28.61-.72-40.65-13.13-4.35-4.49.54-6.55.45-10.76a18.87,18.87,0,0,1,2.3-9.2c2.82-5.17,11.07-8.13,21-11.34s14-6.09,21-11.77,9.4-13,11.85-16.3c1.26-1.66,11.11,2.29,14.22,8.44,1.53,3.11,1,4.19.37,5.16a3,3,0,0,0,.08,3.29,3.49,3.49,0,0,0,2.21,1.61c13,2.64,11.21-8.14,11.21-8.14C165.06,708,172.09,717.89,165.3,728.11Z"/>
        <path class="af" d="M214.57,510.8c-4.13.74-71.58,29-81.41,48.22-3.75,7.32-4.33,39.63-7.42,64.45-2,15.78-1.75,50.18-8.89,65.15a38.17,38.17,0,0,1-3.94,6.31c8,14.08,27.68,11.39,41.19,2.66,1.55-4.91-.55-10.42-.21-14.72.94-2.2,27-65.38,20.91-89.61,11.24-.93,65.26-22.93,69.28-26S230.21,508,214.57,510.8Z"/>
        <g>
          <path class="ag" d="M158.15,719.29a5.35,5.35,0,0,1,1.2,3.66c-.25,1.95-2.66,5-7.82,7.5s-9.12,3.42-14.44,7.75-15.28,13.69-21,18.29S102.42,763,98,763.23s-11.39-.56-20.51-4.76a21.44,21.44,0,0,1-11.63-13.81c-.91-3.63-.63-9.53-.63-9.53"/>
          <path class="h" d="M157.47,722.78C153,726.89,150,727.3,138,733.57s-23.82,22.88-33.62,25.15S81.83,755,72.28,749a15.09,15.09,0,0,1-7.47-12.14,20.38,20.38,0,0,1,1.82-9.67c2.55-5.54,10.61-9.14,20.37-13.12s13.22-7.95,19.92-14.3,8.7-14.08,11-17.65c1.17-1.8,11.18,1.63,14.58,7.8,1.68,3.12,1.24,4.27.63,5.32a3.26,3.26,0,0,0,.25,3.4,3.42,3.42,0,0,0,2.28,1.52c13.09,1.88,18.48-12.75,18.48-12.75C163.54,692.85,161.95,718.68,157.47,722.78Z"/>
          <path class="ah" d="M157.47,722.78C153,726.89,150,727.3,138,733.57s-23.82,22.88-33.62,25.15-20.62,0-31.41-7c-5.13-3.31-7.84-10.5-8.15-14.85,4.41,5.75,9,13.68,23.06,14.13,11.32.36,20.75,1.26,29.23-9.68s14-16.22,23.38-19.34,13.62-7.85,12.26-12.77-4.84-8.36-11.62-7.32-7.75-3.24-7.75-3.24a3.42,3.42,0,0,0,2.28,1.52c13.09,1.88,18.48-12.75,18.48-12.75C161.56,692.59,161.95,718.68,157.47,722.78Z"/>
        </g>
        <path class="ai" d="M248.91,567.47c-4.13.74-71.58,29-81.41,48.22-3.75,7.32-4.33,39.63-7.42,64.45-2,15.78-1.75,50.18-8.89,65.15a38.17,38.17,0,0,1-3.94,6.31c8,14.08,27.68,11.39,41.19,2.66,1.55-4.91-.55-10.42-.21-14.72.94-2.2,27-65.38,20.91-89.61,11.24-.93,65.26-22.93,69.28-26S264.54,564.67,248.91,567.47Z"/>
        <path class="aj" d="M260.71,457.6,182,512.94s28.75,10.21,36.72,28.14A96.62,96.62,0,0,1,227,579.49l76.43-23.65S306.58,472.6,260.71,457.6Z"/>
        <path class="aj" d="M363.28,473.18s23.46,63.56-17.39,110c-24.35,27.65-77.2,60.89-77.2,60.89s-16.15-11.79-32.44-36.54c-8.66-13.16-18-27.3-18-27.3l73.92-76.85Z"/>
        <path class="ak" d="M184.68,395.37a75.76,75.76,0,0,0,26.54,11.17,147.77,147.77,0,0,0,27.58,3.06s22.43-70.28,8.2-81.6-30.66-11.93-42.39,5.47C193.1,350.56,184.68,395.37,184.68,395.37Z"/>
        <path class="s" d="M226.93,483.37c21.8,17.39,54.06,39.83,79.06,33.36,23-6,44.42-25.44,57.28-43.54-7.54-32.1-19.35-111.32-43.38-141.65C295,300.06,275,296.6,275,296.6S256,277.43,224.13,318.24s-16.81,81.55-5.74,113C231.57,468.8,222.49,462.92,226.93,483.37Z"/>
        <path class="al" d="M218.21,580.19c7.58-7.48,15.47-14.61,23.43-21.65s16.07-13.92,24.46-20.48c-7.57,7.48-15.46,14.61-23.43,21.65S226.59,573.63,218.21,580.19Z"/>
        <g>
          <path class="ag" d="M192.44,774a5.35,5.35,0,0,1,1.2,3.66c-.25,1.95-2.66,5-7.82,7.5s-9.12,3.42-14.44,7.75-15.28,13.69-21,18.29-13.7,6.47-18.14,6.74-11.39-.56-20.51-4.76a21.44,21.44,0,0,1-11.63-13.81c-.91-3.63-.63-9.53-.63-9.53"/>
          <path class="h" d="M191.77,777.54c-4.48,4.1-7.46,4.52-19.48,10.78s-23.82,22.88-33.62,25.15-22.55-3.74-32.09-9.69a15.09,15.09,0,0,1-7.47-12.14,20.38,20.38,0,0,1,1.82-9.67c2.55-5.54,10.61-9.14,20.37-13.12s13.22-7.95,19.92-14.3,8.7-14.08,11-17.65c1.17-1.8,11.18,1.63,14.58,7.8,1.68,3.12,1.24,4.27.63,5.32a3.26,3.26,0,0,0,.25,3.4,3.42,3.42,0,0,0,2.28,1.52c13.09,1.88,18.48-12.75,18.48-12.75C197.84,747.6,196.24,773.43,191.77,777.54Z"/>
          <path class="ah" d="M191.77,777.54c-4.48,4.1-7.46,4.52-19.48,10.78s-23.82,22.88-33.62,25.15-20.62,0-31.41-7c-5.13-3.31-7.84-10.5-8.15-14.85,4.41,5.75,9,13.68,23.06,14.13,11.32.36,20.75,1.26,29.23-9.68s14-16.22,23.38-19.34S188.4,768.9,187,764s-4.84-8.36-11.62-7.32-7.75-3.24-7.75-3.24a3.42,3.42,0,0,0,2.28,1.52c13.09,1.88,18.48-12.75,18.48-12.75C195.85,747.35,196.24,773.43,191.77,777.54Z"/>
        </g>
        <g>
          <path class="am" d="M291.22,277.41l-1,29.14s-30.55,20.5-46.28,16.84c-6.77-1.57-10-10.41-8.2-22.67l14.51-2.42Z"/>
          <path class="an" d="M206.82,231.5s-8.92,16.73-3.22,48.9c3.17,17.89,13.27,29.8,22.13,34.06s16.94,5,32.38-4.22,24.26-24.75,24.26-24.75,2.11,1.49,7.72-4.42c8.78-9.25,10.56-14,11-26.91s-2.24-29.34-11.73-46.6-40.62-12.92-54.9-6.2S210,217.13,206.82,231.5Z"/>
          <path class="ao" d="M203.55,237.3c14.51,27.84,48,10.38,48,10.38,2.44,12,10.7,13.34,14.62,15.65s3.86,10,3.86,10l3.63.12a82.21,82.21,0,0,1,3.06-13.4c2-5.69,12.94-9.78,18-1.15,4.61,7.73-1.27,16-4.7,22.15-1.38,9.92.5,14.13.5,14.13s6.06-5.6,10.4-17.34,7.1-29.15,1.17-56a28.84,28.84,0,0,0-2.9-7.78c-11.13-20.36-44.69-25.4-58.06-21.34-11.53,3.5-33.64,8.87-39.55,26.94C199.93,225,200.24,230.91,203.55,237.3Z"/>
          <path class="ap" d="M203.55,237.3c14.51,27.84,48,10.38,48,10.38,2.44,12,10.7,13.34,14.62,15.65s3.86,10,3.86,10l3.63.12a82.21,82.21,0,0,1,3.06-13.4c2-5.69,12.94-9.78,18-1.15,4.61,7.73-1.27,16-4.7,22.15-1.38,9.92.5,14.13.5,14.13s6.06-5.6,10.4-17.34,7.1-29.15,1.17-56a28.84,28.84,0,0,0-2.9-7.78c-6.67,5.32-24.79,12.46-44.56,20-24.55,9.33-37.65,7.31-43.54,1.92s-8.9-9.7-9.46-16.25l-.05-.05C199.93,225,200.24,230.91,203.55,237.3Z"/>
        </g>
        <path class="aq" d="M147.74,544.68s1.63,4.84,9.36,5.83l50.25,30.56,101.33-39.38Z"/>
        <g>
          <g>
            <g>
              <polygon class="ar" points="153.96 535.92 146.11 540.22 150.23 543.71 159.24 546.85 167.57 541.9 153.96 535.92"/>
              <g>
                <polygon class="as" points="251.11 502 95.48 511.69 147.88 542.28 251.11 505.01 251.11 502"/>
                <polygon class="at" points="197.25 471.21 94.06 508.18 146.51 538.5 249.69 501.51 197.25 471.21"/>
                <path class="au" d="M94.06,508.18v3l50,28.87,6,3.44-3.92-2.26c-1.19-1.33-.91-2.47-1.88-4.06Z"/>
              </g>
              <g>
                <polygon class="as" points="312.9 537.45 159.24 547.93 209.72 577.45 312.9 540.46 312.9 537.45"/>
                <polygon class="at" points="263.45 508.94 159.87 545.67 209.72 574.44 312.9 537.45 263.45 508.94"/>
                <polygon class="au" points="209.72 577.45 209.72 574.44 159.87 545.67 158.02 547.57 209.72 577.45"/>
              </g>
              <polygon class="av" points="158.43 538.37 255.36 504.54 253.79 499.12 199.84 464.3 103.16 500.38 158.43 538.37"/>
              <g>
                <polygon class="aw" points="306.95 525.26 158.96 541.42 210.26 571.1 306.95 537.86 306.95 525.26"/>
                <path class="av" d="M160.61,534.73,253.31,504c1-.58,2-1.28,2.93-1.93,1.18-.79,5.12-1.3,9.58-.94,18.71,1.51,41.13,24.17,41.13,24.17l-96.68,33.24Z"/>
                <path class="ax" d="M160.61,533.15l92.7-30.76c1-.58,2-1.28,2.93-1.93,1.18-.79,5.12-1.3,9.58-.94,18.71,1.51,41.13,24.17,41.13,24.17l-96.69,33.24Z"/>
              </g>
              <path class="ay" d="M157.1,540.29v-2.12a17.16,17.16,0,0,0-4.75-11.79c-16.62-17.55-49.2-26-49.2-26v8.75Z"/>
              <path class="az" d="M199.84,464.3l-96.68,36.08s48.58,4.59,53.95,32l96.69-33.23C248.42,471.74,199.84,464.3,199.84,464.3Z"/>
            </g>
            <path class="av" d="M157.1,540.29l1.87,1.08v.05l.32.13,51,29.55V556.93s-20.61-20.82-38.8-23.88c-.78-.13-1.56-.23-2.33-.29a32.66,32.66,0,0,0-5.94,0,4,4,0,0,0-.78,0,5.51,5.51,0,0,0-3.85,1.76,5.39,5.39,0,0,0-1.44,3.15,2.88,2.88,0,0,0,0,.47Z"/>
            <path class="ay" d="M157.1,540.29l1.87,1.08v.05l.32.13,51,29.55v-12.6s-23.93-21.2-38.8-24.64c-.8-.19-10.86-2.28-12.9.13a7,7,0,0,0-1.44,3.69,2.88,2.88,0,0,0,0,.47Z"/>
          </g>
          <path class="au" d="M144.23,537.18a29.21,29.21,0,0,0,1.14,3.75c3.35,6.57,13.44,7,13.44,7l1.59,1,.26-1-.79-2.2s-6.83-.27-11.27-4.19c-1.07-1-1.13-1.4-2.1-3Z"/>
        </g>
        <path class="ai" d="M253.62,508.17c6.55-2.42,19.11,9.76,5.63,23.88-3.14,3.29-4.62,6.15-9,7.91-2.15.87-5.23,2.71-8.05,3.35-5.92,3.51-10.11,4.62-13.67,6.26-4.69,2.15-3.07,3.45-13.52-1.52s-4.5-8.11-4.5-8.11l-2.27-2.65c-2.27-2.65.58-4.12.58-4.12l17.56-12a12.74,12.74,0,0,1,1.36-2.72c-4.75-.28-14.84-1.23-15.49-4.37-.85-4.1,12.44-1.56,17.9-2.54,1.94-.35,5-.74,8.08-1.1A13,13,0,0,1,240,510C244.68,509.2,249,509.83,253.62,508.17Z"/>
        <path class="ai" d="M295.87,399.27s8.63,36.85,5.27,47.67-9.45,35.84-51.86,63l13.6,17.39s61.74-29.64,71.36-70.24c4.46-18.81,2.66-58.1,2.66-58.1"/>
        <path class="ak" d="M287,402.93s12,4.52,24,4.69,34-9.17,34-9.17,2.42-37.66-10.65-60.11-29.8-24.5-43.5-8.16S287,402.93,287,402.93Z"/>
      </g>
      <g>
        <path class="ba" d="M531.86,581.49a3.79,3.79,0,0,1-1.28,3.53l-102.5,56.36a3.7,3.7,0,0,1-3.94.67l-17.38-6.93L401.57,633l-52.66-21-2.55-1-3.23-1.28a3.64,3.64,0,0,1-2.29-2.72,3.75,3.75,0,0,1,1.2-3.71l102.25-56.12a3.91,3.91,0,0,1,3.94-.67l6.89,2.73,2.54,1,52.84,20.87,5.08,2,13.92,5.49A3.79,3.79,0,0,1,531.86,581.49Z"/>
        <path class="bb" d="M346.33,592.39,443.11,541a3.58,3.58,0,0,1,3.67-.63l76,30a3.58,3.58,0,0,1,1,6l-97,51.6a3.58,3.58,0,0,1-3.68.62l-75.71-30.23A3.58,3.58,0,0,1,346.33,592.39Z"/>
        <path class="bc" d="M519,573.44a1.71,1.71,0,0,0-.49,1.38l-70.61-27.88a3.58,3.58,0,0,0-3.67.63l-93.77,48.75c-2.28-.23-5.27-.46-5.27-.46l1.14,6.73h.1a3.47,3.47,0,0,0,2,2.36l75.71,30.23a3.58,3.58,0,0,0,3.68-.62l97-51.6a3.42,3.42,0,0,0,1.12-2.55l.18,0L525,573.1S519.85,572.81,519,573.44Z"/>
        <path class="bd" d="M525,573.12l1.23,7.27-.18,0A3.36,3.36,0,0,1,524.9,583l-97,51.6a3.66,3.66,0,0,1-3.68.62L408,628.71l-5-2L348.44,605a3.39,3.39,0,0,1-2-2.38l-.09,0-1.14-6.73s3,.23,5.25.45l93.79-48.74a3.66,3.66,0,0,1,3.68-.62l52.26,20.64,4.75,1.87,13.56,5.36a1.78,1.78,0,0,1,.5-1.38C519.84,572.79,525,573.12,525,573.12Z"/>
        <path class="be" d="M525,573.12a3.54,3.54,0,0,1-1.2,3.3l-97,51.6a3.46,3.46,0,0,1-3.68.62l-16.24-6.48L402,620.22l-49.23-19.63-2.38-1-3-1.2a3.4,3.4,0,0,1-2.14-2.55,3.5,3.5,0,0,1,1.12-3.47L443.11,541a3.66,3.66,0,0,1,3.68-.62l6.44,2.56,2.38.94L505,563.39l4.75,1.87,13,5.13A3.54,3.54,0,0,1,525,573.12Z"/>
        <polygon class="aa" points="450.07 555.74 437.45 566.72 468.76 579.18 481.42 568.16 450.07 555.74"/>
      </g>
      <g>
        <path class="bb" d="M342.49,572l96.78-51.36a3.58,3.58,0,0,1,3.67-.63l76,30a3.58,3.58,0,0,1,1,6l-97,51.6a3.58,3.58,0,0,1-3.68.62l-75.71-30.23A3.58,3.58,0,0,1,342.49,572Z"/>
        <path class="bc" d="M515.14,553.1a1.71,1.71,0,0,0-.49,1.38L444,526.6a3.58,3.58,0,0,0-3.67.63L346.61,576c-2.28-.23-5.27-.46-5.27-.46l1.14,6.73h.1a3.47,3.47,0,0,0,2,2.36l75.71,30.23a3.58,3.58,0,0,0,3.68-.62l97-51.6a3.42,3.42,0,0,0,1.12-2.55l.18,0-1.24-7.29S516,552.47,515.14,553.1Z"/>
        <path class="bd" d="M521.14,552.78l1.23,7.27-.18,0a3.36,3.36,0,0,1-1.14,2.55l-97,51.6a3.66,3.66,0,0,1-3.68.62l-16.2-6.49-5-2L344.6,584.62a3.39,3.39,0,0,1-2-2.38l-.09,0-1.14-6.73s3,.23,5.25.45l93.79-48.74a3.66,3.66,0,0,1,3.68-.62l52.26,20.64,4.75,1.87,13.56,5.36a1.78,1.78,0,0,1,.5-1.38C516,552.45,521.14,552.78,521.14,552.78Z"/>
        <path class="bf" d="M521.14,552.78a3.54,3.54,0,0,1-1.2,3.3l-97,51.6a3.46,3.46,0,0,1-3.68.62L403,601.82l-4.86-1.95-49.23-19.63-2.38-1-3-1.2a3.41,3.41,0,0,1-2.14-2.55,3.5,3.5,0,0,1,1.12-3.47l96.8-51.38a3.66,3.66,0,0,1,3.68-.62l6.44,2.56,2.38.94,49.39,19.51,4.75,1.87,13,5.13A3.54,3.54,0,0,1,521.14,552.78Z"/>
        <polygon class="bg" points="402.95 601.69 402.98 601.82 404.13 608.37 399.18 606.39 398.04 599.94 398.12 599.88 496.33 547.24 502.85 543.59 507.6 545.46 501.08 549.12 402.95 601.69"/>
        <polygon class="aa" points="453.99 533.64 437.49 542.64 468.8 555.1 485.34 546.06 453.99 533.64"/>
      </g>
      <g>
        <path class="bh" d="M590.78,176.37H571.66s-8.93-6.57,0-7.46l9-.9Z"/>
        <polygon class="bh" points="573.49 18.18 553.63 18.18 553.63 20.74 564.55 23.3 574.62 22.45 573.49 18.18"/>
        <g>
          <path class="bh" d="M635.94,88.07c8.33,43.39-9.52,82.68-39.89,87.77s-61.74-26-70.07-69.35,9.52-82.68,39.89-87.77S627.6,44.69,635.94,88.07Z"/>
          <path class="bi" d="M619.44,88.07c8.33,43.39-9.52,82.68-39.89,87.77s-61.74-26-70.07-69.35S519,23.81,549.37,18.72,611.11,44.69,619.44,88.07Z"/>
          <path class="h" d="M606.79,90.19c6.42,33.41-7.33,63.66-30.71,67.58s-47.53-20-53.95-53.39,7.33-63.66,30.71-67.58S600.37,56.79,606.79,90.19Z"/>
          <g>
            <path class="bh" d="M566.49,100.57c.6,3.15-.69,6-2.89,6.37s-4.48-1.88-5.08-5,.69-6,2.89-6.37S565.89,97.43,566.49,100.57Z"/>
            <path class="bh" d="M562.5,103.29a2,2,0,0,1-2-2V65.87a2,2,0,1,1,4.1,0v35.37A2,2,0,0,1,562.5,103.29Z"/>
            <path class="bh" d="M562.5,103.29a2,2,0,0,1-.34-4.07l24.23-4.06a2,2,0,0,1,2.36,1.68,2.05,2.05,0,0,1-1.68,2.36l-24.23,4.06A2,2,0,0,1,562.5,103.29Z"/>
          </g>
        </g>
      </g>
      <g>
        <path class="ba" d="M465.36,380.16a2.15,2.15,0,0,0-3.24-1.84L411.4,401.56a2.38,2.38,0,0,0-1.13,2.45l10.38,60.15a2.38,2.38,0,0,1-1.06,2.41l-31.5,20.18a2.38,2.38,0,0,0,.12,4.09l26,14.55a6,6,0,0,0,6-.06L482,469.08a2.37,2.37,0,0,0-.22-4.2l-5.49-2.54a2.38,2.38,0,0,1-1.38-2.28Z"/>
        <path class="be" d="M452.72,350.85l-57,33.39,19.5,11L456,361.54l-.06-8.85A2.15,2.15,0,0,0,452.72,350.85Z"/>
        <polygon class="aa" points="395.7 387.31 452.41 354.11 472.99 365.79 416.3 398.98 395.7 387.31"/>
        <path class="bj" d="M474.53,362.23A2.34,2.34,0,0,0,472,362L415.2,395.28l-19.5-11,57-33.39a2.1,2.1,0,0,1,1.86-.13h0s-2-1-2.79-1.42a2.32,2.32,0,0,0-2.4-.16l-60,35.13.71,101.22,22.48-13.16.18,26,61.35-35.92A3.72,3.72,0,0,0,476,459.2l1.25-95.49S475.4,362.77,474.53,362.23Z"/>
        <polygon class="bf" points="415.22 398.92 389.38 384.28 390.1 485.5 415.94 500.14 415.22 398.92"/>
        <path class="be" d="M475.22,363.79l-60,35.13.71,101.22,61.35-35.92a3.72,3.72,0,0,0,1.84-3.24l-.67-95.35A2.15,2.15,0,0,0,475.22,363.79Z"/>
        <polygon class="bk" points="469.7 380.16 441.13 396.89 441.45 414.85 470.02 398.12 469.7 380.16"/>
      </g>
      <g>
        <path class="ba" d="M594,494.2c-13.93.41-25,7.36-24.78,15.53,0,0,0,3.1,0,4.52a9,9,0,0,0,.34,2.2,12.23,12.23,0,0,0,4.28,6l-5.18,3.23a3.89,3.89,0,0,0-2.11-.41,3.12,3.12,0,0,0-1.07.3l-.18.09-.22.14-.08.05-.06,0-28.91,17.87h0l-.18.09-.22.14-.08.05c-1.61,1.15-2.07,3.68-1,6,1.2,2.49,3.77,3.74,5.77,2.79h0a3,3,0,0,0,.6-.38h0l28.84-17.82h0a3,3,0,0,0,.6-.38,3.56,3.56,0,0,0,1.15-1.58,5,5,0,0,0,.27-2.2l7.06-4.4h0a1.71,1.71,0,0,0,.34-.22c.06,0,.08-.13.13-.19a37.71,37.71,0,0,0,15.52,2.65c12.65-.37,23-6.14,24.57-13.31.16-.73.21-6.73.21-6.73C619.46,500.08,608,493.79,594,494.2Z"/>
        <g>
          <path class="bl" d="M566,511.43a8.93,8.93,0,0,0,.34,2.2c2,7.07,12.66,12.22,25.31,11.84s23-6.14,24.57-13.31c.16-.73.21-6.73.21-6.73s-6.62-13.18-25.65-12.92c-11.51.16-24.78,14.4-24.78,14.4S566,510,566,511.43Zm4-.12a8.31,8.31,0,0,1,1.66-5.08c3.16-4.46,10.53-7.73,19.19-8s16.21,2.57,19.63,6.84a8.3,8.3,0,0,1,2,5c.2,6.87-9.13,9.54-20.85,9.88S570.24,518.18,570,511.32Z"/>
          <g>
            <ellipse class="bm" cx="591.16" cy="506.27" rx="22.1" ry="12.7" transform="matrix(1, -0.03, 0.03, 1, -14.63, 17.6)"/>
            <path class="bn" d="M578.45,496c22,.48,28.63,11.31,30.47,17.44,2.81-2.22,4.42-4.95,4.34-7.86-.21-7-10.21-12.15-22.41-11.8A36.81,36.81,0,0,0,578.45,496Z"/>
            <path class="bn" d="M571.25,507.19c.18,6.2,9.09,11,19.89,10.66s19.41-5.6,19.22-11.82c0-.18,0-.36,0-.54-.6,5.82-8.89,10.63-19.18,10.94-10.48.32-19.17-4.17-19.85-10.1A5.11,5.11,0,0,0,571.25,507.19Z"/>
          </g>
          <path class="bo" d="M568.26,502.55,574,496.6l16.51-4.08,16.72,3.11,6.06,5.6,1.58,3.49-2.39.84s-2.82-11.36-21.9-10.8-21.23,12.07-21.23,12.07l-2.44-.7Z"/>
          <path class="bp" d="M566,506.92a8.93,8.93,0,0,0,.34,2.2c2,7.07,12.66,12.22,25.31,11.84s23-6.14,24.57-13.31a8.93,8.93,0,0,0,.21-2.22c-.24-8.17-11.72-14.46-25.65-14S565.79,498.75,566,506.92Zm4-.12a8.3,8.3,0,0,1,1.66-5.08c3.16-4.46,10.53-7.73,19.19-8s16.21,2.57,19.63,6.84a8.31,8.31,0,0,1,2,5c.2,6.87-9.13,12.72-20.85,13.06S570.24,513.67,570,506.8Z"/>
          <path class="bq" d="M566,506.92a8.93,8.93,0,0,0,.34,2.2c2,7.07,12.66,12.22,25.31,11.84s23-6.14,24.57-13.31a8.93,8.93,0,0,0,.21-2.22c-.24-8.17-11.72-14.46-25.65-14S565.79,498.75,566,506.92Zm4-.12a8.3,8.3,0,0,1,1.66-5.08c3.16-4.46,10.53-7.73,19.19-8s16.21,2.57,19.63,6.84a8.31,8.31,0,0,1,2,5c.2,6.87-9.13,12.72-20.85,13.06S570.24,513.67,570,506.8Z"/>
          <path class="bq" d="M563,524.4l.48.71h0l2.16,3.2.56.82,9.47-5.91h0A1.71,1.71,0,0,0,576,523a2.06,2.06,0,0,0,.66-.91,2.53,2.53,0,0,0,.15-.58h0a3.34,3.34,0,0,0-.31-1.88,3.21,3.21,0,0,0-1.63-1.6,2.19,2.19,0,0,0-1.07-.17,1.82,1.82,0,0,0-.61.17l-.1.05-.13.08,0,0Z"/>
          <path class="h" d="M563,524.4l.48.71h0L574.9,518a2.19,2.19,0,0,0-1.07-.17,1.82,1.82,0,0,0-.61.17l-.1.05-.13.08,0,0Z"/>
          <path class="br" d="M565.65,528.32l.56.82,9.47-5.91h0A1.71,1.71,0,0,0,576,523a2.06,2.06,0,0,0,.66-.91,2.53,2.53,0,0,0,.15-.58Z"/>
          <path class="bs" d="M532.84,541l1.38,2.43,3.54,6.23,28.84-17.82h0a3,3,0,0,0,.6-.37,3.56,3.56,0,0,0,1.15-1.58,5.52,5.52,0,0,0-.29-4.29,6.12,6.12,0,0,0-1-1.46h0a4.5,4.5,0,0,0-3.72-1.62,3.1,3.1,0,0,0-1.07.3l-.18.09-.22.14-.08.05-.06,0Z"/>
          <path class="bt" d="M532.84,541l1.38,2.43,3.47-1,29.41-18.25h0a4.5,4.5,0,0,0-3.72-1.62,3.1,3.1,0,0,0-1.07.3l-.18.09-.22.14-.08.05-.06,0Z"/>
          <path class="bu" d="M531.38,547.2c1.2,2.49,3.77,3.74,5.77,2.79h0a3,3,0,0,0,.6-.38A3.59,3.59,0,0,0,538.9,548a5.51,5.51,0,0,0-.29-4.29,5,5,0,0,0-4.7-3.09,3.15,3.15,0,0,0-1.07.3l-.18.09-.22.14-.08.05C530.75,542.39,530.29,544.92,531.38,547.2Z"/>
        </g>
      </g>
      <g>
        <g>
          <ellipse class="ba" cx="512.76" cy="514.06" rx="19.18" ry="10.89"/>
          <ellipse class="r" cx="512.76" cy="510.19" rx="19.18" ry="10.89"/>
          <polygon class="r" points="539.21 453.31 531.95 510.19 493.58 511.04 486.32 453.31 539.21 453.31"/>
          <g>
            <ellipse class="s" cx="512.76" cy="453.32" rx="26.45" ry="15.01"/>
            <path class="bv" d="M512.76,464.89c-13.56,0-23-6.1-23-11.58s9.45-11.58,23-11.58,23,6.1,23,11.58S526.33,464.89,512.76,464.89Z"/>
            <path class="bw" d="M512.76,464.89c-13.56,0-23-6.1-23-11.58s9.45-11.58,23-11.58,23,6.1,23,11.58S526.33,464.89,512.76,464.89Z"/>
          </g>
        </g>
        <g class="bx">
          <g>
            <path class="by" d="M522.27,448.05h0a.87.87,0,0,1-.69-1l1.6-8.24a.87.87,0,0,1,1-.69h0a.87.87,0,0,1,.69,1l-1.6,8.24A.87.87,0,0,1,522.27,448.05Z"/>
            <g>
              <path class="bz" d="M520.16,491.49c-.15.8-1.55.92-3.13.27s-2.73-1.82-2.58-2.62,1.55-.92,3.13-.27S520.32,490.69,520.16,491.49Z"/>
              <polygon class="bi" points="526.32 426.61 514.46 489.14 520.16 491.49 532.02 428.96 526.32 426.61"/>
              <path class="ca" d="M532,429c-.15.8-1.55.92-3.13.27s-2.73-1.82-2.58-2.62,1.55-.92,3.13-.27S532.17,428.16,532,429Z"/>
            </g>
          </g>
          <g>
            <path class="n" d="M517.52,413.06l0,2,0,.81-.07,2.74v.81l-.07,2.74,0,.81-.06,2.66,0,.81-.07,2.69,0,.81-.06,2.74,0,.8-.07,2.74,0,.81-.06,2.69,0,.8-.07,2.71V444l-.07,2.71,0,.8-.06,2.76,0,.81-.07,2.74,0,.8-.06,2.72,0,.8-.07,2.76,0,.8-.06,2.71,0,.81-.07,2.74v.8l-.28,11.2c-.06,2.56-1.9,4.35-3.69,3.58L506.25,481a4,4,0,0,1-2-3.87l2-65.63c.07-2.33,1.62-4,3.3-3.66l5.57,1.26C516.55,409.41,517.56,411.1,517.52,413.06Z"/>
            <path class="h" d="M517.47,415.05l0,.81,0,0-2.53-.65a.44.44,0,0,1-.23-.48c0-.21.19-.37.35-.3Z"/>
            <path class="h" d="M517.38,418.6v.81l-.06,0-2.53-.67a.39.39,0,0,1-.23-.46c0-.21.19-.37.34-.32Z"/>
            <path class="h" d="M517.3,422.15l0,.81-.06,0-2.53-.67a.39.39,0,0,1-.23-.46c0-.22.17-.37.34-.32Z"/>
            <path class="h" d="M517.21,425.63l0,.81s0,0,0,0l-2.53-.67a.38.38,0,0,1-.23-.46c0-.22.17-.37.34-.32Z"/>
            <path class="h" d="M517.12,429.13l0,.81,0,0-2.53-.67c-.15,0-.26-.24-.23-.46s.19-.37.35-.32Z"/>
            <path class="h" d="M517,432.68l0,.8H517l-2.53-.67a.44.44,0,0,1-.23-.48c0-.21.19-.37.35-.3Z"/>
            <path class="h" d="M516.95,436.22l0,.81a0,0,0,0,1,0,0l-2.53-.67c-.15,0-.26-.24-.23-.46s.19-.37.35-.32Z"/>
            <path class="h" d="M516.86,439.72l0,.8h-.06l-2.53-.67a.4.4,0,0,1-.23-.46c0-.22.19-.38.34-.32Z"/>
            <path class="h" d="M516.77,443.22V444l0,0-2.53-.67a.39.39,0,0,1-.23-.46c0-.22.17-.37.34-.32Z"/>
            <path class="h" d="M516.69,446.74l0,.8h0l-2.53-.67a.4.4,0,0,1-.23-.46c0-.22.19-.38.34-.32Z"/>
            <path class="h" d="M516.61,450.3l0,.81-.06,0-2.53-.67c-.15,0-.26-.24-.23-.46s.17-.37.35-.32Z"/>
            <path class="h" d="M516.52,453.85l0,.8h0l0,0-2.53-.67a.39.39,0,0,1-.23-.46c0-.22.17-.37.34-.32Z"/>
            <path class="h" d="M516.43,457.37l0,.8h0l-.06,0-2.53-.67c-.16,0-.26-.24-.23-.46s.19-.37.34-.32Z"/>
            <path class="h" d="M516.34,460.92l0,.8h0l-2.53-.67a.43.43,0,0,1-.23-.46c0-.22.17-.37.35-.32Z"/>
            <path class="h" d="M516.26,464.42l0,.81a0,0,0,0,1,0,0l-2.53-.67a.38.38,0,0,1-.23-.46c0-.21.17-.37.34-.32Z"/>
            <path class="h" d="M516.17,468v.8h-.06l-2.53-.67a.4.4,0,0,1-.23-.46c0-.22.19-.37.34-.32Z"/>
          </g>
        </g>
      </g>
    </g>
  </g>
</svg>
