<svg height="472pt" viewBox="-4 0 472 472" width="472pt" xmlns="http://www.w3.org/2000/svg"><path d="m464 96v208h-464v-208c0-17.671875 14.328125-32 32-32h400c2.421875.019531 4.832031.289062 7.199219.800781 14.527343 3.351563 24.808593 16.292969 24.800781 31.199219zm0 0" fill="#78b9eb"/><path d="m464 96v208h-264l239.199219-239.199219c14.527343 3.351563 24.808593 16.292969 24.800781 31.199219zm0 0" fill="#5aaae7"/><path d="m320 440v24h-176v-24c0-4.417969 3.582031-8 8-8h160c4.417969 0 8 3.582031 8 8zm0 0" fill="#787680"/><path d="m296 432h-128l8-64h112zm0 0" fill="#898890"/><path d="m464 304v32c0 17.671875-14.328125 32-32 32h-400c-17.671875 0-32-14.328125-32-32v-32zm0 0" fill="#acabb1"/><path d="m290 384h-116l2-16h112zm0 0" fill="#787680"/><path d="m361.519531 176h-33.519531l-8 24 8 24h33.519531c-8.550781 14.851562-24.382812 24.003906-41.519531 24.003906s-32.96875-9.152344-41.519531-24.003906h-92.960938c-8.550781 14.851562-24.382812 24.003906-41.519531 24.003906s-32.96875-9.152344-41.519531-24.003906h33.519531l8-24-8-24h-33.519531c8.550781-14.851562 24.382812-24.003906 41.519531-24.003906s32.96875 9.152344 41.519531 24.003906h92.960938c8.550781-14.851562 24.382812-24.003906 41.519531-24.003906s32.96875 9.152344 41.519531 24.003906zm0 0" fill="#acabb1"/><path d="m288 136h-112c0-30.929688 25.070312-56 56-56s56 25.070312 56 56zm0 0" fill="#ff6243"/><path d="m331.761719 106.800781c-2.070313-7.230469-4.941407-14.207031-8.5625-20.800781l16.480469-22 5.441406-7.199219-33.921875-33.921875-29.199219 21.921875c-6.59375-3.621093-13.570312-6.492187-20.800781-8.5625l-5.199219-36.238281h-48l-5.199219 36.238281c-7.230469 2.070313-14.207031 4.941407-20.800781 8.5625l-29.199219-21.921875-33.921875 33.921875 5.441406 7.199219 16.480469 22c-3.621093 6.59375-6.492187 13.570312-8.5625 20.800781l-36.238281 5.199219v24h80c0-30.929688 25.070312-56 56-56s56 25.070312 56 56h80v-24zm0 0" fill="#ffa733"/><path d="m120 456h224v16h-224zm0 0" fill="#57565c"/><path d="m416 328h16v16h-16zm0 0" fill="#787680"/><g fill="#ee8700"><path d="m224 24h16v16h-16zm0 0"/><path d="m147.152344 62.460938 11.3125-11.3125 11.3125 11.3125-11.3125 11.316406zm0 0"/><path d="m294.226562 62.464844 11.3125-11.3125 11.316407 11.3125-11.316407 11.316406zm0 0"/></g></svg>