<svg viewBox="1 1 511.99998 511.99998" xmlns="http://www.w3.org/2000/svg"><path d="m512 256c0 118.230469-80.144531 217.746094-189.074219 247.160156-10.6875 2.894532-21.648437 5.097656-32.851562 6.582032-6.488281.867187-13.0625 1.484374-19.695313 1.851562-4.765625.269531-9.550781.40625-14.378906.40625-12.183594 0-24.15625-.847656-35.890625-2.496094-75.023437-10.523437-139.621094-53.574218-179.078125-114.4375-25.964844-40.042968-41.03125-87.792968-41.03125-139.066406 0-141.386719 114.613281-256 256-256 13.332031 0 26.4375 1.023438 39.214844 2.976562 98.628906 15.171876 178.710937 86.625 206.378906 180.539063 6.769531 22.976563 10.40625 47.3125 10.40625 72.484375zm0 0" fill="#515a6e"/><path d="m501.59375 183.515625c-6.082031-45.296875-25.339844-87.324219-58.242188-120.226563-39.570312-39.570312-92.359374-59.402343-148.136718-60.3125-71.984375-1.167968-148.972656 29.164063-209.03125 89.234376-.574219.574218-1.160156 1.160156-1.746094 1.765624-39.714844 40.878907-96.652344 138.042969-52.472656 156.570313 62.683594 26.300781 92.535156 25.871094 92.535156 52.078125 0 36.265625-69.109375 55.449219-83.46875 92.441406 39.457031 60.863282 104.054688 103.914063 179.078125 114.4375 67.632813-2.886718 138.332031-33.050781 194.328125-89.035156 67.917969-67.921875 97.824219-157.46875 87.15625-236.953125zm-267.558594 211.277344c-18.964844 18.964843-49.714844 18.964843-68.679687 0-18.964844-18.964844-18.964844-49.714844 0-68.679688 18.964843-18.976562 49.714843-18.976562 68.679687 0 18.976563 18.964844 18.976563 49.714844 0 68.679688zm0 0" fill="#e6e6e6"/><path d="m121.613281 218.03125c-13.714843 0-26.609375-5.339844-36.308593-15.039062-9.699219-9.699219-15.042969-22.59375-15.042969-36.308594s5.34375-26.609375 15.042969-36.308594c9.699218-9.699219 22.59375-15.039062 36.308593-15.039062 13.714844 0 26.609375 5.339843 36.308594 15.039062s15.039063 22.59375 15.039063 36.308594-5.339844 26.609375-15.039063 36.308594c-9.699219 9.699218-22.59375 15.039062-36.308594 15.039062zm0 0" fill="#ccc"/><path d="m162.511719 166.683594c0 22.585937-18.3125 40.898437-40.898438 40.898437-22.589843 0-40.898437-18.3125-40.898437-40.898437 0-22.589844 18.308594-40.898438 40.898437-40.898438 22.585938 0 40.898438 18.308594 40.898438 40.898438zm0 0" fill="#ed5972"/><path d="m107.382812 195.605469c6.113282 6.109375 13.679688 9.882812 21.578126 11.316406-12.757813 2.316406-26.40625-1.453125-36.269532-11.316406-15.976562-15.976563-15.976562-41.871094 0-57.847657 9.863282-9.863281 23.511719-13.636718 36.269532-11.304687-7.898438 1.429687-15.464844 5.191406-21.578126 11.304687-15.964843 15.976563-15.964843 41.871094 0 57.847657zm0 0" fill="#d8375a"/><path d="m222.644531 151.667969c-13.714843 0-26.609375-5.339844-36.308593-15.039063-9.695313-9.699218-15.039063-22.59375-15.039063-36.308594 0-13.71875 5.339844-26.613281 15.039063-36.3125 9.699218-9.695312 22.59375-15.039062 36.308593-15.039062 13.714844 0 26.613281 5.34375 36.308594 15.039062 9.699219 9.699219 15.042969 22.59375 15.042969 36.3125 0 13.714844-5.34375 26.609376-15.042969 36.308594-9.695313 9.699219-22.59375 15.039063-36.308594 15.039063zm0 0" fill="#ccc"/><path d="m263.546875 100.320312c0 22.585938-18.3125 40.898438-40.902344 40.898438-22.585937 0-40.898437-18.3125-40.898437-40.898438 0-22.589843 18.3125-40.898437 40.898437-40.898437 22.589844 0 40.902344 18.308594 40.902344 40.898437zm0 0" fill="#f7d65e"/><path d="m349.4375 149.90625c-13.71875 0-26.613281-5.34375-36.3125-15.042969-9.695312-9.695312-15.039062-22.589843-15.039062-36.308593 0-13.714844 5.34375-26.609376 15.039062-36.308594 9.699219-9.699219 22.59375-15.039063 36.3125-15.039063 13.714844 0 26.609375 5.339844 36.308594 15.039063 9.695312 9.699218 15.039062 22.59375 15.039062 36.308594 0 13.714843-5.339844 26.613281-15.039062 36.308593-9.699219 9.703125-22.59375 15.042969-36.308594 15.042969zm0 0" fill="#ccc"/><path d="m390.335938 98.558594c0 22.585937-18.3125 40.898437-40.898438 40.898437-22.589844 0-40.902344-18.3125-40.902344-40.898437 0-22.589844 18.3125-40.902344 40.902344-40.902344 22.585938 0 40.898438 18.3125 40.898438 40.902344zm0 0" fill="#49aab7"/><path d="m425.378906 248.828125c-13.714844 0-26.609375-5.34375-36.308594-15.039063-9.699218-9.699218-15.039062-22.59375-15.039062-36.3125 0-13.714843 5.339844-26.609374 15.039062-36.308593 9.699219-9.699219 22.59375-15.039063 36.308594-15.039063s26.609375 5.339844 36.308594 15.039063 15.039062 22.59375 15.039062 36.308593c0 13.71875-5.339843 26.613282-15.039062 36.3125-9.699219 9.695313-22.59375 15.039063-36.308594 15.039063zm0 0" fill="#ccc"/><path d="m466.277344 197.480469c0 22.585937-18.308594 40.898437-40.898438 40.898437s-40.898437-18.3125-40.898437-40.898437c0-22.589844 18.308593-40.902344 40.898437-40.902344s40.898438 18.3125 40.898438 40.902344zm0 0" fill="#5cbf96"/><path d="m402.78125 365.5c-13.714844 0-26.613281-5.34375-36.308594-15.042969-9.699218-9.695312-15.042968-22.589843-15.042968-36.308593 0-13.714844 5.34375-26.609376 15.042968-36.308594 9.695313-9.699219 22.59375-15.039063 36.308594-15.039063s26.609375 5.339844 36.308594 15.039063c9.695312 9.699218 15.039062 22.59375 15.039062 36.308594 0 13.714843-5.339844 26.613281-15.039062 36.308593-9.699219 9.699219-22.59375 15.042969-36.308594 15.042969zm0 0" fill="#ccc"/><path d="m443.679688 314.152344c0 22.585937-18.3125 40.898437-40.898438 40.898437-22.589844 0-40.902344-18.3125-40.902344-40.898437 0-22.589844 18.3125-40.902344 40.902344-40.902344 22.585938 0 40.898438 18.3125 40.898438 40.902344zm0 0" fill="#ea7e5a"/><path d="m208.417969 129.242188c6.109375 6.109374 13.675781 9.882812 21.574219 11.3125-12.757813 2.320312-26.402344-1.449219-36.265626-11.3125-15.976562-15.976563-15.976562-41.871094 0-57.847657 9.863282-9.863281 23.507813-13.636719 36.265626-11.304687-7.898438 1.429687-15.464844 5.191406-21.574219 11.304687-15.96875 15.976563-15.96875 41.871094 0 57.847657zm0 0" fill="#d1a22a"/><path d="m335.207031 127.476562c6.113281 6.113282 13.675781 9.886719 21.578125 11.316407-12.761718 2.320312-26.40625-1.453125-36.269531-11.316407-15.976563-15.976562-15.976563-41.867187 0-57.84375 9.863281-9.863281 23.507813-13.636718 36.269531-11.304687-7.902344 1.429687-15.464844 5.191406-21.578125 11.304687-15.964843 15.976563-15.964843 41.867188 0 57.84375zm0 0" fill="#488089"/><path d="m411.148438 226.398438c6.113281 6.113281 13.679687 9.886718 21.578124 11.316406-12.757812 2.320312-26.40625-1.449219-36.269531-11.316406-15.976562-15.976563-15.976562-41.867188 0-57.84375 9.863281-9.863282 23.511719-13.636719 36.269531-11.304688-7.898437 1.429688-15.464843 5.191406-21.578124 11.304688-15.964844 15.976562-15.964844 41.867187 0 57.84375zm0 0" fill="#529e5f"/><path d="m388.550781 343.070312c6.113281 6.113282 13.675781 9.882813 21.578125 11.316407-12.757812 2.320312-26.40625-1.453125-36.269531-11.316407-15.976563-15.976562-15.976563-41.867187 0-57.84375 9.863281-9.867187 23.511719-13.636718 36.269531-11.308593-7.902344 1.433593-15.464844 5.195312-21.578125 11.308593-15.964843 15.976563-15.964843 41.867188 0 57.84375zm0 0" fill="#d64f39"/><path d="m339.464844 270.574219c0 1.171875-.019532 2.332031-.050782 3.5-1.527343 54.898437-84.28125 54.898437-85.816406 0-.03125-1.167969-.042968-2.328125-.042968-3.5 0-17.042969 3.449218-33.269531 9.707031-48.042969 7.460937-17.671875 18.921875-33.238281 33.25-45.578125 26.300781 22.652344 42.953125 56.183594 42.953125 93.621094zm0 0" fill="#e5d6b9"/><path d="m296.511719 315.242188c-21.078125 0-42.152344-13.71875-42.914063-41.167969-.03125-1.167969-.042968-2.328125-.042968-3.5 0-17.042969 3.449218-33.269531 9.707031-48.042969 7.460937-17.671875 18.921875-33.238281 33.25-45.578125-4.066407 12.339844-7.316407 27.90625-9.4375 45.578125-1.773438 14.773438-2.757813 31-2.757813 48.042969 0 1.171875 0 2.332031.011719 3.5.21875 27.449219 6.207031 41.167969 12.183594 41.167969zm0 0" fill="#d1a982"/><path d="m339.464844 270.574219c-33.496094 14.878906-39.046875-34.148438-54.261719-18.921875-.164063.164062-.320313.324218-.488281.46875-15.046875 14.417968-29.625-.785156-21.453125-29.589844 7.460937-17.671875 18.921875-33.238281 33.25-45.578125 26.300781 22.652344 42.953125 56.183594 42.953125 93.621094zm0 0" fill="#5cbf96"/><path d="m296.511719 176.953125c-4.066407 12.339844-7.316407 27.90625-9.4375 45.578125-1.117188 9.328125-1.921875 19.246094-2.359375 29.589844-15.046875 14.417968-29.625-.785156-21.453125-29.589844 7.460937-17.671875 18.921875-33.238281 33.25-45.578125zm0 0" fill="#529e5f"/><path d="m329.757812 301.765625-4.667968 137.625-2.164063 63.769531c-16.886719 4.566406-34.472656 7.441406-52.546875 8.433594l-2.445312-72.203125-4.671875-137.625zm0 0" fill="#f7d65e"/><path d="m290.074219 509.742188c-6.488281.867187-13.0625 1.484374-19.695313 1.851562l-2.445312-72.203125-4.671875-137.625h25.078125l1.148437 137.625zm0 0" fill="#d1a22a"/><path d="m329.761719 301.765625-4.667969 137.625h-57.15625l-4.671875-137.625zm0 0" fill="#fff"/><path d="m289.492188 439.390625h-21.554688l-4.671875-137.625h25.078125zm0 0" fill="#f2f2f2"/></svg>