<svg height="512" viewBox="0 0 512 512" width="512" xmlns="http://www.w3.org/2000/svg"><path d="m122.181 287.6-94.624 16.68a231.7 231.7 0 0 0 79.343 137.42l61.717-73.551a135.75 135.75 0 0 1 -46.436-80.549z" fill="#ff421d"/><path d="m256 128a135.416 135.416 0 0 1 46.471 8.321l32.868-90.3a231.515 231.515 0 0 0 -158.678 0l32.868 90.3a135.416 135.416 0 0 1 46.471-8.321z" fill="#fdb62f"/><path d="m343.388 368.145 61.717 73.555a231.7 231.7 0 0 0 79.338-137.42l-94.624-16.68a135.75 135.75 0 0 1 -46.431 80.545z" fill="#0071bc"/><path d="m120 264a135.2 135.2 0 0 1 18.311-67.948l-69.35-40.039a215.353 215.353 0 0 0 -25.649 145.487l78.869-13.9a136.305 136.305 0 0 1 -2.181-23.6z" fill="#e86110"/><path d="m392 264a136.305 136.305 0 0 1 -2.181 23.6l78.869 13.9a215.353 215.353 0 0 0 -25.649-145.489l-69.35 40.039a135.2 135.2 0 0 1 18.311 67.95z" fill="#00a99d"/><path d="m373.689 196.052 69.35-40.039a216.652 216.652 0 0 0 -113.146-95.033l-27.422 75.341a136.226 136.226 0 0 1 71.218 59.731z" fill="#39b54a"/><path d="m209.529 136.321-27.422-75.341a216.652 216.652 0 0 0 -113.146 95.033l69.35 40.039a136.226 136.226 0 0 1 71.218-59.731z" fill="#f7931e"/><path d="m168.612 368.145-51.434 61.3a215.091 215.091 0 0 0 138.822 50.555v-80a135.391 135.391 0 0 1 -87.388-31.855z" fill="#c1272d"/><path d="m256 400v80a215.091 215.091 0 0 0 138.822-50.559l-51.434-61.3a135.391 135.391 0 0 1 -87.388 31.859z" fill="#662d91"/><path d="m236.865 211.426-27.336-75.1a136.226 136.226 0 0 0 -71.218 59.731l69.229 39.969a56.1 56.1 0 0 1 29.325-24.6z" fill="#fabe78"/><path d="m200.9 273.716-78.719 13.884a135.745 135.745 0 0 0 46.431 80.549l51.405-61.262a55.9 55.9 0 0 1 -19.117-33.171z" fill="#ff8e77"/><path d="m304.46 236.021 69.229-39.969a136.226 136.226 0 0 0 -71.218-59.731l-27.336 75.1a56.1 56.1 0 0 1 29.325 24.6z" fill="#88d392"/><path d="m256 208a55.769 55.769 0 0 1 19.135 3.426l27.336-75.1a133.926 133.926 0 0 0 -92.942 0l27.336 75.1a55.769 55.769 0 0 1 19.135-3.426z" fill="#fed382"/><path d="m200 264a55.666 55.666 0 0 1 7.54-27.979l-69.229-39.969a133.568 133.568 0 0 0 -16.13 91.544l78.717-13.88a56.154 56.154 0 0 1 -.898-9.716z" fill="#f1a06f"/><path d="m220.017 306.883-51.4 61.262a135.391 135.391 0 0 0 87.383 31.855v-80a55.744 55.744 0 0 1 -35.983-13.117z" fill="#da7d81"/><path d="m373.689 196.052-69.229 39.969a55 55 0 0 1 6.642 37.7l78.717 13.88a133.568 133.568 0 0 0 -16.13-91.544z" fill="#66cbc4"/><path d="m256 320v80a135.391 135.391 0 0 0 87.388-31.855l-51.4-61.262a55.744 55.744 0 0 1 -35.988 13.117z" fill="#a381bd"/><path d="m291.983 306.883 51.4 61.262a135.745 135.745 0 0 0 46.436-80.545l-78.719-13.884a55.9 55.9 0 0 1 -19.117 33.167z" fill="#66aad7"/></svg>