<?xml version="1.0" encoding="iso-8859-1"?>
<!-- Generator: Adobe Illustrator 19.0.0, SVG Export Plug-In . SVG Version: 6.00 Build 0)  -->
<svg version="1.1" id="Capa_1" xmlns="http://www.w3.org/2000/svg" xmlns:xlink="http://www.w3.org/1999/xlink" x="0px" y="0px"
	 viewBox="0 0 501.224 501.224" style="enable-background:new 0 0 501.224 501.224;" xml:space="preserve">
<g>
	<g>
		<path d="M474.608,2.612h-344v0.16c-48.8,1.68-88,41.8-88,91v36.84c0,15.576,11.192,28.552,25.952,31.392
			c4.224,17.024,15.248,31.36,30.048,39.952v2.096l-44.872,8.976c-20.648,4.128-37.072,19.272-42.856,39.528L0,290.612h261.216
			l-4.568-16h217.96c13.232,0,24-10.768,24-24v-224C498.608,13.38,487.84,2.612,474.608,2.612z M66.608,144.38
			c-4.76-2.768-8-7.872-8-13.768s3.24-11,8-13.776V144.38z M58.608,103.06v-9.296c0-41.432,33.72-75.152,75.16-75.152
			c15.384,0,29.656,7.64,38.184,20.44l1.712,2.568l3.008,0.752c15.272,3.816,25.936,17.48,25.936,33.224v27.464
			c-4.728-2.752-10.144-4.448-16-4.448c-18.92,0-37.672-6.248-52.808-17.6l-11.944-8.96L109.92,83.988
			c-9.432,9.432-21.976,14.624-35.312,14.624C68.752,98.612,63.336,100.308,58.608,103.06z M211.832,50.612h238.776v176h-216v0.256
			c-7.432-6.896-16.736-11.768-27.128-13.848l-44.872-8.968v-2.096c14.8-8.592,25.824-22.928,30.048-39.952
			c14.76-2.84,25.952-15.816,25.952-31.392V75.596C218.608,66.548,216.104,58.036,211.832,50.612z M194.608,144.388v-27.544
			c4.76,2.768,8,7.872,8,13.768S199.368,141.612,194.608,144.388z M82.608,146.612v-32.536c14.584-1.752,28.08-8.232,38.624-18.776
			l2.128-2.128l0.84,0.632c15.744,11.808,34.808,18.936,54.408,20.48v32.328c0,26.472-21.528,48-48,48
			S82.608,173.084,82.608,146.612z M21.216,274.612l5.048-17.664c4.136-14.464,15.856-25.28,30.608-28.232l57.736-11.544V208.5
			c5.128,1.336,10.464,2.112,16,2.112s10.872-0.776,16-2.104v8.672l57.736,11.536c14.752,2.952,26.48,13.776,30.608,28.232
			L240,274.612H21.216z M482.608,250.612c0,4.416-3.584,8-8,8H252.072l-1.728-6.056c-1-3.496-2.424-6.776-4.024-9.944h220.288v-208
			H197.4c-4.176-2.952-8.824-5.328-13.872-6.92c-2.48-3.352-5.32-6.344-8.352-9.08h299.432c4.416,0,8,3.584,8,8V250.612z"/>
	</g>
</g>
<g>
	<g>
		<polygon points="242.608,98.612 242.608,114.612 274.608,114.612 274.608,130.612 258.608,130.612 258.608,146.612 
			274.608,146.612 274.608,162.612 242.608,162.612 242.608,178.612 290.608,178.612 290.608,98.612 		"/>
	</g>
</g>
<g>
	<g>
		<polygon points="418.608,146.612 418.608,98.612 370.608,98.612 370.608,114.612 402.608,114.612 402.608,130.612 
			370.608,130.612 370.608,178.612 418.608,178.612 418.608,162.612 386.608,162.612 386.608,146.612 		"/>
	</g>
</g>
<g>
	<g>
		<polygon points="338.608,130.612 338.608,114.612 322.608,114.612 322.608,130.612 306.608,130.612 306.608,146.612 
			322.608,146.612 322.608,162.612 338.608,162.612 338.608,146.612 354.608,146.612 354.608,130.612 		"/>
	</g>
</g>
<g>
	<g>
		<path d="M487.856,451.86c-4.216-14.768-16.736-25.944-31.888-28.472l-21.36-3.56v-5.624c10.216-9.136,16-21.888,16-35.592v-24
			c0-26.472-21.528-48-48-48s-48,21.528-48,48v24c0,13.704,5.784,26.464,16,35.592v5.624l-21.368,3.56
			c-8.888,1.48-16.768,5.864-22.688,12.248c-5.912-6.328-13.776-10.784-22.584-12.248l-21.36-3.56v-5.624
			c10.216-9.136,16-21.888,16-35.592v-24c0-26.472-21.528-48-48-48s-48,21.528-48,48v24c0,13.704,5.784,26.464,16,35.592v5.624
			l-21.36,3.56c-8.816,1.464-16.672,5.92-22.584,12.248c-5.92-6.384-13.8-10.76-22.696-12.248l-21.36-3.56v-5.624
			c10.216-9.136,16-21.888,16-35.592v-24c0-26.472-21.528-48-48-48s-48,21.528-48,48v24c0,13.704,5.784,26.464,16,35.592v5.624
			l-21.36,3.56c-15.16,2.52-27.672,13.704-31.888,28.472L0,498.612h152h12.08h173.064h12.08h152L487.856,451.86z M165.36,451.86
			l-8.792,30.752H21.216l7.528-26.36c2.52-8.856,10.04-15.56,19.128-17.08l34.736-5.776v-26.944l-3.176-2.4
			c-8.152-6.16-12.824-15.432-12.824-25.44v-24c0-17.648,14.352-32,32-32s32,14.352,32,32v24c0,10.008-4.672,19.28-12.824,25.44
			l-3.176,2.392v26.944l34.728,5.784c7.032,1.176,12.896,5.432,16.48,11.432C165.68,451.028,165.48,451.428,165.36,451.86z
			 M173.216,482.612l7.528-26.36c2.52-8.856,10.04-15.56,19.128-17.08l34.736-5.776v-26.944l-3.176-2.4
			c-8.152-6.16-12.824-15.432-12.824-25.44v-24c0-17.648,14.352-32,32-32s32,14.352,32,32v24c0,10.008-4.672,19.28-12.824,25.44
			l-3.176,2.392v26.944l34.736,5.784c9.088,1.512,16.6,8.216,19.128,17.08l7.528,26.36H173.216z M344.648,482.612l-8.784-30.752
			c-0.12-0.432-0.32-0.832-0.456-1.256c3.584-5.992,9.448-10.256,16.472-11.432l34.728-5.776v-26.944l-3.176-2.4
			c-8.152-6.16-12.824-15.432-12.824-25.44v-24c0-17.648,14.352-32,32-32s32,14.352,32,32v24c0,10.008-4.672,19.28-12.824,25.44
			l-3.176,2.392v26.944l34.736,5.784c9.088,1.512,16.6,8.216,19.128,17.08l7.528,26.36H344.648z"/>
	</g>
</g>
<g>
</g>
<g>
</g>
<g>
</g>
<g>
</g>
<g>
</g>
<g>
</g>
<g>
</g>
<g>
</g>
<g>
</g>
<g>
</g>
<g>
</g>
<g>
</g>
<g>
</g>
<g>
</g>
<g>
</g>
</svg>
